{
.appVersion = "1267";
copyright = "Copyright 2010 Google Inc. All Rights Reserved.";
customParameters = (
{
name = glyphOrder;
value = (
.notdef,
.null,
nonmarkingreturn,
space,
exclam,
quotedbl,
numbersign,
dollar,
percent,
ampersand,
quotesingle,
parenleft,
parenright,
asterisk,
plus,
comma,
hyphen,
period,
slash,
zero,
one,
two,
three,
four,
five,
six,
seven,
eight,
nine,
colon,
semicolon,
less,
equal,
greater,
question,
at,
A,
B,
C,
D,
E,
F,
G,
H,
I,
J,
K,
L,
M,
N,
O,
P,
Q,
R,
S,
T,
U,
V,
W,
X,
Y,
Z,
bracketleft,
backslash,
bracketright,
asciicircum,
underscore,
grave,
a,
b,
c,
d,
e,
f,
g,
h,
i,
j,
k,
l,
m,
n,
o,
p,
q,
r,
s,
t,
u,
v,
w,
x,
y,
z,
braceleft,
bar,
braceright,
asciitilde,
Adieresis,
Aring,
Ccedilla,
Eacute,
Ntilde,
Odieresis,
Udieresis,
aacute,
agrave,
acircumflex,
adieresis,
atilde,
aring,
ccedilla,
eacute,
egrave,
ecircumflex,
edieresis,
iacute,
igrave,
icircumflex,
idieresis,
ntilde,
oacute,
ograve,
ocircumflex,
odieresis,
otilde,
uacute,
ugrave,
ucircumflex,
udieresis,
dagger,
degree,
cent,
sterling,
section,
bullet,
paragraph,
germandbls,
registered,
copyright,
trademark,
acute,
dieresis,
notequal,
AE,
Oslash,
infinity,
plusminus,
lessequal,
greaterequal,
yen,
mu1,
partialdiff,
summation,
product,
integral,
ordfeminine,
ordmasculine,
Ohm,
ae,
oslash,
questiondown,
exclamdown,
logicalnot,
radical,
florin,
approxequal,
uni2206,
guillemotleft,
guillemotright,
ellipsis,
Agrave,
Atilde,
Otilde,
OE,
oe,
endash,
emdash,
quotedblleft,
quotedblright,
quoteleft,
quoteright,
divide,
lozenge,
ydieresis,
Ydieresis,
fraction,
Euro,
guilsinglleft,
guilsinglright,
fi,
fl,
daggerdbl,
periodcentered,
quotesinglbase,
quotedblbase,
perthousand,
Acircumflex,
Ecircumflex,
Aacute,
Edieresis,
Egrave,
Iacute,
Icircumflex,
Idieresis,
Igrave,
Oacute,
Ocircumflex,
Ograve,
Uacute,
Ucircumflex,
Ugrave,
dotlessi,
circumflex,
tilde,
macron,
breve,
dotaccent,
ring,
cedilla,
hungarumlaut,
ogonek,
caron,
Lslash,
lslash,
Scaron,
scaron,
Zcaron,
zcaron,
brokenbar,
Eth,
eth,

glyphs = (
{
glyphname = .notdef;
lastChange = "2020-03-13 21:34:02 +0000";
layers = (
{
layerId = "E64FF656-58E6-4C13-B3CC-343A43FBFB06";
paths = (
{
closed = 1;
nodes = (
"205 1409 LINE",
"205 0 LINE",
"1330 0 LINE",
"1330 1409 LINE",
"205 1409 LINE"
);
},
{
closed = 1;
nodes = (
"281 1333 LINE",
"1254 1333 LINE",
"1254 76 LINE",
"281 76 LINE",
"281 1333 LINE"
);
}
);
width = 1536;
}
);
note = .notdef;
},
{
glyphname = exclam;
lastChange = "2020-03-13 21:34:02 +0000";
layers = (
{
layerId = "E64FF656-58E6-4C13-B3CC-343A43FBFB06";
paths = (
{
closed = 1;
nodes = (
"423 426 LINE",
"647 1409 LINE",
"353 1409 LINE",
"193 426 LINE",
"423 426 LINE"
);
},
{
closed = 1;
nodes = (
"79 0 LINE",
"367 0 LINE",
"419 270 LINE",
"131 270 LINE",
"79 0 LINE"
);
}
);
width = 682;
}
);
note = exclam;
unicode = 0021;
},
{
glyphname = quotedbl;
lastChange = "2020-03-13 21:34:02 +0000";
layers = (
{
layerId = "E64FF656-58E6-4C13-B3CC-343A43FBFB06";
paths = (
{
closed = 1;
nodes = (
"864 898 LINE",
"992 1409 LINE",
"717 1409 LINE",
"645 898 LINE",
"864 898 LINE"
);
},
{
closed = 1;
nodes = (
"438 898 LINE",
"564 1409 LINE",
"291 1409 LINE",
"219 898 LINE",
"438 898 LINE"
);
}
);
width = 971;
}
);
note = quotedbl;
unicode = 0022;
},
{
glyphname = numbersign;
lastChange = "2020-03-13 21:34:02 +0000";
layers = (
{
layerId = "E64FF656-58E6-4C13-B3CC-343A43FBFB06";
paths = (
{
closed = 1;
nodes = (
"939 862 LINE",
"1136 862 LINE",
"1136 1010 LINE",
"972 1010 LINE",
"1056 1395 LINE",
"900 1395 LINE",
"816 1010 LINE",
"509 1010 LINE",
"591 1395 LINE",
"438 1395 LINE",
"354 1010 LINE",
"116 1010 LINE",
"116 862 LINE",
"323 862 LINE",
"253 530 LINE",
"65 530 LINE",
"65 381 LINE",
"220 381 LINE",
"141 0 LINE",
"294 0 LINE",
"374 381 LINE",
"681 381 LINE",
"601 0 LINE",
"757 0 LINE",
"839 381 LINE",
"1085 381 LINE",
"1085 530 LINE",
"870 530 LINE",
"939 862 LINE"
);
},
{
closed = 1;
nodes = (
"479 862 LINE",
"786 862 LINE",
"716 530 LINE",
"407 530 LINE",
"479 862 LINE"
);
}
);
width = 1139;
}
);
note = numbersign;
unicode = 0023;
},
{
glyphname = dollar;
lastChange = "2020-03-13 21:34:02 +0000";
layers = (
{
layerId = "E64FF656-58E6-4C13-B3CC-343A43FBFB06";
paths = (
{
closed = 1;
nodes = (
"1080 474 LINE",
"1080 655.333 OFFCURVE",
"952.667 770.333 OFFCURVE",
"674 837 CURVE",
"741 1190 LINE",
"821 1190 OFFCURVE",
"877.333 1134.667 OFFCURVE",
"896 1032 CURVE",
"1157 1089 LINE",
"1139.667 1274.333 OFFCURVE",
"995 1386 OFFCURVE",
"779 1386 CURVE",
"806 1516 LINE",
"696 1520 LINE",
"672 1394 LINE",
"465.333 1394 OFFCURVE",
"289.833 1322.167 OFFCURVE",
"206.5 1201.5 CURVE SMOOTH",
"164.833 1141.167 OFFCURVE",
"144 1070 OFFCURVE",
"144 988 CURVE SMOOTH",
"144 809.333 OFFCURVE",
"278 679 OFFCURVE",
"518 619 CURVE",
"445 231 LINE",
"325 231 OFFCURVE",
"260.333 290 OFFCURVE",
"251 408 CURVE",
"-11 366 LINE",
"5 158 OFFCURVE",
"168.333 23 OFFCURVE",
"403 23 CURVE",
"371 -152 LINE",
"483 -152 LINE",
"516 21 LINE",
"892 35.667 OFFCURVE",
"1080 190 OFFCURVE",
"1080 474 CURVE"
);
},
{
closed = 1;
nodes = (
"810 413 LINE",
"810 301 OFFCURVE",
"707.333 231 OFFCURVE",
"554 231 CURVE",
"627 593 LINE",
"753.667 563.667 OFFCURVE",
"810 515.667 OFFCURVE",
"810 413 CURVE"
);
},
{
closed = 1;
nodes = (
"412 1006 LINE",
"412 1115.333 OFFCURVE",
"501 1194 OFFCURVE",
"633 1194 CURVE",
"566 863 LINE",
"447.333 901.667 OFFCURVE",
"412 940.667 OFFCURVE",
"412 1006 CURVE"
);
}
);
width = 1139;
}
);
note = dollar;
unicode = 0024;
},
{
glyphname = percent;
lastChange = "2020-03-13 21:34:02 +0000";
layers = (
{
layerId = "E64FF656-58E6-4C13-B3CC-343A43FBFB06";
paths = (
{
closed = 1;
nodes = (
"546 1421 LINE",
"328.667 1421 OFFCURVE",
"192 1285.667 OFFCURVE",
"136 1015 CURVE",
"120 958.333 OFFCURVE",
"112 900.333 OFFCURVE",
"112 841 CURVE SMOOTH",
"112 642.333 OFFCURVE",
"217.667 524 OFFCURVE",
"407 524 CURVE SMOOTH",
"545.667 524 OFFCURVE",
"657.667 588 OFFCURVE",
"739 708 CURVE SMOOTH",
"779.667 768 OFFCURVE",
"809.667 843.667 OFFCURVE",
"829 935 CURVE",
"846.333 999 OFFCURVE",
"855 1058.333 OFFCURVE",
"855 1113 CURVE SMOOTH",
"855 1311.667 OFFCURVE",
"746 1421 OFFCURVE",
"546 1421 CURVE"
);
},
{
closed = 1;
nodes = (
"545 1270 LINE",
"609 1270 OFFCURVE",
"641 1223.667 OFFCURVE",
"641 1131 CURVE SMOOTH",
"641 1079.667 OFFCURVE",
"631.667 1017.667 OFFCURVE",
"613 945 CURVE",
"578.333 770.333 OFFCURVE",
"516.333 685 OFFCURVE",
"411 685 CURVE SMOOTH",
"353.667 685 OFFCURVE",
"325 732.333 OFFCURVE",
"325 827 CURVE SMOOTH",
"325 925.667 OFFCURVE",
"362 1130 OFFCURVE",
"422 1210 CURVE SMOOTH",
"452 1250 OFFCURVE",
"493 1270 OFFCURVE",
"545 1270 CURVE"
);
},
{
closed = 1;
nodes = (
"1455 882 LINE",
"1237.667 882 OFFCURVE",
"1101 746.667 OFFCURVE",
"1045 476 CURVE",
"1029 419.333 OFFCURVE",
"1021 361.333 OFFCURVE",
"1021 302 CURVE SMOOTH",
"1021 103.333 OFFCURVE",
"1126.667 -15 OFFCURVE",
"1316 -15 CURVE SMOOTH",
"1454.667 -15 OFFCURVE",
"1566.667 49 OFFCURVE",
"1648 169 CURVE SMOOTH",
"1688.667 229 OFFCURVE",
"1718.667 304.667 OFFCURVE",
"1738 396 CURVE",
"1755.333 460 OFFCURVE",
"1764 519.333 OFFCURVE",
"1764 574 CURVE SMOOTH",
"1764 772.667 OFFCURVE",
"1655 882 OFFCURVE",
"1455 882 CURVE"
);
},
{
closed = 1;
nodes = (
"1454 731 LINE",
"1518 731 OFFCURVE",
"1550 684.667 OFFCURVE",
"1550 592 CURVE SMOOTH",
"1550 540.667 OFFCURVE",
"1540.667 478.667 OFFCURVE",
"1522 406 CURVE",
"1487.333 231.333 OFFCURVE",
"1425.333 146 OFFCURVE",
"1320 146 CURVE SMOOTH",
"1262.667 146 OFFCURVE",
"1234 193.333 OFFCURVE",
"1234 288 CURVE SMOOTH",
"1234 386.667 OFFCURVE",
"1271 591 OFFCURVE",
"1331 671 CURVE SMOOTH",
"1361 711 OFFCURVE",
"1402 731 OFFCURVE",
"1454 731 CURVE"
);
},
{
closed = 1;
nodes = (
"486 0 LINE",
"1574 1409 LINE",
"1375 1409 LINE",
"289 0 LINE",
"486 0 LINE"
);
}
);
width = 1821;
}
);
note = percent;
unicode = 0025;
},
{
glyphname = ampersand;
lastChange = "2020-03-13 21:34:02 +0000";
layers = (
{
layerId = "E64FF656-58E6-4C13-B3CC-343A43FBFB06";
paths = (
{
closed = 1;
nodes = (
"49 354 LINE",
"49 112.667 OFFCURVE",
"196 -20 OFFCURVE",
"464 -20 CURVE SMOOTH",
"578.667 -20 OFFCURVE",
"670.667 -2.5 OFFCURVE",
"740 27.5 CURVE SMOOTH",
"774.667 42.5 OFFCURVE",
"815.667 68.333 OFFCURVE",
"863 105 CURVE",
"950.333 27 OFFCURVE",
"1052 -12 OFFCURVE",
"1168 -12 CURVE SMOOTH",
"1216.667 -12 OFFCURVE",
"1263 -4.667 OFFCURVE",
"1307 10 CURVE",
"1346 213 LINE",
"1314 202.333 OFFCURVE",
"1277 197 OFFCURVE",
"1235 197 CURVE SMOOTH",
"1162.333 197 OFFCURVE",
"1101 218.333 OFFCURVE",
"1051 261 CURVE",
"1161.667 374.333 OFFCURVE",
"1269 538.333 OFFCURVE",
"1329 677 CURVE",
"1142 760 LINE",
"1074.667 611.333 OFFCURVE",
"996.667 489.667 OFFCURVE",
"908 395 CURVE",
"837.333 489.667 OFFCURVE",
"793.333 568.333 OFFCURVE",
"736 727 CURVE",
"873.333 783 OFFCURVE",
"970.5 830.5 OFFCURVE",
"1027.5 869.5 CURVE SMOOTH",
"1141.5 947.5 OFFCURVE",
"1204 1038.667 OFFCURVE",
"1204 1160 CURVE SMOOTH",
"1204 1322.667 OFFCURVE",
"1080 1417 OFFCURVE",
"868 1417 CURVE SMOOTH",
"602.667 1417 OFFCURVE",
"440 1266.333 OFFCURVE",
"440 1037 CURVE SMOOTH",
"440 967.667 OFFCURVE",
"455 875 OFFCURVE",
"475 811 CURVE",
"191 712.333 OFFCURVE",
"49 560 OFFCURVE",
"49 354 CURVE"
);
},
{
closed = 1;
nodes = (
"493 170 LINE",
"379.667 170 OFFCURVE",
"304 246.667 OFFCURVE",
"304 360 CURVE SMOOTH",
"304 470.667 OFFCURVE",
"359.667 556.333 OFFCURVE",
"525 631 CURVE",
"575.667 485.667 OFFCURVE",
"642.333 358.333 OFFCURVE",
"725 249 CURVE",
"665 203.667 OFFCURVE",
"577 170 OFFCURVE",
"493 170 CURVE"
);
},
{
closed = 1;
nodes = (
"667 1041 LINE",
"667 1169 OFFCURVE",
"741.667 1247 OFFCURVE",
"855 1247 CURVE SMOOTH",
"932.333 1247 OFFCURVE",
"980 1210 OFFCURVE",
"980 1142 CURVE SMOOTH",
"980 1074 OFFCURVE",
"945.667 1023.5 OFFCURVE",
"879 981.5 CURVE SMOOTH",
"845.667 960.5 OFFCURVE",
"781.667 932 OFFCURVE",
"687 896 CURVE",
"673.667 938.667 OFFCURVE",
"667 987 OFFCURVE",
"667 1041 CURVE"
);
}
);
width = 1479;
}
);
note = ampersand;
unicode = 0026;
},
{
glyphname = quotesingle;
lastChange = "2020-03-13 21:34:02 +0000";
layers = (
{
layerId = "E64FF656-58E6-4C13-B3CC-343A43FBFB06";
paths = (
{
closed = 1;
nodes = (
"417 898 LINE",
"543 1409 LINE",
"271 1409 LINE",
"198 898 LINE",
"417 898 LINE"
);
}
);
width = 487;
}
);
note = quotesingle;
unicode = 0027;
},
{
glyphname = parenleft;
lastChange = "2020-03-13 21:34:02 +0000";
layers = (
{
layerId = "E64FF656-58E6-4C13-B3CC-343A43FBFB06";
paths = (
{
closed = 1;
nodes = (
"874 1484 LINE",
"593 1484 LINE",
"253 1192 OFFCURVE",
"74 780 OFFCURVE",
"74 296 CURVE SMOOTH",
"74 26 OFFCURVE",
"123.333 -214.333 OFFCURVE",
"222 -425 CURVE",
"497 -425 LINE",
"399 -221 OFFCURVE",
"350 14 OFFCURVE",
"350 280 CURVE SMOOTH",
"350 749.333 OFFCURVE",
"524.667 1150.667 OFFCURVE",
"874 1484 CURVE"
);
}
);
width = 682;
}
);
note = parenleft;
unicode = 0028;
},
{
glyphname = parenright;
lastChange = "2020-03-13 21:34:02 +0000";
layers = (
{
layerId = "E64FF656-58E6-4C13-B3CC-343A43FBFB06";
paths = (
{
closed = 1;
nodes = (
"-180 -425 LINE",
"101 -425 LINE",
"438.333 -130.333 OFFCURVE",
"622 293 OFFCURVE",
"622 793 CURVE SMOOTH",
"622 1040.333 OFFCURVE",
"568.333 1270.667 OFFCURVE",
"461 1484 CURVE",
"196 1484 LINE",
"288 1293.333 OFFCURVE",
"345 1035.667 OFFCURVE",
"345 809 CURVE SMOOTH",
"345 328.333 OFFCURVE",
"170 -83 OFFCURVE",
"-180 -425 CURVE"
);
}
);
width = 682;
}
);
note = parenright;
unicode = 0029;
},
{
glyphname = asterisk;
lastChange = "2020-03-13 21:34:02 +0000";
layers = (
{
layerId = "E64FF656-58E6-4C13-B3CC-343A43FBFB06";
paths = (
{
closed = 1;
nodes = (
"574 1135 LINE",
"592 1409 LINE",
"377 1409 LINE",
"395 1135 LINE",
"156 1239 LINE",
"88 1042 LINE",
"338 981 LINE",
"148 770 LINE",
"334 647 LINE",
"483 899 LINE",
"629 647 LINE",
"813 768 LINE",
"627 981 LINE",
"877 1042 LINE",
"809 1239 LINE",
"574 1135 LINE"
);
}
);
width = 797;
}
);
note = asterisk;
unicode = 002A;
},
{
glyphname = plus;
lastChange = "2020-03-13 21:34:02 +0000";
layers = (
{
layerId = "E64FF656-58E6-4C13-B3CC-343A43FBFB06";
paths = (
{
closed = 1;
nodes = (
"750 569 LINE",
"1152 569 LINE",
"1152 793 LINE",
"750 793 LINE",
"750 1201 LINE",
"524 1201 LINE",
"524 793 LINE",
"125 793 LINE",
"125 569 LINE",
"524 569 LINE",
"524 161 LINE",
"750 161 LINE",
"750 569 LINE"
);
}
);
width = 1196;
}
);
note = plus;
unicode = 002B;
},
{
glyphname = comma;
lastChange = "2020-03-13 21:34:02 +0000";
layers = (
{
layerId = "E64FF656-58E6-4C13-B3CC-343A43FBFB06";
paths = (
{
closed = 1;
nodes = (
"165 -317 LINE",
"262.333 -210.333 OFFCURVE",
"316.333 -94 OFFCURVE",
"347 66 CURVE SMOOTH",
"394 305 LINE",
"105 305 LINE",
"46 0 LINE",
"175 0 LINE",
"156.333 -97.333 OFFCURVE",
"84 -213 OFFCURVE",
"-20 -317 CURVE",
"165 -317 LINE"
);
}
);
width = 569;
}
);
note = comma;
unicode = 002C;
},
{
glyphname = hyphen;
lastChange = "2020-03-13 21:34:02 +0000";
layers = (
{
layerId = "E64FF656-58E6-4C13-B3CC-343A43FBFB06";
paths = (
{
closed = 1;
nodes = (
"56 409 LINE",
"576 409 LINE",
"623 653 LINE",
"103 653 LINE",
"56 409 LINE"
);
}
);
width = 682;
}
);
note = hyphen;
unicode = "002D,00AD";
},
{
glyphname = period;
lastChange = "2020-03-13 21:34:02 +0000";
layers = (
{
layerId = "E64FF656-58E6-4C13-B3CC-343A43FBFB06";
paths = (
{
closed = 1;
nodes = (
"46 0 LINE",
"335 0 LINE",
"394 305 LINE",
"105 305 LINE",
"46 0 LINE"
);
}
);
width = 569;
}
);
note = period;
unicode = 002E;
},
{
glyphname = slash;
lastChange = "2020-03-13 21:34:02 +0000";
layers = (
{
layerId = "E64FF656-58E6-4C13-B3CC-343A43FBFB06";
paths = (
{
closed = 1;
nodes = (
"-76 -41 LINE",
"166 -41 LINE",
"749 1484 LINE",
"511 1484 LINE",
"-76 -41 LINE"
);
}
);
width = 569;
}
);
note = slash;
unicode = 002F;
},
{
glyphname = zero;
lastChange = "2020-03-13 21:34:02 +0000";
layers = (
{
layerId = "E64FF656-58E6-4C13-B3CC-343A43FBFB06";
paths = (
{
closed = 1;
nodes = (
"724 1430 LINE",
"510.667 1430 OFFCURVE",
"358.333 1332 OFFCURVE",
"253 1144 CURVE SMOOTH",
"147.667 956 OFFCURVE",
"85 639.333 OFFCURVE",
"85 454 CURVE SMOOTH",
"85 135.333 OFFCURVE",
"211.333 -20 OFFCURVE",
"478 -20 CURVE SMOOTH",
"784 -20 OFFCURVE",
"985 208.333 OFFCURVE",
"1081 665 CURVE SMOOTH",
"1106.333 787.667 OFFCURVE",
"1119 887.333 OFFCURVE",
"1119 964 CURVE SMOOTH",
"1119 1274.667 OFFCURVE",
"987.333 1430 OFFCURVE",
"724 1430 CURVE"
);
},
{
closed = 1;
nodes = (
"497 201 LINE",
"404.333 201 OFFCURVE",
"358 272.333 OFFCURVE",
"358 415 CURVE SMOOTH",
"358 525.667 OFFCURVE",
"413.5 872.167 OFFCURVE",
"463.5 1011.5 CURVE SMOOTH",
"513.5 1150.833 OFFCURVE",
"579.333 1210 OFFCURVE",
"694 1210 CURVE SMOOTH",
"795.333 1210 OFFCURVE",
"846 1132.333 OFFCURVE",
"846 977 CURVE SMOOTH",
"846 866.333 OFFCURVE",
"778.5 451.833 OFFCURVE",
"684.5 308.5 CURVE SMOOTH",
"637.5 236.833 OFFCURVE",
"575 201 OFFCURVE",
"497 201 CURVE"
);
}
);
width = 1139;
}
);
note = zero;
unicode = 0030;
},
{
glyphname = one;
lastChange = "2020-03-13 21:34:02 +0000";
layers = (
{
layerId = "E64FF656-58E6-4C13-B3CC-343A43FBFB06";
paths = (
{
closed = 1;
nodes = (
"33 0 LINE",
"985 0 LINE",
"1029 231 LINE",
"706 231 LINE",
"936 1409 LINE",
"666 1409 LINE",
"270 1180 LINE",
"223 938 LINE",
"604 1152 LINE",
"425 231 LINE",
"76 231 LINE",
"33 0 LINE"
);
}
);
width = 1139;
}
);
note = one;
unicode = 0031;
},
{
glyphname = two;
lastChange = "2020-03-13 21:34:02 +0000";
layers = (
{
layerId = "E64FF656-58E6-4C13-B3CC-343A43FBFB06";
paths = (
{
closed = 1;
nodes = (
"-32 0 LINE",
"953 0 LINE",
"997 231 LINE",
"343 231 LINE",
"401.667 319 OFFCURVE",
"500 403 OFFCURVE",
"676 523 CURVE SMOOTH",
"928 692.333 OFFCURVE",
"1020 784 OFFCURVE",
"1076 900 CURVE SMOOTH",
"1104 958 OFFCURVE",
"1118 1019 OFFCURVE",
"1118 1083 CURVE SMOOTH",
"1118 1312.333 OFFCURVE",
"967 1430 OFFCURVE",
"687 1430 CURVE SMOOTH",
"420.333 1430 OFFCURVE",
"248.667 1319.667 OFFCURVE",
"178 1081 CURVE",
"444 1022 LINE",
"480 1150 OFFCURVE",
"549.667 1206 OFFCURVE",
"667 1206 CURVE SMOOTH",
"775 1206 OFFCURVE",
"829 1158.333 OFFCURVE",
"829 1063 CURVE SMOOTH",
"829 980.333 OFFCURVE",
"788 907 OFFCURVE",
"716 835 CURVE SMOOTH",
"680 799 OFFCURVE",
"612.667 746.333 OFFCURVE",
"514 677 CURVE SMOOTH",
"272.667 509 OFFCURVE",
"203.333 445.667 OFFCURVE",
"118 351 CURVE SMOOTH",
"75.333 303.667 OFFCURVE",
"37.667 251.667 OFFCURVE",
"5 195 CURVE",
"-32 0 LINE"
);
}
);
width = 1139;
}
);
note = two;
unicode = 0032;
},
{
glyphname = three;
lastChange = "2020-03-13 21:34:02 +0000";
layers = (
{
layerId = "E64FF656-58E6-4C13-B3CC-343A43FBFB06";
paths = (
{
closed = 1;
nodes = (
"535 829 LINE",
"462 829 LINE",
"418 602 LINE",
"525 602 LINE SMOOTH",
"671.667 602 OFFCURVE",
"745 540 OFFCURVE",
"745 416 CURVE SMOOTH",
"745 285.333 OFFCURVE",
"662.667 206 OFFCURVE",
"524 206 CURVE SMOOTH",
"376 206 OFFCURVE",
"312.667 261 OFFCURVE",
"298 381 CURVE",
"16 343 LINE",
"37.333 107 OFFCURVE",
"209.667 -20 OFFCURVE",
"511 -20 CURVE SMOOTH",
"715 -20 OFFCURVE",
"878.333 57.167 OFFCURVE",
"965 192.5 CURVE SMOOTH",
"1008.333 260.167 OFFCURVE",
"1030 335.333 OFFCURVE",
"1030 418 CURVE SMOOTH",
"1030 584.667 OFFCURVE",
"934 693 OFFCURVE",
"754 721 CURVE",
"755 725 LINE",
"977.667 745 OFFCURVE",
"1116 878 OFFCURVE",
"1116 1086 CURVE SMOOTH",
"1116 1302 OFFCURVE",
"955.667 1430 OFFCURVE",
"685 1430 CURVE SMOOTH",
"409.667 1430 OFFCURVE",
"238 1311.333 OFFCURVE",
"170 1074 CURVE",
"437 1022 LINE",
"471 1144.667 OFFCURVE",
"550 1206 OFFCURVE",
"674 1206 CURVE SMOOTH",
"780.667 1206 OFFCURVE",
"831 1147 OFFCURVE",
"831 1051 CURVE SMOOTH",
"831 909.667 OFFCURVE",
"733.667 829 OFFCURVE",
"535 829 CURVE"
);
}
);
width = 1139;
}
);
note = three;
unicode = 0033;
},
{
glyphname = four;
lastChange = "2020-03-13 21:34:02 +0000";
layers = (
{
layerId = "E64FF656-58E6-4C13-B3CC-343A43FBFB06";
paths = (
{
closed = 1;
nodes = (
"874 286 LINE",
"1062 286 LINE",
"1104 496 LINE",
"916 496 LINE",
"1094 1409 LINE",
"724 1409 LINE",
"7 493 LINE",
"-34 286 LINE",
"606 286 LINE",
"552 0 LINE",
"820 0 LINE",
"874 286 LINE"
);
},
{
closed = 1;
nodes = (
"800 1206 LINE",
"778.667 1142 OFFCURVE",
"762 1080 OFFCURVE",
"750 1020 CURVE SMOOTH",
"648 496 LINE",
"259 496 LINE",
"683 1036 LINE SMOOTH",
"730.333 1097.333 OFFCURVE",
"769.333 1154 OFFCURVE",
"800 1206 CURVE"
);
}
);
width = 1139;
}
);
note = four;
unicode = 0034;
},
{
glyphname = five;
lastChange = "2020-03-13 21:34:02 +0000";
layers = (
{
layerId = "E64FF656-58E6-4C13-B3CC-343A43FBFB06";
paths = (
{
closed = 1;
nodes = (
"316 1409 LINE",
"113 616 LINE",
"387 616 LINE",
"439.667 676.667 OFFCURVE",
"507 707 OFFCURVE",
"589 707 CURVE SMOOTH",
"709 707 OFFCURVE",
"778 626 OFFCURVE",
"778 486 CURVE SMOOTH",
"778 316.667 OFFCURVE",
"676.667 206 OFFCURVE",
"510 206 CURVE SMOOTH",
"384.667 206 OFFCURVE",
"327 250 OFFCURVE",
"303 374 CURVE",
"20 329 LINE",
"57.333 99.667 OFFCURVE",
"220.667 -20 OFFCURVE",
"486 -20 CURVE SMOOTH",
"716.667 -20 OFFCURVE",
"899.5 71.167 OFFCURVE",
"993.5 234.5 CURVE SMOOTH",
"1040.5 316.167 OFFCURVE",
"1064 410.667 OFFCURVE",
"1064 518 CURVE SMOOTH",
"1064 771.333 OFFCURVE",
"916.667 934 OFFCURVE",
"694 934 CURVE SMOOTH",
"579.695 934 OFFCURVE",
"495.048 893.82 OFFCURVE",
"439 844 CURVE",
"526 1178 LINE",
"1120 1178 LINE",
"1163 1409 LINE",
"316 1409 LINE"
);
}
);
width = 1139;
}
);
note = five;
unicode = 0035;
},
{
glyphname = six;
lastChange = "2020-03-13 21:34:02 +0000";
layers = (
{
layerId = "E64FF656-58E6-4C13-B3CC-343A43FBFB06";
paths = (
{
closed = 1;
nodes = (
"533 -20 LINE",
"741 -20 OFFCURVE",
"914.667 83.333 OFFCURVE",
"1008 254 CURVE SMOOTH",
"1054.667 339.333 OFFCURVE",
"1078 432.333 OFFCURVE",
"1078 533 CURVE SMOOTH",
"1078 765 OFFCURVE",
"943.667 907 OFFCURVE",
"725 907 CURVE SMOOTH",
"587.667 907 OFFCURVE",
"476.667 842 OFFCURVE",
"406 746 CURVE",
"458 1055.333 OFFCURVE",
"576.667 1208 OFFCURVE",
"730 1208 CURVE SMOOTH",
"818 1208 OFFCURVE",
"865.333 1162.333 OFFCURVE",
"884 1065 CURVE",
"1150 1106 LINE",
"1126 1315.333 OFFCURVE",
"985 1430 OFFCURVE",
"745 1430 CURVE SMOOTH",
"499.667 1430 OFFCURVE",
"289.833 1263.5 OFFCURVE",
"178.5 973.5 CURVE SMOOTH",
"122.833 828.5 OFFCURVE",
"95 666.333 OFFCURVE",
"95 487 CURVE SMOOTH",
"95 165.667 OFFCURVE",
"253 -20 OFFCURVE",
"533 -20 CURVE"
);
},
{
closed = 1;
nodes = (
"369 429 LINE",
"369 534.333 OFFCURVE",
"414 620.667 OFFCURVE",
"490 666 CURVE SMOOTH",
"528 688.667 OFFCURVE",
"569.333 700 OFFCURVE",
"614 700 CURVE SMOOTH",
"724.667 700 OFFCURVE",
"792 628.333 OFFCURVE",
"792 499 CURVE SMOOTH",
"792 317.667 OFFCURVE",
"700.667 200 OFFCURVE",
"558 200 CURVE SMOOTH",
"436.667 200 OFFCURVE",
"369 289 OFFCURVE",
"369 429 CURVE"
);
}
);
width = 1139;
}
);
note = six;
unicode = 0036;
},
{
glyphname = seven;
lastChange = "2020-03-13 21:34:02 +0000";
layers = (
{
layerId = "E64FF656-58E6-4C13-B3CC-343A43FBFB06";
paths = (
{
closed = 1;
nodes = (
"188 1409 LINE",
"143 1178 LINE",
"893 1178 LINE",
"721 988.667 OFFCURVE",
"564.167 815.667 OFFCURVE",
"439.5 629 CURVE SMOOTH",
"314.833 442.333 OFFCURVE",
"220.667 242.667 OFFCURVE",
"174 0 CURVE",
"472 0 LINE",
"541.333 336 OFFCURVE",
"667.667 584 OFFCURVE",
"1013 992 CURVE SMOOTH",
"1175 1186 LINE",
"1219 1409 LINE",
"188 1409 LINE"
);
}
);
width = 1139;
}
);
note = seven;
unicode = 0037;
},
{
glyphname = eight;
lastChange = "2020-03-13 21:34:02 +0000";
layers = (
{
layerId = "E64FF656-58E6-4C13-B3CC-343A43FBFB06";
paths = (
{
closed = 1;
nodes = (
"707 1429 LINE",
"395 1429 OFFCURVE",
"199 1288 OFFCURVE",
"199 1052 CURVE SMOOTH",
"199 906.667 OFFCURVE",
"263.333 795.667 OFFCURVE",
"386 741 CURVE",
"386 737 LINE",
"159.333 691.667 OFFCURVE",
"27 556 OFFCURVE",
"27 360 CURVE SMOOTH",
"27 121.333 OFFCURVE",
"197 -20 OFFCURVE",
"493 -20 CURVE SMOOTH",
"838.333 -20 OFFCURVE",
"1049 154.667 OFFCURVE",
"1049 432 CURVE SMOOTH",
"1049 581.333 OFFCURVE",
"967 695 OFFCURVE",
"819 739 CURVE",
"820 743 LINE",
"1013.333 769.667 OFFCURVE",
"1136 904.333 OFFCURVE",
"1136 1091 CURVE SMOOTH",
"1136 1297.667 OFFCURVE",
"972.333 1429 OFFCURVE",
"707 1429 CURVE"
);
},
{
closed = 1;
nodes = (
"648 840 LINE",
"538.667 840 OFFCURVE",
"476 904 OFFCURVE",
"476 1020 CURVE SMOOTH",
"476 1154.667 OFFCURVE",
"552.333 1232 OFFCURVE",
"679 1232 CURVE SMOOTH",
"793.667 1232 OFFCURVE",
"851 1176 OFFCURVE",
"851 1064 CURVE SMOOTH",
"851 924 OFFCURVE",
"773.333 840 OFFCURVE",
"648 840 CURVE"
);
},
{
closed = 1;
nodes = (
"561 640 LINE",
"685 640 OFFCURVE",
"760 570.667 OFFCURVE",
"760 444 CURVE SMOOTH",
"760 281.333 OFFCURVE",
"664 178 OFFCURVE",
"520 178 CURVE SMOOTH",
"392 178 OFFCURVE",
"317 250.333 OFFCURVE",
"317 377 CURVE SMOOTH",
"317 538.333 OFFCURVE",
"406.333 640 OFFCURVE",
"561 640 CURVE"
);
}
);
width = 1139;
}
);
note = eight;
unicode = 0038;
},
{
glyphname = nine;
lastChange = "2020-03-13 21:34:02 +0000";
layers = (
{
layerId = "E64FF656-58E6-4C13-B3CC-343A43FBFB06";
paths = (
{
closed = 1;
nodes = (
"817 653 LINE",
"759.667 352.333 OFFCURVE",
"653.333 202 OFFCURVE",
"498 202 CURVE SMOOTH",
"400 202 OFFCURVE",
"341.333 254.333 OFFCURVE",
"322 359 CURVE",
"48 311 LINE",
"84 99 OFFCURVE",
"236.333 -20 OFFCURVE",
"479 -20 CURVE SMOOTH",
"671 -20 OFFCURVE",
"830 74.5 OFFCURVE",
"946 260.5 CURVE SMOOTH",
"1062 446.5 OFFCURVE",
"1130 727.667 OFFCURVE",
"1130 957 CURVE SMOOTH",
"1130 1245 OFFCURVE",
"958.667 1430 OFFCURVE",
"692 1430 CURVE SMOOTH",
"489.333 1430 OFFCURVE",
"312.667 1332.5 OFFCURVE",
"218 1166.5 CURVE SMOOTH",
"170.667 1083.5 OFFCURVE",
"147 992.333 OFFCURVE",
"147 893 CURVE SMOOTH",
"147 658.333 OFFCURVE",
"285.333 503 OFFCURVE",
"500 503 CURVE SMOOTH",
"638.667 503 OFFCURVE",
"730.333 550.333 OFFCURVE",
"817 653 CURVE"
);
},
{
closed = 1;
nodes = (
"855 1009 LINE",
"855 823.667 OFFCURVE",
"763 710 OFFCURVE",
"611 710 CURVE SMOOTH",
"500.333 710 OFFCURVE",
"432 786.667 OFFCURVE",
"432 900 CURVE SMOOTH",
"432 1089.333 OFFCURVE",
"526 1210 OFFCURVE",
"678 1210 CURVE SMOOTH",
"780.667 1210 OFFCURVE",
"855 1125 OFFCURVE",
"855 1009 CURVE"
);
}
);
width = 1139;
}
);
note = nine;
unicode = 0039;
},
{
glyphname = colon;
lastChange = "2020-03-13 21:34:02 +0000";
layers = (
{
layerId = "E64FF656-58E6-4C13-B3CC-343A43FBFB06";
paths = (
{
closed = 1;
nodes = (
"235 752 LINE",
"523 752 LINE",
"578 1034 LINE",
"290 1034 LINE",
"235 752 LINE"
);
},
{
closed = 1;
nodes = (
"89 0 LINE",
"377 0 LINE",
"432 281 LINE",
"144 281 LINE",
"89 0 LINE"
);
}
);
width = 682;
}
);
note = colon;
unicode = 003A;
},
{
glyphname = semicolon;
lastChange = "2020-03-13 21:34:02 +0000";
layers = (
{
layerId = "E64FF656-58E6-4C13-B3CC-343A43FBFB06";
paths = (
{
closed = 1;
nodes = (
"235 752 LINE",
"523 752 LINE",
"578 1034 LINE",
"290 1034 LINE",
"235 752 LINE"
);
},
{
closed = 1;
nodes = (
"207 -317 LINE",
"307 -209 OFFCURVE",
"359.333 -94 OFFCURVE",
"390 66 CURVE SMOOTH",
"432 281 LINE",
"144 281 LINE",
"89 0 LINE",
"218 0 LINE",
"199.333 -97.333 OFFCURVE",
"127 -213 OFFCURVE",
"23 -317 CURVE",
"207 -317 LINE"
);
}
);
width = 682;
}
);
note = semicolon;
unicode = "003B,037E";
},
{
glyphname = less;
lastChange = "2020-03-13 21:34:02 +0000";
layers = (
{
layerId = "E64FF656-58E6-4C13-B3CC-343A43FBFB06";
paths = (
{
closed = 1;
nodes = (
"124 516 LINE",
"1151 125 LINE",
"1151 352 LINE",
"318 676 LINE",
"1151 1001 LINE",
"1151 1229 LINE",
"124 838 LINE",
"124 516 LINE"
);
}
);
width = 1196;
}
);
note = less;
unicode = 003C;
},
{
glyphname = equal;
lastChange = "2020-03-13 21:34:02 +0000";
layers = (
{
layerId = "E64FF656-58E6-4C13-B3CC-343A43FBFB06";
paths = (
{
closed = 1;
nodes = (
"123 842 LINE",
"1150 842 LINE",
"1150 1065 LINE",
"123 1065 LINE",
"123 842 LINE"
);
},
{
closed = 1;
nodes = (
"123 291 LINE",
"1150 291 LINE",
"1150 512 LINE",
"123 512 LINE",
"123 291 LINE"
);
}
);
width = 1196;
}
);
note = equal;
unicode = 003D;
},
{
glyphname = greater;
lastChange = "2020-03-13 21:34:02 +0000";
layers = (
{
layerId = "E64FF656-58E6-4C13-B3CC-343A43FBFB06";
paths = (
{
closed = 1;
nodes = (
"124 125 LINE",
"1151 516 LINE",
"1151 838 LINE",
"124 1229 LINE",
"124 1001 LINE",
"956 676 LINE",
"124 352 LINE",
"124 125 LINE"
);
}
);
width = 1196;
}
);
note = greater;
unicode = 003E;
},
{
glyphname = question;
lastChange = "2020-03-13 21:34:02 +0000";
layers = (
{
layerId = "E64FF656-58E6-4C13-B3CC-343A43FBFB06";
paths = (
{
closed = 1;
nodes = (
"745 1430 LINE",
"449 1430 OFFCURVE",
"262 1302.667 OFFCURVE",
"184 1048 CURVE",
"450 1008 LINE",
"484.667 1136.667 OFFCURVE",
"577.667 1201 OFFCURVE",
"729 1201 CURVE SMOOTH",
"863.667 1201 OFFCURVE",
"926 1139 OFFCURVE",
"926 1055 CURVE SMOOTH",
"926 1003 OFFCURVE",
"913 964.167 OFFCURVE",
"877 923.5 CURVE SMOOTH",
"841 882.833 OFFCURVE",
"782 841.333 OFFCURVE",
"690 784 CURVE SMOOTH",
"532.667 686.667 OFFCURVE",
"485.333 637.167 OFFCURVE",
"444 560.5 CURVE SMOOTH",
"423.333 522.167 OFFCURVE",
"408.333 477.333 OFFCURVE",
"399 426 CURVE",
"666 426 LINE",
"674 482 OFFCURVE",
"696.5 521 OFFCURVE",
"734.5 557 CURVE SMOOTH",
"753.5 575 OFFCURVE",
"789 601 OFFCURVE",
"841 635 CURVE",
"1050.333 751 OFFCURVE",
"1121.5 819.333 OFFCURVE",
"1171.5 914 CURVE SMOOTH",
"1196.5 961.333 OFFCURVE",
"1209 1015 OFFCURVE",
"1209 1075 CURVE SMOOTH",
"1209 1297.667 OFFCURVE",
"1030.333 1430 OFFCURVE",
"745 1430 CURVE"
);
},
{
closed = 1;
nodes = (
"309 0 LINE",
"598 0 LINE",
"650 270 LINE",
"361 270 LINE",
"309 0 LINE"
);
}
);
width = 1251;
}
);
note = question;
unicode = 003F;
},
{
glyphname = at;
lastChange = "2020-03-13 21:34:02 +0000";
layers = (
{
layerId = "E64FF656-58E6-4C13-B3CC-343A43FBFB06";
paths = (
{
closed = 1;
nodes = (
"1911 755 LINE",
"1911 1045.667 OFFCURVE",
"1783.333 1272.833 OFFCURVE",
"1546 1393.5 CURVE SMOOTH",
"1427.333 1453.833 OFFCURVE",
"1287 1484 OFFCURVE",
"1125 1484 CURVE SMOOTH",
"757 1484 OFFCURVE",
"445.167 1308.333 OFFCURVE",
"276.5 1003 CURVE SMOOTH",
"192.167 850.333 OFFCURVE",
"150 679.667 OFFCURVE",
"150 491 CURVE SMOOTH",
"150 180.333 OFFCURVE",
"291.167 -71.167 OFFCURVE",
"530.5 -198.5 CURVE SMOOTH",
"650.167 -262.167 OFFCURVE",
"788.667 -294 OFFCURVE",
"946 -294 CURVE SMOOTH",
"1171.333 -294 OFFCURVE",
"1380 -243.667 OFFCURVE",
"1604 -117 CURVE",
"1542 5 LINE",
"1345.333 -98.333 OFFCURVE",
"1149 -150 OFFCURVE",
"953 -150 CURVE SMOOTH",
"694.333 -150 OFFCURVE",
"497.5 -48.167 OFFCURVE",
"391.5 148.5 CURVE SMOOTH",
"338.5 246.833 OFFCURVE",
"312 361 OFFCURVE",
"312 491 CURVE SMOOTH",
"312 819 OFFCURVE",
"460 1098 OFFCURVE",
"704 1238 CURVE SMOOTH",
"826 1308 OFFCURVE",
"967 1343 OFFCURVE",
"1127 1343 CURVE SMOOTH",
"1381.667 1343 OFFCURVE",
"1580.5 1241.833 OFFCURVE",
"1682.5 1062.5 CURVE SMOOTH",
"1733.5 972.833 OFFCURVE",
"1759 869.667 OFFCURVE",
"1759 753 CURVE SMOOTH",
"1759 566.333 OFFCURVE",
"1698.333 403.167 OFFCURVE",
"1601 310.5 CURVE SMOOTH",
"1552.333 264.167 OFFCURVE",
"1501.333 241 OFFCURVE",
"1448 241 CURVE SMOOTH",
"1406.667 241 OFFCURVE",
"1370 266.333 OFFCURVE",
"1370 333 CURVE SMOOTH",
"1370 378.333 OFFCURVE",
"1382.333 458.333 OFFCURVE",
"1407 573 CURVE SMOOTH",
"1524 1079 LINE",
"1368 1079 LINE",
"1329 927 LINE",
"1323 927 LINE",
"1277 1043 OFFCURVE",
"1189 1101 OFFCURVE",
"1059 1101 CURVE SMOOTH",
"869.667 1101 OFFCURVE",
"709.5 985.667 OFFCURVE",
"623.5 795 CURVE SMOOTH",
"580.5 699.667 OFFCURVE",
"559 597.667 OFFCURVE",
"559 489 CURVE SMOOTH",
"559 246.333 OFFCURVE",
"679.667 104 OFFCURVE",
"889 104 CURVE SMOOTH",
"1026.333 104 OFFCURVE",
"1172.333 203 OFFCURVE",
"1239 343 CURVE",
"1245 343 LINE",
"1241 323 OFFCURVE",
"1239 300.667 OFFCURVE",
"1239 276 CURVE SMOOTH",
"1239 168 OFFCURVE",
"1307.333 104 OFFCURVE",
"1430 104 CURVE SMOOTH",
"1603.333 104 OFFCURVE",
"1762.833 223 OFFCURVE",
"1847.5 423 CURVE SMOOTH",
"1889.833 523 OFFCURVE",
"1911 633.667 OFFCURVE",
"1911 755 CURVE"
);
},
{
closed = 1;
nodes = (
"1264 751 LINE",
"1264 671 OFFCURVE",
"1227.333 514.5 OFFCURVE",
"1162 408.5 CURVE SMOOTH",
"1096.667 302.5 OFFCURVE",
"1010 245 OFFCURVE",
"922 245 CURVE SMOOTH",
"788.667 245 OFFCURVE",
"725 339 OFFCURVE",
"725 491 CURVE SMOOTH",
"725 652.333 OFFCURVE",
"783.167 820.167 OFFCURVE",
"882.5 903.5 CURVE SMOOTH",
"932.167 945.167 OFFCURVE",
"988.333 966 OFFCURVE",
"1051 966 CURVE SMOOTH",
"1176.333 966 OFFCURVE",
"1264 877.667 OFFCURVE",
"1264 751 CURVE"
);
}
);
width = 1997;
}
);
note = at;
unicode = 0040;
},
{
glyphname = A;
lastChange = "2020-03-13 21:34:02 +0000";
layers = (
{
layerId = "E64FF656-58E6-4C13-B3CC-343A43FBFB06";
paths = (
{
closed = 1;
nodes = (
"1039 0 LINE",
"1331 0 LINE",
"1093 1409 LINE",
"745 1409 LINE",
"-42 0 LINE",
"252 0 LINE",
"447 360 LINE",
"984 360 LINE",
"1039 0 LINE"
);
},
{
closed = 1;
nodes = (
"876 1192 LINE",
"876 1176.667 OFFCURVE",
"882 1124 OFFCURVE",
"894 1034 CURVE SMOOTH",
"961 582 LINE",
"566 582 LINE",
"778 980 LINE SMOOTH",
"829.333 1078.667 OFFCURVE",
"862 1149.333 OFFCURVE",
"876 1192 CURVE"
);
}
);
width = 1479;
}
);
note = A;
unicode = 0041;
},
{
glyphname = B;
lastChange = "2020-03-13 21:34:02 +0000";
layers = (
{
layerId = "E64FF656-58E6-4C13-B3CC-343A43FBFB06";
paths = (
{
closed = 1;
nodes = (
"310 1409 LINE",
"36 0 LINE",
"741 0 LINE SMOOTH",
"1159.667 0 OFFCURVE",
"1368 149.667 OFFCURVE",
"1368 431 CURVE SMOOTH",
"1368 589.667 OFFCURVE",
"1260.333 707.333 OFFCURVE",
"1079 738 CURVE",
"1291 782 OFFCURVE",
"1403 900.333 OFFCURVE",
"1403 1083 CURVE SMOOTH",
"1403 1297.667 OFFCURVE",
"1228.667 1409 OFFCURVE",
"894 1409 CURVE SMOOTH",
"310 1409 LINE"
);
},
{
closed = 1;
nodes = (
"494 841 LINE",
"561 1190 LINE",
"862 1190 LINE SMOOTH",
"1040.667 1190 OFFCURVE",
"1110 1144.667 OFFCURVE",
"1110 1038 CURVE SMOOTH",
"1110 898 OFFCURVE",
"1021.333 841 OFFCURVE",
"788 841 CURVE SMOOTH",
"494 841 LINE"
);
},
{
closed = 1;
nodes = (
"373 219 LINE",
"452 623 LINE",
"782 623 LINE SMOOTH",
"987.333 623 OFFCURVE",
"1072 557 OFFCURVE",
"1072 437 CURVE SMOOTH",
"1072 281 OFFCURVE",
"979.667 219 OFFCURVE",
"701 219 CURVE SMOOTH",
"373 219 LINE"
);
}
);
width = 1479;
}
);
note = B;
unicode = 0042;
},
{
glyphname = C;
lastChange = "2020-03-13 21:34:02 +0000";
layers = (
{
layerId = "E64FF656-58E6-4C13-B3CC-343A43FBFB06";
paths = (
{
closed = 1;
nodes = (
"401 573 LINE",
"401 958.333 OFFCURVE",
"595.333 1198 OFFCURVE",
"918 1198 CURVE SMOOTH",
"1075.333 1198 OFFCURVE",
"1190.333 1109.667 OFFCURVE",
"1229 967 CURVE",
"1503 1038 LINE",
"1435 1298 OFFCURVE",
"1233.667 1430 OFFCURVE",
"927 1430 CURVE SMOOTH",
"607 1430 OFFCURVE",
"345 1284.167 OFFCURVE",
"205 1019.5 CURVE SMOOTH",
"135 887.167 OFFCURVE",
"100 737 OFFCURVE",
"100 569 CURVE SMOOTH",
"100 331.667 OFFCURVE",
"196.833 148 OFFCURVE",
"381.5 52 CURVE SMOOTH",
"473.833 4 OFFCURVE",
"583.667 -20 OFFCURVE",
"711 -20 CURVE SMOOTH",
"1014.333 -20 OFFCURVE",
"1236 104 OFFCURVE",
"1376 352 CURVE",
"1149 469 LINE",
"1047.667 297 OFFCURVE",
"908.333 211 OFFCURVE",
"731 211 CURVE SMOOTH",
"519 211 OFFCURVE",
"401 342.333 OFFCURVE",
"401 573 CURVE"
);
}
);
width = 1479;
}
);
note = C;
unicode = 0043;
},
{
glyphname = D;
lastChange = "2020-03-13 21:34:02 +0000";
layers = (
{
layerId = "E64FF656-58E6-4C13-B3CC-343A43FBFB06";
paths = (
{
closed = 1;
nodes = (
"734 1409 LINE",
"310 1409 LINE",
"36 0 LINE",
"614 0 LINE SMOOTH",
"924.667 0 OFFCURVE",
"1190 148.667 OFFCURVE",
"1322 390 CURVE SMOOTH",
"1388 510.667 OFFCURVE",
"1421 649.667 OFFCURVE",
"1421 807 CURVE SMOOTH",
"1421 1196.333 OFFCURVE",
"1178 1409 OFFCURVE",
"734 1409 CURVE"
);
},
{
closed = 1;
nodes = (
"375 228 LINE",
"560 1181 LINE",
"736 1181 LINE SMOOTH",
"1000 1181 OFFCURVE",
"1145 1046 OFFCURVE",
"1145 794 CURVE SMOOTH",
"1145 566 OFFCURVE",
"1053.167 387.833 OFFCURVE",
"888.5 296.5 CURVE SMOOTH",
"806.167 250.833 OFFCURVE",
"711.667 228 OFFCURVE",
"605 228 CURVE SMOOTH",
"375 228 LINE"
);
}
);
width = 1479;
}
);
note = D;
unicode = 0044;
},
{
glyphname = E;
lastChange = "2020-03-13 21:34:02 +0000";
layers = (
{
layerId = "E64FF656-58E6-4C13-B3CC-343A43FBFB06";
paths = (
{
closed = 1;
nodes = (
"36 0 LINE",
"1184 0 LINE",
"1229 228 LINE",
"375 228 LINE",
"447 599 LINE",
"1199 599 LINE",
"1243 827 LINE",
"491 827 LINE",
"560 1181 LINE",
"1373 1181 LINE",
"1417 1409 LINE",
"309 1409 LINE",
"36 0 LINE"
);
}
);
width = 1366;
}
);
note = E;
unicode = 0045;
},
{
glyphname = F;
lastChange = "2020-03-13 21:34:02 +0000";
layers = (
{
layerId = "E64FF656-58E6-4C13-B3CC-343A43FBFB06";
paths = (
{
closed = 1;
nodes = (
"560 1181 LINE",
"1251 1181 LINE",
"1295 1409 LINE",
"309 1409 LINE",
"36 0 LINE",
"330 0 LINE",
"431 517 LINE",
"1099 517 LINE",
"1143 745 LINE",
"475 745 LINE",
"560 1181 LINE"
);
}
);
width = 1251;
}
);
note = F;
unicode = 0046;
},
{
glyphname = G;
lastChange = "2020-03-13 21:34:02 +0000";
layers = (
{
layerId = "E64FF656-58E6-4C13-B3CC-343A43FBFB06";
paths = (
{
closed = 1;
nodes = (
"740 -19 LINE",
"996 -19 OFFCURVE",
"1192 32.333 OFFCURVE",
"1400 175 CURVE",
"1505 743 LINE",
"891 743 LINE",
"852 535 LINE",
"1194 535 LINE",
"1148 307 LINE",
"1052 248.333 OFFCURVE",
"908 211 OFFCURVE",
"764 211 CURVE SMOOTH",
"532 211 OFFCURVE",
"399 354.667 OFFCURVE",
"399 592 CURVE SMOOTH",
"399 832 OFFCURVE",
"487 1023 OFFCURVE",
"647 1123 CURVE SMOOTH",
"727 1173 OFFCURVE",
"820 1198 OFFCURVE",
"926 1198 CURVE SMOOTH",
"1095.333 1198 OFFCURVE",
"1209.333 1111.667 OFFCURVE",
"1248 961 CURVE",
"1530 1039 LINE",
"1459.333 1285.667 OFFCURVE",
"1246 1430 OFFCURVE",
"942 1430 CURVE SMOOTH",
"608.667 1430 OFFCURVE",
"343.833 1285.667 OFFCURVE",
"204.5 1027 CURVE SMOOTH",
"134.833 897.667 OFFCURVE",
"100 749.667 OFFCURVE",
"100 583 CURVE SMOOTH",
"100 203 OFFCURVE",
"340 -19 OFFCURVE",
"740 -19 CURVE"
);
}
);
width = 1593;
}
);
note = G;
unicode = 0047;
},
{
glyphname = H;
lastChange = "2020-03-13 21:34:02 +0000";
layers = (
{
layerId = "E64FF656-58E6-4C13-B3CC-343A43FBFB06";
paths = (
{
closed = 1;
nodes = (
"956 0 LINE",
"1240 0 LINE",
"1514 1409 LINE",
"1230 1409 LINE",
"1121 848 LINE",
"495 848 LINE",
"604 1409 LINE",
"309 1409 LINE",
"36 0 LINE",
"330 0 LINE",
"448 604 LINE",
"1074 604 LINE",
"956 0 LINE"
);
}
);
width = 1479;
}
);
note = H;
unicode = 0048;
},
{
glyphname = I;
lastChange = "2020-03-13 21:34:02 +0000";
layers = (
{
layerId = "E64FF656-58E6-4C13-B3CC-343A43FBFB06";
paths = (
{
closed = 1;
nodes = (
"36 0 LINE",
"330 0 LINE",
"604 1409 LINE",
"309 1409 LINE",
"36 0 LINE"
);
}
);
width = 569;
}
);
note = I;
unicode = 0049;
},
{
glyphname = J;
lastChange = "2020-03-13 21:34:02 +0000";
layers = (
{
layerId = "E64FF656-58E6-4C13-B3CC-343A43FBFB06";
paths = (
{
closed = 1;
nodes = (
"480 -20 LINE",
"768 -20 OFFCURVE",
"921 115 OFFCURVE",
"981 423 CURVE SMOOTH",
"1174 1409 LINE",
"599 1409 LINE",
"555 1178 LINE",
"836 1178 LINE",
"693 440 LINE SMOOTH",
"669 316 OFFCURVE",
"639.333 267 OFFCURVE",
"590 235 CURVE SMOOTH",
"565.333 219 OFFCURVE",
"535 211 OFFCURVE",
"499 211 CURVE SMOOTH",
"391.667 211 OFFCURVE",
"322.667 286.333 OFFCURVE",
"292 437 CURVE",
"25 379 LINE",
"75.667 103 OFFCURVE",
"226.667 -20 OFFCURVE",
"480 -20 CURVE"
);
}
);
width = 1139;
}
);
note = J;
unicode = 004A;
},
{
glyphname = K;
lastChange = "2020-03-13 21:34:02 +0000";
layers = (
{
layerId = "E64FF656-58E6-4C13-B3CC-343A43FBFB06";
paths = (
{
closed = 1;
nodes = (
"995 0 LINE",
"1321 0 LINE",
"856 793 LINE",
"1603 1409 LINE",
"1234 1409 LINE",
"474 770 LINE",
"604 1409 LINE",
"309 1409 LINE",
"36 0 LINE",
"328 0 LINE",
"429 517 LINE",
"640 640 LINE",
"995 0 LINE"
);
}
);
width = 1479;
}
);
note = K;
unicode = 004B;
},
{
glyphname = L;
lastChange = "2020-03-13 21:34:02 +0000";
layers = (
{
layerId = "E64FF656-58E6-4C13-B3CC-343A43FBFB06";
paths = (
{
closed = 1;
nodes = (
"36 0 LINE",
"1086 0 LINE",
"1131 228 LINE",
"375 228 LINE",
"604 1409 LINE",
"309 1409 LINE",
"36 0 LINE"
);
}
);
width = 1251;
}
);
note = L;
unicode = 004C;
},
{
glyphname = M;
lastChange = "2020-03-13 21:34:02 +0000";
layers = (
{
layerId = "E64FF656-58E6-4C13-B3CC-343A43FBFB06";
paths = (
{
closed = 1;
nodes = (
"1206 0 LINE",
"1468 0 LINE",
"1742 1409 LINE",
"1349 1409 LINE",
"1060.333 839.667 OFFCURVE",
"905.667 533.333 OFFCURVE",
"885 490 CURVE SMOOTH",
"864.333 446.667 OFFCURVE",
"842 398.333 OFFCURVE",
"818 345 CURVE",
"793 621 LINE",
"705 1409 LINE",
"310 1409 LINE",
"36 0 LINE",
"298 0 LINE",
"470 887 LINE SMOOTH",
"480 937 OFFCURVE",
"494.333 1043.333 OFFCURVE",
"513 1206 CURVE",
"519 1142 OFFCURVE",
"532.333 1013 OFFCURVE",
"553 819 CURVE SMOOTH",
"647 0 LINE",
"857 0 LINE",
"1269 816 LINE SMOOTH",
"1292.333 859.333 OFFCURVE",
"1330.333 939 OFFCURVE",
"1383 1055 CURVE SMOOTH",
"1452 1206 LINE",
"1420 1078 OFFCURVE",
"1395.333 970.667 OFFCURVE",
"1378 884 CURVE SMOOTH",
"1206 0 LINE"
);
}
);
width = 1706;
}
);
note = M;
unicode = 004D;
},
{
glyphname = N;
lastChange = "2020-03-13 21:34:02 +0000";
layers = (
{
layerId = "E64FF656-58E6-4C13-B3CC-343A43FBFB06";
paths = (
{
closed = 1;
nodes = (
"884 0 LINE",
"1240 0 LINE",
"1514 1409 LINE",
"1252 1409 LINE",
"1078 524 LINE SMOOTH",
"1066 463.333 OFFCURVE",
"1056.333 405.333 OFFCURVE",
"1049 350 CURVE SMOOTH",
"1037 268 LINE",
"660 1409 LINE",
"310 1409 LINE",
"36 0 LINE",
"298 0 LINE",
"472 892 LINE SMOOTH",
"482 943.333 OFFCURVE",
"494.667 1023 OFFCURVE",
"510 1131 CURVE",
"884 0 LINE"
);
}
);
width = 1479;
}
);
note = N;
unicode = 004E;
},
{
glyphname = O;
lastChange = "2020-03-13 21:34:02 +0000";
layers = (
{
layerId = "E64FF656-58E6-4C13-B3CC-343A43FBFB06";
paths = (
{
closed = 1;
nodes = (
"928 1430 LINE",
"604 1430 OFFCURVE",
"346.167 1282.833 OFFCURVE",
"205.5 1011.5 CURVE SMOOTH",
"135.167 875.833 OFFCURVE",
"100 729.667 OFFCURVE",
"100 573 CURVE SMOOTH",
"100 333 OFFCURVE",
"201.5 148 OFFCURVE",
"391.5 52 CURVE SMOOTH",
"486.5 4 OFFCURVE",
"598.333 -20 OFFCURVE",
"727 -20 CURVE SMOOTH",
"1051 -20 OFFCURVE",
"1312.833 129.167 OFFCURVE",
"1453.5 400.5 CURVE SMOOTH",
"1523.833 536.167 OFFCURVE",
"1559 686.333 OFFCURVE",
"1559 851 CURVE SMOOTH",
"1559 1208.333 OFFCURVE",
"1318.667 1430 OFFCURVE",
"928 1430 CURVE"
);
},
{
closed = 1;
nodes = (
"914 1197 LINE",
"1135.333 1197 OFFCURVE",
"1255 1061.667 OFFCURVE",
"1255 827 CURVE SMOOTH",
"1255 601.667 OFFCURVE",
"1168 387 OFFCURVE",
"1016 287 CURVE SMOOTH",
"940 237 OFFCURVE",
"848.333 212 OFFCURVE",
"741 212 CURVE SMOOTH",
"526.333 212 OFFCURVE",
"400 335.667 OFFCURVE",
"400 581 CURVE SMOOTH",
"400 799.667 OFFCURVE",
"486 1022 OFFCURVE",
"638 1122 CURVE SMOOTH",
"714 1172 OFFCURVE",
"806 1197 OFFCURVE",
"914 1197 CURVE"
);
}
);
width = 1593;
}
);
note = O;
unicode = 004F;
},
{
glyphname = P;
lastChange = "2020-03-13 21:34:02 +0000";
layers = (
{
layerId = "E64FF656-58E6-4C13-B3CC-343A43FBFB06";
paths = (
{
closed = 1;
nodes = (
"850 1409 LINE",
"309 1409 LINE",
"36 0 LINE",
"330 0 LINE",
"428 496 LINE",
"805 496 LINE SMOOTH",
"1147.667 496 OFFCURVE",
"1369 687 OFFCURVE",
"1369 987 CURVE SMOOTH",
"1369 1251 OFFCURVE",
"1178 1409 OFFCURVE",
"850 1409 CURVE"
);
},
{
closed = 1;
nodes = (
"471 723 LINE",
"560 1180 LINE",
"822 1180 LINE SMOOTH",
"982 1180 OFFCURVE",
"1070 1107 OFFCURVE",
"1070 971 CURVE SMOOTH",
"1070 795 OFFCURVE",
"966.667 723 OFFCURVE",
"760 723 CURVE SMOOTH",
"471 723 LINE"
);
}
);
width = 1366;
}
);
note = P;
unicode = 0050;
},
{
glyphname = Q;
lastChange = "2020-03-13 21:34:02 +0000";
layers = (
{
layerId = "E64FF656-58E6-4C13-B3CC-343A43FBFB06";
paths = (
{
closed = 1;
nodes = (
"928 1430 LINE",
"604 1430 OFFCURVE",
"346.167 1282.833 OFFCURVE",
"205.5 1011.5 CURVE SMOOTH",
"135.167 875.833 OFFCURVE",
"100 729.667 OFFCURVE",
"100 573 CURVE SMOOTH",
"100 419.667 OFFCURVE",
"141.5 287.167 OFFCURVE",
"223.5 186.5 CURVE SMOOTH",
"305.5 85.833 OFFCURVE",
"426.667 16.333 OFFCURVE",
"584 -9 CURVE",
"614.667 -279.667 OFFCURVE",
"754.333 -400 OFFCURVE",
"1017 -400 CURVE SMOOTH",
"1081.667 -400 OFFCURVE",
"1138 -391.667 OFFCURVE",
"1186 -375 CURVE",
"1231 -180 LINE",
"1184.333 -189.333 OFFCURVE",
"1134.333 -194 OFFCURVE",
"1081 -194 CURVE SMOOTH",
"962.333 -194 OFFCURVE",
"907.333 -138.667 OFFCURVE",
"882 -8 CURVE",
"1055.333 20 OFFCURVE",
"1201 93.833 OFFCURVE",
"1313 206.5 CURVE SMOOTH",
"1425 319.167 OFFCURVE",
"1503 469 OFFCURVE",
"1539 649 CURVE SMOOTH",
"1552.333 713 OFFCURVE",
"1559 780.333 OFFCURVE",
"1559 851 CURVE SMOOTH",
"1559 1208.333 OFFCURVE",
"1318.667 1430 OFFCURVE",
"928 1430 CURVE"
);
},
{
closed = 1;
nodes = (
"914 1197 LINE",
"1135.333 1197 OFFCURVE",
"1255 1061.667 OFFCURVE",
"1255 827 CURVE SMOOTH",
"1255 601.667 OFFCURVE",
"1168 387 OFFCURVE",
"1016 287 CURVE SMOOTH",
"940 237 OFFCURVE",
"848.333 212 OFFCURVE",
"741 212 CURVE SMOOTH",
"526.333 212 OFFCURVE",
"400 335.667 OFFCURVE",
"400 581 CURVE SMOOTH",
"400 799.667 OFFCURVE",
"486 1022 OFFCURVE",
"638 1122 CURVE SMOOTH",
"714 1172 OFFCURVE",
"806 1197 OFFCURVE",
"914 1197 CURVE"
);
}
);
width = 1593;
}
);
note = Q;
unicode = 0051;
},
{
glyphname = R;
lastChange = "2020-03-13 21:34:02 +0000";
layers = (
{
layerId = "E64FF656-58E6-4C13-B3CC-343A43FBFB06";
paths = (
{
closed = 1;
nodes = (
"1010 0 LINE",
"1336 0 LINE",
"1062 583 LINE",
"1310 620.333 OFFCURVE",
"1465 786 OFFCURVE",
"1465 1006 CURVE SMOOTH",
"1465 1170 OFFCURVE",
"1384.833 1294.667 OFFCURVE",
"1233.5 1360 CURVE SMOOTH",
"1157.833 1392.667 OFFCURVE",
"1067 1409 OFFCURVE",
"961 1409 CURVE SMOOTH",
"310 1409 LINE",
"36 0 LINE",
"331 0 LINE",
"434 534 LINE",
"780 534 LINE",
"1010 0 LINE"
);
},
{
closed = 1;
nodes = (
"872 764 LINE",
"479 764 LINE",
"560 1180 LINE",
"924 1180 LINE SMOOTH",
"1077.333 1180 OFFCURVE",
"1166 1113 OFFCURVE",
"1166 989 CURVE SMOOTH",
"1166 845 OFFCURVE",
"1065.333 764 OFFCURVE",
"872 764 CURVE"
);
}
);
width = 1479;
}
);
note = R;
unicode = 0052;
},
{
glyphname = S;
lastChange = "2020-03-13 21:34:02 +0000";
layers = (
{
layerId = "E64FF656-58E6-4C13-B3CC-343A43FBFB06";
paths = (
{
closed = 1;
nodes = (
"600 -20 LINE",
"1029.333 -20 OFFCURVE",
"1254 135 OFFCURVE",
"1254 423 CURVE SMOOTH",
"1254 531 OFFCURVE",
"1221.167 612 OFFCURVE",
"1160.5 676 CURVE SMOOTH",
"1099.833 740 OFFCURVE",
"1016 786.333 OFFCURVE",
"804 845 CURVE SMOOTH",
"705.333 871.667 OFFCURVE",
"639.333 893.167 OFFCURVE",
"606 909.5 CURVE SMOOTH",
"539.333 942.167 OFFCURVE",
"504 984.333 OFFCURVE",
"504 1047 CURVE SMOOTH",
"504 1155 OFFCURVE",
"604.667 1221 OFFCURVE",
"770 1221 CURVE SMOOTH",
"927.333 1221 OFFCURVE",
"1027.667 1144 OFFCURVE",
"1057 1024 CURVE",
"1345 1091 LINE",
"1301 1312.333 OFFCURVE",
"1103.333 1430 OFFCURVE",
"786 1430 CURVE SMOOTH",
"440.667 1430 OFFCURVE",
"213 1273 OFFCURVE",
"213 1037 CURVE SMOOTH",
"213 889 OFFCURVE",
"276.5 790.667 OFFCURVE",
"394.5 720 CURVE SMOOTH",
"453.5 684.667 OFFCURVE",
"544.333 650.667 OFFCURVE",
"667 618 CURVE SMOOTH",
"785.667 588 OFFCURVE",
"865 557.5 OFFCURVE",
"905 526.5 CURVE SMOOTH",
"945 495.5 OFFCURVE",
"965 453.333 OFFCURVE",
"965 400 CURVE SMOOTH",
"965 267.333 OFFCURVE",
"850 201 OFFCURVE",
"620 201 CURVE SMOOTH",
"433.333 201 OFFCURVE",
"342 266 OFFCURVE",
"314 414 CURVE",
"25 365 LINE",
"62.333 103.667 OFFCURVE",
"244 -20 OFFCURVE",
"600 -20 CURVE"
);
}
);
width = 1366;
}
);
note = S;
unicode = 0053;
},
{
glyphname = T;
lastChange = "2020-03-13 21:34:02 +0000";
layers = (
{
layerId = "E64FF656-58E6-4C13-B3CC-343A43FBFB06";
paths = (
{
closed = 1;
nodes = (
"895 1181 LINE",
"1351 1181 LINE",
"1395 1409 LINE",
"189 1409 LINE",
"145 1181 LINE",
"600 1181 LINE",
"370 0 LINE",
"665 0 LINE",
"895 1181 LINE"
);
}
);
width = 1251;
}
);
note = T;
unicode = 0054;
},
{
glyphname = U;
lastChange = "2020-03-13 21:34:02 +0000";
layers = (
{
layerId = "E64FF656-58E6-4C13-B3CC-343A43FBFB06";
paths = (
{
closed = 1;
nodes = (
"688 211 LINE",
"517.333 211 OFFCURVE",
"414 289.667 OFFCURVE",
"414 427 CURVE SMOOTH",
"414 483.667 OFFCURVE",
"420 541 OFFCURVE",
"432 599 CURVE SMOOTH",
"585 1409 LINE",
"290 1409 LINE",
"142 635 LINE SMOOTH",
"131.333 585.667 OFFCURVE",
"119 489.667 OFFCURVE",
"119 431 CURVE SMOOTH",
"119 143 OFFCURVE",
"320 -20 OFFCURVE",
"672 -20 CURVE SMOOTH",
"1062.667 -20 OFFCURVE",
"1276.667 155.333 OFFCURVE",
"1350 530 CURVE SMOOTH",
"1521 1409 LINE",
"1226 1409 LINE",
"1058 541 LINE SMOOTH",
"1012.667 303.667 OFFCURVE",
"908 211 OFFCURVE",
"688 211 CURVE"
);
}
);
width = 1479;
}
);
note = U;
unicode = 0055;
},
{
glyphname = V;
lastChange = "2020-03-13 21:34:02 +0000";
layers = (
{
layerId = "E64FF656-58E6-4C13-B3CC-343A43FBFB06";
paths = (
{
closed = 1;
nodes = (
"737 0 LINE",
"1509 1409 LINE",
"1201 1409 LINE",
"877.667 780.333 OFFCURVE",
"706.5 445.667 OFFCURVE",
"687.5 405 CURVE SMOOTH",
"668.5 364.333 OFFCURVE",
"643.333 308.667 OFFCURVE",
"612 238 CURVE",
"608 317.333 OFFCURVE",
"600.667 406 OFFCURVE",
"590 504 CURVE SMOOTH",
"476 1409 LINE",
"171 1409 LINE",
"398 0 LINE",
"737 0 LINE"
);
}
);
width = 1366;
}
);
note = V;
unicode = 0056;
},
{
glyphname = W;
lastChange = "2020-03-13 21:34:02 +0000";
layers = (
{
layerId = "E64FF656-58E6-4C13-B3CC-343A43FBFB06";
paths = (
{
closed = 1;
nodes = (
"1441 0 LINE",
"2079 1409 LINE",
"1788 1409 LINE",
"1562 859 OFFCURVE",
"1431.833 540.167 OFFCURVE",
"1397.5 452.5 CURVE SMOOTH",
"1363.167 364.833 OFFCURVE",
"1337 296.667 OFFCURVE",
"1319 248 CURVE",
"1277 1409 LINE",
"961 1409 LINE",
"606 577 LINE",
"530 392 LINE",
"473 248 LINE",
"473 366.667 OFFCURVE",
"470.667 482 OFFCURVE",
"466 594 CURVE SMOOTH",
"430 1409 LINE",
"150 1409 LINE",
"239 0 LINE",
"594 0 LINE",
"822 532 OFFCURVE",
"946.5 824.333 OFFCURVE",
"967.5 877 CURVE SMOOTH",
"988.5 929.667 OFFCURVE",
"1019 1009.333 OFFCURVE",
"1059 1116 CURVE",
"1060 1032 LINE",
"1064 812 LINE",
"1091 0 LINE",
"1441 0 LINE"
);
}
);
width = 1933;
}
);
note = W;
unicode = 0057;
},
{
glyphname = X;
lastChange = "2020-03-13 21:34:02 +0000";
layers = (
{
layerId = "E64FF656-58E6-4C13-B3CC-343A43FBFB06";
paths = (
{
closed = 1;
nodes = (
"220 1409 LINE",
"558 736 LINE",
"-94 0 LINE",
"220 0 LINE",
"675 532 LINE",
"928 0 LINE",
"1235 0 LINE",
"868 732 LINE",
"1468 1409 LINE",
"1155 1409 LINE",
"753 938 LINE",
"529 1409 LINE",
"220 1409 LINE"
);
}
);
width = 1366;
}
);
note = X;
unicode = 0058;
},
{
glyphname = Y;
lastChange = "2020-03-13 21:34:02 +0000";
layers = (
{
layerId = "E64FF656-58E6-4C13-B3CC-343A43FBFB06";
paths = (
{
closed = 1;
nodes = (
"724 0 LINE",
"836 578 LINE",
"1520 1409 LINE",
"1197 1409 LINE",
"723 804 LINE",
"464 1409 LINE",
"172 1409 LINE",
"542 578 LINE",
"430 0 LINE",
"724 0 LINE"
);
}
);
width = 1366;
}
);
note = Y;
unicode = 0059;
},
{
glyphname = Z;
lastChange = "2020-03-13 21:34:02 +0000";
layers = (
{
layerId = "E64FF656-58E6-4C13-B3CC-343A43FBFB06";
paths = (
{
closed = 1;
nodes = (
"1082 0 LINE",
"1127 231 LINE",
"345 231 LINE",
"1275 1204 LINE",
"1315 1409 LINE",
"301 1409 LINE",
"256 1178 LINE",
"919 1178 LINE",
"-8 209 LINE",
"-48 0 LINE",
"1082 0 LINE"
);
}
);
width = 1251;
}
);
note = Z;
unicode = 005A;
},
{
glyphname = bracketleft;
lastChange = "2020-03-13 21:34:02 +0000";
layers = (
{
layerId = "E64FF656-58E6-4C13-B3CC-343A43FBFB06";
paths = (
{
closed = 1;
nodes = (
"-54 -425 LINE",
"487 -425 LINE",
"524 -234 LINE",
"248 -234 LINE",
"545 1294 LINE",
"821 1294 LINE",
"858 1484 LINE",
"316 1484 LINE",
"-54 -425 LINE"
);
}
);
width = 682;
}
);
note = bracketleft;
unicode = 005B;
},
{
glyphname = backslash;
lastChange = "2020-03-13 21:34:02 +0000";
layers = (
{
layerId = "E64FF656-58E6-4C13-B3CC-343A43FBFB06";
paths = (
{
closed = 1;
nodes = (
"289 -41 LINE",
"532 -41 LINE",
"349 1485 LINE",
"111 1485 LINE",
"289 -41 LINE"
);
}
);
width = 569;
}
);
note = backslash;
unicode = 005C;
},
{
glyphname = bracketright;
lastChange = "2020-03-13 21:34:02 +0000";
layers = (
{
layerId = "E64FF656-58E6-4C13-B3CC-343A43FBFB06";
paths = (
{
closed = 1;
nodes = (
"-174 -425 LINE",
"367 -425 LINE",
"738 1484 LINE",
"196 1484 LINE",
"159 1294 LINE",
"437 1294 LINE",
"140 -234 LINE",
"-137 -234 LINE",
"-174 -425 LINE"
);
}
);
width = 682;
}
);
note = bracketright;
unicode = 005D;
},
{
glyphname = asciicircum;
lastChange = "2020-03-13 21:34:02 +0000";
layers = (
{
layerId = "E64FF656-58E6-4C13-B3CC-343A43FBFB06";
paths = (
{
closed = 1;
nodes = (
"962 514 LINE",
"1191 514 LINE",
"798 1409 LINE",
"476 1409 LINE",
"85 514 LINE",
"312 514 LINE",
"636 1266 LINE",
"962 514 LINE"
);
}
);
width = 1196;
}
);
note = asciicircum;
unicode = 005E;
},
{
glyphname = underscore;
lastChange = "2020-03-13 21:34:02 +0000";
layers = (
{
layerId = "E64FF656-58E6-4C13-B3CC-343A43FBFB06";
paths = (
{
closed = 1;
nodes = (
"-120 -250 LINE",
"1057 -250 LINE",
"1057 -172 LINE",
"-120 -172 LINE",
"-120 -250 LINE"
);
}
);
width = 1139;
}
);
note = underscore;
unicode = 005F;
},
{
glyphname = grave;
lastChange = "2020-03-13 21:34:02 +0000";
layers = (
{
layerId = "E64FF656-58E6-4C13-B3CC-343A43FBFB06";
paths = (
{
closed = 1;
nodes = (
"596 1183 LINE",
"744 1183 LINE",
"750 1214 LINE",
"555 1502 LINE",
"297 1502 LINE",
"289 1459 LINE",
"596 1183 LINE"
);
}
);
width = 682;
}
);
note = grave;
unicode = 0060;
},
{
glyphname = a;
lastChange = "2020-03-13 21:34:02 +0000";
layers = (
{
layerId = "E64FF656-58E6-4C13-B3CC-343A43FBFB06";
paths = (
{
closed = 1;
nodes = (
"892 -10 LINE",
"952 -10 OFFCURVE",
"1009 -9.333 OFFCURVE",
"1065 12 CURVE",
"1079 167 LINE",
"1057.667 162.333 OFFCURVE",
"1037 160 OFFCURVE",
"1017 160 CURVE SMOOTH",
"986.133 160 OFFCURVE",
"938 169.593 OFFCURVE",
"938 225 CURVE SMOOTH",
"938 243 OFFCURVE",
"940.667 267 OFFCURVE",
"946 297 CURVE SMOOTH",
"1017 650 LINE SMOOTH",
"1033 730 OFFCURVE",
"1041 782.333 OFFCURVE",
"1041 807 CURVE SMOOTH",
"1041 1005.667 OFFCURVE",
"917 1102 OFFCURVE",
"641 1102 CURVE SMOOTH",
"377 1102 OFFCURVE",
"215.333 1000 OFFCURVE",
"170 808 CURVE",
"433 777 LINE",
"455.667 869 OFFCURVE",
"510.667 919 OFFCURVE",
"636 919 CURVE SMOOTH",
"720.667 919 OFFCURVE",
"763 876.333 OFFCURVE",
"763 791 CURVE SMOOTH",
"763 767 OFFCURVE",
"756 723.333 OFFCURVE",
"742 660 CURVE",
"551 657 LINE SMOOTH",
"169.667 650.333 OFFCURVE",
"10 524.667 OFFCURVE",
"10 278 CURVE SMOOTH",
"10 103.333 OFFCURVE",
"130.333 -20 OFFCURVE",
"317 -20 CURVE SMOOTH",
"474.333 -20 OFFCURVE",
"571 33.667 OFFCURVE",
"683 207 CURVE",
"689 207 LINE",
"685.667 189 OFFCURVE",
"684 167.667 OFFCURVE",
"684 143 CURVE SMOOTH",
"684 51 OFFCURVE",
"758.667 -10 OFFCURVE",
"892 -10 CURVE"
);
},
{
closed = 1;
nodes = (
"711 503 LINE",
"689 411 LINE SMOOTH",
"653 269.667 OFFCURVE",
"553.667 176 OFFCURVE",
"443 176 CURVE SMOOTH",
"353.667 176 OFFCURVE",
"297 231.667 OFFCURVE",
"297 325 CURVE SMOOTH",
"297 437 OFFCURVE",
"393 500.333 OFFCURVE",
"549 503 CURVE SMOOTH",
"711 503 LINE"
);
}
);
width = 1139;
}
);
note = a;
unicode = 0061;
},
{
glyphname = b;
lastChange = "2020-03-13 21:34:02 +0000";
layers = (
{
layerId = "E64FF656-58E6-4C13-B3CC-343A43FBFB06";
paths = (
{
closed = 1;
nodes = (
"855 1102 LINE",
"693.667 1102 OFFCURVE",
"573.667 1025 OFFCURVE",
"499 913 CURVE",
"495 913 LINE",
"507.667 965.667 OFFCURVE",
"518.333 1013.667 OFFCURVE",
"527 1057 CURVE SMOOTH",
"611 1484 LINE",
"330 1484 LINE",
"84 223 LINE SMOOTH",
"65.333 124.333 OFFCURVE",
"41.667 20 OFFCURVE",
"35 0 CURVE",
"306 0 LINE",
"327 67 LINE SMOOTH",
"334.333 91.667 OFFCURVE",
"343.333 128.667 OFFCURVE",
"354 178 CURVE",
"357 178 LINE",
"399.667 52.667 OFFCURVE",
"502.333 -20 OFFCURVE",
"669 -20 CURVE SMOOTH",
"901 -20 OFFCURVE",
"1047.333 99.167 OFFCURVE",
"1130 354.5 CURVE SMOOTH",
"1171.333 482.167 OFFCURVE",
"1192 608.667 OFFCURVE",
"1192 734 CURVE SMOOTH",
"1192 748 LINE SMOOTH",
"1192 968 OFFCURVE",
"1067 1102 OFFCURVE",
"855 1102 CURVE"
);
},
{
closed = 1;
nodes = (
"735 907 LINE",
"859 907 OFFCURVE",
"899 834 OFFCURVE",
"899 694 CURVE SMOOTH",
"899 564.667 OFFCURVE",
"842 318.833 OFFCURVE",
"766 235.5 CURVE SMOOTH",
"728 193.833 OFFCURVE",
"675.333 173 OFFCURVE",
"608 173 CURVE SMOOTH",
"481.333 173 OFFCURVE",
"407 258.333 OFFCURVE",
"407 401 CURVE SMOOTH",
"407 441 OFFCURVE",
"412.667 492 OFFCURVE",
"424 554 CURVE SMOOTH",
"469.333 790 OFFCURVE",
"567 907 OFFCURVE",
"735 907 CURVE"
);
}
);
width = 1251;
}
);
note = b;
unicode = 0062;
},
{
glyphname = c;
lastChange = "2020-03-13 21:34:02 +0000";
layers = (
{
layerId = "E64FF656-58E6-4C13-B3CC-343A43FBFB06";
paths = (
{
closed = 1;
nodes = (
"536 173 LINE",
"417.333 173 OFFCURVE",
"358 251 OFFCURVE",
"358 407 CURVE SMOOTH",
"358 442.333 OFFCURVE",
"365.667 498.333 OFFCURVE",
"381 575 CURVE",
"446.333 824.333 OFFCURVE",
"515.333 909 OFFCURVE",
"658 909 CURVE SMOOTH",
"762 909 OFFCURVE",
"817.667 845.333 OFFCURVE",
"825 718 CURVE",
"1109 741 LINE",
"1090.333 967.667 OFFCURVE",
"932 1102 OFFCURVE",
"680 1102 CURVE SMOOTH",
"418.667 1102 OFFCURVE",
"247.333 999 OFFCURVE",
"142 771 CURVE SMOOTH",
"89.333 657 OFFCURVE",
"63 535 OFFCURVE",
"63 405 CURVE SMOOTH",
"63 138.333 OFFCURVE",
"226.667 -20 OFFCURVE",
"520 -20 CURVE SMOOTH",
"788.667 -20 OFFCURVE",
"958.667 97 OFFCURVE",
"1030 331 CURVE",
"759 381 LINE",
"716.333 243.667 OFFCURVE",
"646.667 173 OFFCURVE",
"536 173 CURVE"
);
}
);
width = 1139;
}
);
note = c;
unicode = 0063;
},
{
glyphname = d;
lastChange = "2020-03-13 21:34:02 +0000";
layers = (
{
layerId = "E64FF656-58E6-4C13-B3CC-343A43FBFB06";
paths = (
{
closed = 1;
nodes = (
"749 160 LINE",
"753 160 LINE",
"743 95.333 OFFCURVE",
"738 42 OFFCURVE",
"738 0 CURVE",
"1019 0 LINE",
"1025 79.333 OFFCURVE",
"1034.667 156.333 OFFCURVE",
"1048 231 CURVE SMOOTH",
"1286 1484 LINE",
"1009 1484 LINE",
"925 1066 LINE SMOOTH",
"909 983.333 OFFCURVE",
"901.667 930.667 OFFCURVE",
"899 904 CURVE",
"894 904 LINE",
"855.333 1036 OFFCURVE",
"750.667 1102 OFFCURVE",
"580 1102 CURVE SMOOTH",
"362.667 1102 OFFCURVE",
"207.333 972 OFFCURVE",
"122 728 CURVE SMOOTH",
"79.333 606 OFFCURVE",
"58 481.333 OFFCURVE",
"58 354 CURVE SMOOTH",
"58 126 OFFCURVE",
"186.667 -21 OFFCURVE",
"392 -21 CURVE SMOOTH",
"553.333 -21 OFFCURVE",
"654.333 36 OFFCURVE",
"749 160 CURVE"
);
},
{
closed = 1;
nodes = (
"515 172 LINE",
"408.333 172 OFFCURVE",
"355 245.667 OFFCURVE",
"355 393 CURVE SMOOTH",
"355 543.667 OFFCURVE",
"401.5 749 OFFCURVE",
"487.5 841 CURVE SMOOTH",
"530.5 887 OFFCURVE",
"586 910 OFFCURVE",
"654 910 CURVE SMOOTH",
"779.333 910 OFFCURVE",
"842 841 OFFCURVE",
"842 681 CURVE SMOOTH",
"842 573 OFFCURVE",
"807.667 407.833 OFFCURVE",
"753 312.5 CURVE SMOOTH",
"698.333 217.167 OFFCURVE",
"623 172 OFFCURVE",
"515 172 CURVE"
);
}
);
width = 1251;
}
);
note = d;
unicode = 0064;
},
{
glyphname = e;
lastChange = "2020-03-13 21:34:02 +0000";
layers = (
{
layerId = "E64FF656-58E6-4C13-B3CC-343A43FBFB06";
paths = (
{
closed = 1;
nodes = (
"358 476 LINE",
"1058 476 LINE",
"1074 553.333 OFFCURVE",
"1082 625 OFFCURVE",
"1082 691 CURVE SMOOTH",
"1082 952.333 OFFCURVE",
"924.667 1102 OFFCURVE",
"646 1102 CURVE SMOOTH",
"414 1102 OFFCURVE",
"231 987.833 OFFCURVE",
"135 780.5 CURVE SMOOTH",
"87 676.833 OFFCURVE",
"63 556 OFFCURVE",
"63 418 CURVE SMOOTH",
"63 142 OFFCURVE",
"232 -20 OFFCURVE",
"516 -20 CURVE SMOOTH",
"756 -20 OFFCURVE",
"893 51 OFFCURVE",
"993 263 CURVE",
"748 337 LINE",
"704 224.333 OFFCURVE",
"633 168 OFFCURVE",
"535 168 CURVE SMOOTH",
"413.667 168 OFFCURVE",
"351 245.667 OFFCURVE",
"351 387 CURVE SMOOTH",
"351 421 OFFCURVE",
"353.333 450.667 OFFCURVE",
"358 476 CURVE"
);
},
{
closed = 1;
nodes = (
"822 663 LINE",
"391 663 LINE",
"428.333 833.667 OFFCURVE",
"518 924 OFFCURVE",
"646 924 CURVE SMOOTH",
"752.667 924 OFFCURVE",
"825 861.667 OFFCURVE",
"825 719 CURVE",
"822 663 LINE"
);
}
);
width = 1139;
}
);
note = e;
unicode = 0065;
},
{
glyphname = f;
lastChange = "2020-03-13 21:34:02 +0000";
layers = (
{
layerId = "E64FF656-58E6-4C13-B3CC-343A43FBFB06";
paths = (
{
closed = 1;
nodes = (
"528 892 LINE",
"741 892 LINE",
"778 1082 LINE",
"565 1082 LINE",
"581 1167 LINE SMOOTH",
"598.333 1253.667 OFFCURVE",
"631.667 1296 OFFCURVE",
"721 1296 CURVE SMOOTH",
"749 1296 OFFCURVE",
"802.333 1288.667 OFFCURVE",
"817 1286 CURVE",
"853 1467 LINE",
"798.333 1478.333 OFFCURVE",
"746.667 1484 OFFCURVE",
"698 1484 CURVE SMOOTH",
"468.667 1484 OFFCURVE",
"347 1401.667 OFFCURVE",
"307 1195 CURVE SMOOTH",
"285 1082 LINE",
"127 1082 LINE",
"90 892 LINE",
"248 892 LINE",
"74 0 LINE",
"354 0 LINE",
"528 892 LINE"
);
}
);
width = 682;
}
);
note = f;
unicode = 0066;
},
{
glyphname = g;
lastChange = "2020-03-13 21:34:02 +0000";
layers = (
{
layerId = "E64FF656-58E6-4C13-B3CC-343A43FBFB06";
paths = (
{
closed = 1;
nodes = (
"431 -425 LINE",
"769.667 -425 OFFCURVE",
"939.333 -300.667 OFFCURVE",
"1002 10 CURVE SMOOTH",
"1167 853 LINE",
"1197 999 LINE",
"1216 1082 LINE",
"951 1082 LINE",
"944.333 1071.333 OFFCURVE",
"911 931.667 OFFCURVE",
"903 893 CURVE",
"901 893 LINE",
"865 1021 OFFCURVE",
"743.333 1101 OFFCURVE",
"586 1101 CURVE SMOOTH",
"358 1101 OFFCURVE",
"213.167 987.5 OFFCURVE",
"128.5 741.5 CURVE SMOOTH",
"86.167 618.5 OFFCURVE",
"65 490 OFFCURVE",
"65 356 CURVE SMOOTH",
"65 137.333 OFFCURVE",
"198.333 -8 OFFCURVE",
"405 -8 CURVE SMOOTH",
"507.667 -8 OFFCURVE",
"585.167 21 OFFCURVE",
"648.5 73 CURVE SMOOTH",
"680.167 99 OFFCURVE",
"717 141.667 OFFCURVE",
"759 201 CURVE",
"761 201 LINE",
"753.667 149 OFFCURVE",
"743.333 91 OFFCURVE",
"730 27 CURVE SMOOTH",
"684.667 -170.333 OFFCURVE",
"610.667 -239 OFFCURVE",
"464 -239 CURVE SMOOTH",
"356.667 -239 OFFCURVE",
"294 -196.667 OFFCURVE",
"276 -112 CURVE",
"-7 -142 LINE",
"26.333 -335.333 OFFCURVE",
"165.667 -425 OFFCURVE",
"431 -425 CURVE"
);
},
{
closed = 1;
nodes = (
"846 686 LINE",
"846 520.667 OFFCURVE",
"791.333 353.333 OFFCURVE",
"694 264 CURVE SMOOTH",
"645.333 219.333 OFFCURVE",
"591.333 197 OFFCURVE",
"532 197 CURVE SMOOTH",
"416.667 197 OFFCURVE",
"359 263.333 OFFCURVE",
"359 396 CURVE SMOOTH",
"359 493.333 OFFCURVE",
"392.5 678.167 OFFCURVE",
"438.5 773.5 CURVE SMOOTH",
"484.5 868.833 OFFCURVE",
"546.667 909 OFFCURVE",
"648 909 CURVE SMOOTH",
"773.333 909 OFFCURVE",
"846 824.667 OFFCURVE",
"846 686 CURVE"
);
}
);
width = 1251;
}
);
note = g;
unicode = 0067;
},
{
glyphname = h;
lastChange = "2020-03-13 21:34:02 +0000";
layers = (
{
layerId = "E64FF656-58E6-4C13-B3CC-343A43FBFB06";
paths = (
{
closed = 1;
nodes = (
"601 1484 LINE",
"321 1484 LINE",
"35 0 LINE",
"317 0 LINE",
"435 606 LINE SMOOTH",
"464.333 764.667 OFFCURVE",
"595.333 889 OFFCURVE",
"730 889 CURVE SMOOTH",
"831.333 889 OFFCURVE",
"882 846 OFFCURVE",
"882 760 CURVE SMOOTH",
"882 732.667 OFFCURVE",
"873.333 677.667 OFFCURVE",
"856 595 CURVE SMOOTH",
"738 0 LINE",
"1017 0 LINE",
"1144 653 LINE SMOOTH",
"1153.333 693 OFFCURVE",
"1165 783.667 OFFCURVE",
"1165 817 CURVE SMOOTH",
"1165 1001 OFFCURVE",
"1061.667 1101 OFFCURVE",
"859 1101 CURVE SMOOTH",
"703 1101 OFFCURVE",
"586 1035.667 OFFCURVE",
"486 897 CURVE",
"483 897 LINE",
"522 1079 LINE",
"601 1484 LINE"
);
}
);
width = 1251;
}
);
note = h;
unicode = 0068;
},
{
glyphname = i;
lastChange = "2020-03-13 21:34:02 +0000";
layers = (
{
layerId = "E64FF656-58E6-4C13-B3CC-343A43FBFB06";
paths = (
{
closed = 1;
nodes = (
"282 1277 LINE",
"563 1277 LINE",
"604 1484 LINE",
"323 1484 LINE",
"282 1277 LINE"
);
},
{
closed = 1;
nodes = (
"35 0 LINE",
"315 0 LINE",
"526 1082 LINE",
"245 1082 LINE",
"35 0 LINE"
);
}
);
width = 569;
}
);
note = i;
unicode = 0069;
},
{
glyphname = j;
lastChange = "2020-03-13 21:34:02 +0000";
layers = (
{
layerId = "E64FF656-58E6-4C13-B3CC-343A43FBFB06";
paths = (
{
closed = 1;
nodes = (
"283 1277 LINE",
"564 1277 LINE",
"604 1484 LINE",
"323 1484 LINE",
"283 1277 LINE"
);
},
{
closed = 1;
nodes = (
"-54 -425 LINE",
"132.667 -425 OFFCURVE",
"251.333 -320 OFFCURVE",
"290 -128 CURVE SMOOTH",
"526 1082 LINE",
"245 1082 LINE",
"22 -60 LINE SMOOTH",
"-2 -184 OFFCURVE",
"-36.667 -222 OFFCURVE",
"-126 -222 CURVE",
"-184 -218 LINE",
"-220 -406 LINE",
"-172.667 -418.667 OFFCURVE",
"-117.333 -425 OFFCURVE",
"-54 -425 CURVE"
);
}
);
width = 569;
}
);
note = j;
unicode = 006A;
},
{
glyphname = k;
lastChange = "2020-03-13 21:34:02 +0000";
layers = (
{
layerId = "E64FF656-58E6-4C13-B3CC-343A43FBFB06";
paths = (
{
closed = 1;
nodes = (
"728 0 LINE",
"1026 0 LINE",
"751 660 LINE",
"1224 1082 LINE",
"902 1082 LINE",
"437 634 LINE",
"604 1484 LINE",
"323 1484 LINE",
"35 0 LINE",
"315 0 LINE",
"400 422 LINE",
"540 497 LINE",
"728 0 LINE"
);
}
);
width = 1139;
}
);
note = k;
unicode = 006B;
},
{
glyphname = l;
lastChange = "2020-03-13 21:34:02 +0000";
layers = (
{
layerId = "E64FF656-58E6-4C13-B3CC-343A43FBFB06";
paths = (
{
closed = 1;
nodes = (
"35 0 LINE",
"315 0 LINE",
"604 1484 LINE",
"323 1484 LINE",
"35 0 LINE"
);
}
);
width = 569;
}
);
note = l;
unicode = 006C;
},
{
glyphname = m;
lastChange = "2020-03-13 21:34:02 +0000";
layers = (
{
layerId = "E64FF656-58E6-4C13-B3CC-343A43FBFB06";
paths = (
{
closed = 1;
nodes = (
"1322 892 LINE",
"1404 892 OFFCURVE",
"1446 851.667 OFFCURVE",
"1448 771 CURVE SMOOTH",
"1448 766 LINE SMOOTH",
"1448 733.333 OFFCURVE",
"1442 687 OFFCURVE",
"1430 627 CURVE SMOOTH",
"1308 0 LINE",
"1587 0 LINE",
"1715 653 LINE SMOOTH",
"1729 719.667 OFFCURVE",
"1736 774.333 OFFCURVE",
"1736 817 CURVE SMOOTH",
"1736 1001 OFFCURVE",
"1635 1101 OFFCURVE",
"1451 1101 CURVE SMOOTH",
"1305.667 1101 OFFCURVE",
"1203.667 1035.667 OFFCURVE",
"1097 869 CURVE",
"1078.333 1019.667 OFFCURVE",
"980.333 1101 OFFCURVE",
"815 1101 CURVE SMOOTH",
"679 1101 OFFCURVE",
"589.667 1051.667 OFFCURVE",
"487 897 CURVE",
"484 897 LINE",
"493.333 951.667 OFFCURVE",
"512 1067.333 OFFCURVE",
"512 1082 CURVE",
"240 1082 LINE",
"227.333 991.333 OFFCURVE",
"214.333 914.333 OFFCURVE",
"201 851 CURVE SMOOTH",
"35 0 LINE",
"317 0 LINE",
"435 604 LINE SMOOTH",
"471 786.667 OFFCURVE",
"569.667 892 OFFCURVE",
"687 892 CURVE SMOOTH",
"771 892 OFFCURVE",
"813 851.667 OFFCURVE",
"813 771 CURVE SMOOTH",
"813 741 OFFCURVE",
"807.333 695.667 OFFCURVE",
"796 635 CURVE SMOOTH",
"673 0 LINE",
"952 0 LINE",
"1071 607 LINE SMOOTH",
"1105.667 781.667 OFFCURVE",
"1200.667 892 OFFCURVE",
"1322 892 CURVE"
);
}
);
width = 1821;
}
);
note = m;
unicode = 006D;
},
{
glyphname = n;
lastChange = "2020-03-13 21:34:02 +0000";
layers = (
{
layerId = "E64FF656-58E6-4C13-B3CC-343A43FBFB06";
paths = (
{
closed = 1;
nodes = (
"738 0 LINE",
"1017 0 LINE",
"1144 653 LINE SMOOTH",
"1153.333 693 OFFCURVE",
"1165 783.667 OFFCURVE",
"1165 817 CURVE SMOOTH",
"1165 1001 OFFCURVE",
"1061.667 1101 OFFCURVE",
"859 1101 CURVE SMOOTH",
"703 1101 OFFCURVE",
"586 1035.667 OFFCURVE",
"486 897 CURVE",
"483 897 LINE",
"489.667 931.667 OFFCURVE",
"507 1070 OFFCURVE",
"507 1082 CURVE",
"239 1082 LINE",
"224.333 980.667 OFFCURVE",
"211.667 903.667 OFFCURVE",
"201 851 CURVE SMOOTH",
"35 0 LINE",
"317 0 LINE",
"435 606 LINE SMOOTH",
"464.333 764.667 OFFCURVE",
"595.333 889 OFFCURVE",
"730 889 CURVE SMOOTH",
"831.333 889 OFFCURVE",
"882 846 OFFCURVE",
"882 760 CURVE SMOOTH",
"882 732.667 OFFCURVE",
"873.333 677.667 OFFCURVE",
"856 595 CURVE SMOOTH",
"738 0 LINE"
);
}
);
width = 1251;
}
);
note = n;
unicode = 006E;
},
{
glyphname = o;
lastChange = "2020-03-13 21:34:02 +0000";
layers = (
{
layerId = "E64FF656-58E6-4C13-B3CC-343A43FBFB06";
paths = (
{
closed = 1;
nodes = (
"1185 683 LINE",
"1185 948.333 OFFCURVE",
"1017.333 1101 OFFCURVE",
"704 1101 CURVE SMOOTH",
"453.333 1101 OFFCURVE",
"248.5 981.667 OFFCURVE",
"142.5 775 CURVE SMOOTH",
"89.5 671.667 OFFCURVE",
"63 553 OFFCURVE",
"63 419 CURVE SMOOTH",
"63 147 OFFCURVE",
"244.333 -20 OFFCURVE",
"535 -20 CURVE SMOOTH",
"785.667 -20 OFFCURVE",
"994.833 100.333 OFFCURVE",
"1103.5 315 CURVE SMOOTH",
"1157.833 422.333 OFFCURVE",
"1185 545 OFFCURVE",
"1185 683 CURVE"
);
},
{
closed = 1;
nodes = (
"891 662 LINE",
"881.667 466 OFFCURVE",
"830.833 303.833 OFFCURVE",
"743.5 228.5 CURVE SMOOTH",
"699.833 190.833 OFFCURVE",
"640.667 172 OFFCURVE",
"566 172 CURVE SMOOTH",
"427.333 172 OFFCURVE",
"358 258.333 OFFCURVE",
"358 431 CURVE SMOOTH",
"358 581.667 OFFCURVE",
"411.5 769 OFFCURVE",
"501.5 849 CURVE SMOOTH",
"546.5 889 OFFCURVE",
"607 909 OFFCURVE",
"683 909 CURVE SMOOTH",
"821.667 909 OFFCURVE",
"891 826.667 OFFCURVE",
"891 662 CURVE"
);
}
);
width = 1251;
}
);
note = o;
unicode = 006F;
},
{
glyphname = p;
lastChange = "2020-03-13 21:34:02 +0000";
layers = (
{
layerId = "E64FF656-58E6-4C13-B3CC-343A43FBFB06";
paths = (
{
closed = 1;
nodes = (
"728 907 LINE",
"840 907 OFFCURVE",
"889 835.333 OFFCURVE",
"889 694 CURVE SMOOTH",
"889 548.667 OFFCURVE",
"840.667 322.333 OFFCURVE",
"762 237 CURVE SMOOTH",
"722.667 194.333 OFFCURVE",
"669 173 OFFCURVE",
"601 173 CURVE SMOOTH",
"474.333 173 OFFCURVE",
"400 258.333 OFFCURVE",
"400 401 CURVE SMOOTH",
"400 441 OFFCURVE",
"405.667 492 OFFCURVE",
"417 554 CURVE SMOOTH",
"462.333 790 OFFCURVE",
"560 907 OFFCURVE",
"728 907 CURVE"
);
},
{
closed = 1;
nodes = (
"493 913 LINE",
"489 913 LINE",
"499.667 950.333 OFFCURVE",
"512 1063.333 OFFCURVE",
"512 1082 CURVE",
"237 1082 LINE",
"218 943 LINE",
"198 833 LINE",
"-45 -425 LINE",
"235 -425 LINE",
"315 -10 LINE SMOOTH",
"331.667 74 OFFCURVE",
"342.333 136.667 OFFCURVE",
"347 178 CURVE",
"349 178 LINE",
"391.667 52.667 OFFCURVE",
"495.333 -20 OFFCURVE",
"662 -20 CURVE SMOOTH",
"894 -20 OFFCURVE",
"1040.333 99.167 OFFCURVE",
"1123 354.5 CURVE SMOOTH",
"1164.333 482.167 OFFCURVE",
"1185 613.333 OFFCURVE",
"1185 748 CURVE SMOOTH",
"1185 968 OFFCURVE",
"1060 1102 OFFCURVE",
"848 1102 CURVE SMOOTH",
"690.667 1102 OFFCURVE",
"589 1046.333 OFFCURVE",
"493 913 CURVE"
);
}
);
width = 1251;
}
);
note = p;
unicode = 0070;
},
{
glyphname = q;
lastChange = "2020-03-13 21:34:02 +0000";
layers = (
{
layerId = "E64FF656-58E6-4C13-B3CC-343A43FBFB06";
paths = (
{
closed = 1;
nodes = (
"898 903 LINE",
"893 903 LINE",
"838.333 1047 OFFCURVE",
"753.333 1102 OFFCURVE",
"580 1102 CURVE SMOOTH",
"365.333 1102 OFFCURVE",
"208.333 971 OFFCURVE",
"123 727 CURVE SMOOTH",
"80.333 605 OFFCURVE",
"59 478.667 OFFCURVE",
"59 348 CURVE SMOOTH",
"59 117.333 OFFCURVE",
"191.333 -21 OFFCURVE",
"394 -21 CURVE SMOOTH",
"548.667 -21 OFFCURVE",
"654 32.333 OFFCURVE",
"754 163 CURVE",
"758 163 LINE",
"722 7 LINE",
"637 -425 LINE",
"918 -425 LINE",
"1081.333 420.333 OFFCURVE",
"1170.333 878.333 OFFCURVE",
"1185 949 CURVE SMOOTH",
"1199.667 1019.667 OFFCURVE",
"1209.667 1064 OFFCURVE",
"1215 1082 CURVE",
"945 1082 LINE",
"930.333 1044.667 OFFCURVE",
"914.667 985 OFFCURVE",
"898 903 CURVE"
);
},
{
closed = 1;
nodes = (
"518 172 LINE",
"410 172 OFFCURVE",
"356 247.333 OFFCURVE",
"356 386 CURVE SMOOTH",
"356 550 OFFCURVE",
"405 759.5 OFFCURVE",
"493 845.5 CURVE SMOOTH",
"537 888.5 OFFCURVE",
"595.667 910 OFFCURVE",
"669 910 CURVE SMOOTH",
"785 910 OFFCURVE",
"843 833.333 OFFCURVE",
"843 680 CURVE SMOOTH",
"843 636.667 OFFCURVE",
"837.667 585.667 OFFCURVE",
"827 527 CURVE SMOOTH",
"784.333 289.667 OFFCURVE",
"687.333 172 OFFCURVE",
"518 172 CURVE"
);
}
);
width = 1251;
}
);
note = q;
unicode = 0071;
},
{
glyphname = r;
lastChange = "2020-03-13 21:34:02 +0000";
layers = (
{
layerId = "E64FF656-58E6-4C13-B3CC-343A43FBFB06";
paths = (
{
closed = 1;
nodes = (
"844 853 LINE",
"890 1088 LINE",
"852.667 1097.333 OFFCURVE",
"818.333 1102 OFFCURVE",
"787 1102 CURVE SMOOTH",
"664.333 1102 OFFCURVE",
"577.333 1039.667 OFFCURVE",
"480 861 CURVE",
"476 861 LINE",
"484 910 LINE",
"506 1082 LINE",
"238 1082 LINE",
"226 994 OFFCURVE",
"212 910 OFFCURVE",
"196 830 CURVE SMOOTH",
"35 0 LINE",
"316 0 LINE",
"417 514 LINE SMOOTH",
"463.667 754 OFFCURVE",
"566 868 OFFCURVE",
"730 868 CURVE SMOOTH",
"760 868 OFFCURVE",
"798 863 OFFCURVE",
"844 853 CURVE"
);
}
);
width = 797;
}
);
note = r;
unicode = 0072;
},
{
glyphname = s;
lastChange = "2020-03-13 21:34:02 +0000";
layers = (
{
layerId = "E64FF656-58E6-4C13-B3CC-343A43FBFB06";
paths = (
{
closed = 1;
nodes = (
"1000 334 LINE",
"1000 499.333 OFFCURVE",
"910.667 596.333 OFFCURVE",
"668 651 CURVE SMOOTH",
"574 673 OFFCURVE",
"514.667 689.333 OFFCURVE",
"490 700 CURVE SMOOTH",
"440.667 721.333 OFFCURVE",
"413 749 OFFCURVE",
"413 793 CURVE SMOOTH",
"413 873 OFFCURVE",
"481.333 913 OFFCURVE",
"618 913 CURVE SMOOTH",
"731.333 913 OFFCURVE",
"795.333 874 OFFCURVE",
"818 782 CURVE",
"1069 811 LINE",
"1037 1007 OFFCURVE",
"911.667 1099 OFFCURVE",
"637 1099 CURVE SMOOTH",
"326.333 1099 OFFCURVE",
"153 982.333 OFFCURVE",
"153 769 CURVE SMOOTH",
"153 601 OFFCURVE",
"249.667 499 OFFCURVE",
"515 439 CURVE SMOOTH",
"609 419 OFFCURVE",
"669.833 399.833 OFFCURVE",
"697.5 381.5 CURVE SMOOTH",
"725.167 363.167 OFFCURVE",
"739 336.667 OFFCURVE",
"739 302 CURVE SMOOTH",
"739 214 OFFCURVE",
"662.333 166 OFFCURVE",
"517 166 CURVE SMOOTH",
"370.333 166 OFFCURVE",
"302 207 OFFCURVE",
"274 307 CURVE",
"23 271 LINE",
"77.667 72.333 OFFCURVE",
"229 -20 OFFCURVE",
"497 -20 CURVE SMOOTH",
"825 -20 OFFCURVE",
"1000 102 OFFCURVE",
"1000 334 CURVE"
);
}
);
width = 1139;
}
);
note = s;
unicode = 0073;
},
{
glyphname = t;
lastChange = "2020-03-13 21:34:02 +0000";
layers = (
{
layerId = "E64FF656-58E6-4C13-B3CC-343A43FBFB06";
paths = (
{
closed = 1;
nodes = (
"376 -16 LINE",
"444.667 -16 OFFCURVE",
"506 -8 OFFCURVE",
"560 8 CURVE",
"592 190 LINE",
"541.333 181.333 OFFCURVE",
"505.333 177 OFFCURVE",
"484 177 CURVE SMOOTH",
"430.667 177 OFFCURVE",
"397 206.667 OFFCURVE",
"397 268 CURVE SMOOTH",
"397 290 OFFCURVE",
"400.667 319.667 OFFCURVE",
"408 357 CURVE SMOOTH",
"512 892 LINE",
"717 892 LINE",
"752 1082 LINE",
"550 1082 LINE",
"598 1336 LINE",
"422 1336 LINE",
"285 1082 LINE",
"123 1082 LINE",
"86 892 LINE",
"234 892 LINE",
"132 366 LINE SMOOTH",
"121.333 308.667 OFFCURVE",
"116 256.333 OFFCURVE",
"116 209 CURVE SMOOTH",
"116 65 OFFCURVE",
"210.667 -16 OFFCURVE",
"376 -16 CURVE"
);
}
);
width = 682;
}
);
note = t;
unicode = 0074;
},
{
glyphname = u;
lastChange = "2020-03-13 21:34:02 +0000";
layers = (
{
layerId = "E64FF656-58E6-4C13-B3CC-343A43FBFB06";
paths = (
{
closed = 1;
nodes = (
"512 1082 LINE",
"233 1082 LINE",
"106 429 LINE",
"96.667 391.667 OFFCURVE",
"85 298.333 OFFCURVE",
"85 265 CURVE SMOOTH",
"85 81 OFFCURVE",
"188.333 -19 OFFCURVE",
"391 -19 CURVE SMOOTH",
"545.667 -19 OFFCURVE",
"662.667 42.333 OFFCURVE",
"764 185 CURVE",
"767 185 LINE",
"760.333 150.333 OFFCURVE",
"743 12 OFFCURVE",
"743 0 CURVE",
"1011 0 LINE",
"1025.667 101.333 OFFCURVE",
"1038.333 178.333 OFFCURVE",
"1049 231 CURVE SMOOTH",
"1215 1082 LINE",
"933 1082 LINE",
"815 476 LINE SMOOTH",
"784.333 314.667 OFFCURVE",
"654.667 193 OFFCURVE",
"520 193 CURVE SMOOTH",
"418.667 193 OFFCURVE",
"368 236 OFFCURVE",
"368 322 CURVE SMOOTH",
"368 350 OFFCURVE",
"376.667 405 OFFCURVE",
"394 487 CURVE SMOOTH",
"512 1082 LINE"
);
}
);
width = 1251;
}
);
note = u;
unicode = 0075;
},
{
glyphname = v;
lastChange = "2020-03-13 21:34:02 +0000";
layers = (
{
layerId = "E64FF656-58E6-4C13-B3CC-343A43FBFB06";
paths = (
{
closed = 1;
nodes = (
"622 0 LINE",
"1232 1082 LINE",
"930 1082 LINE",
"614 474 LINE SMOOTH",
"573.333 392 OFFCURVE",
"532.667 303.333 OFFCURVE",
"492 208 CURVE",
"492 238.667 OFFCURVE",
"475.333 437 OFFCURVE",
"470 477 CURVE SMOOTH",
"399 1082 LINE",
"110 1082 LINE",
"286 0 LINE",
"622 0 LINE"
);
}
);
width = 1139;
}
);
note = v;
unicode = 0076;
},
{
glyphname = w;
lastChange = "2020-03-13 21:34:02 +0000";
layers = (
{
layerId = "E64FF656-58E6-4C13-B3CC-343A43FBFB06";
paths = (
{
closed = 1;
nodes = (
"1207 0 LINE",
"1702 1082 LINE",
"1436 1082 LINE",
"1145 387 LINE",
"1092 255 LINE",
"1087 446 LINE",
"1045 1082 LINE",
"744 1082 LINE",
"450 446 LINE",
"398 323 LINE",
"371 255 LINE",
"371 386 LINE",
"357 1082 LINE",
"99 1082 LINE",
"168 0 LINE",
"465 0 LINE",
"767 658 LINE SMOOTH",
"795 718 OFFCURVE",
"826.667 795.333 OFFCURVE",
"862 890 CURVE",
"867 660 LINE",
"910 0 LINE",
"1207 0 LINE"
);
}
);
width = 1593;
}
);
note = w;
unicode = 0077;
},
{
glyphname = x;
lastChange = "2020-03-13 21:34:02 +0000";
layers = (
{
layerId = "E64FF656-58E6-4C13-B3CC-343A43FBFB06";
paths = (
{
closed = 1;
nodes = (
"724 0 LINE",
"1019 0 LINE",
"725 557 LINE",
"1208 1082 LINE",
"900 1082 LINE",
"604 735 LINE",
"431 1082 LINE",
"139 1082 LINE",
"418 562 LINE",
"-90 0 LINE",
"211 0 LINE",
"538 383 LINE",
"724 0 LINE"
);
}
);
width = 1139;
}
);
note = x;
unicode = 0078;
},
{
glyphname = y;
lastChange = "2020-03-13 21:34:02 +0000";
layers = (
{
layerId = "E64FF656-58E6-4C13-B3CC-343A43FBFB06";
paths = (
{
closed = 1;
nodes = (
"88 -425 LINE",
"212 -425 OFFCURVE",
"305.5 -382.667 OFFCURVE",
"395.5 -292 CURVE SMOOTH",
"440.5 -246.667 OFFCURVE",
"498.667 -168.333 OFFCURVE",
"570 -57 CURVE",
"1224 1082 LINE",
"924 1082 LINE",
"665 581 LINE",
"526 288 LINE",
"509 251 LINE",
"511.667 263 OFFCURVE",
"482 543.667 OFFCURVE",
"474 585 CURVE",
"403 1082 LINE",
"112 1082 LINE",
"324 24 LINE",
"296 -24 LINE SMOOTH",
"217.333 -162.667 OFFCURVE",
"144 -220 OFFCURVE",
"40 -220 CURVE SMOOTH",
"8.667 -220 OFFCURVE",
"-20.333 -217 OFFCURVE",
"-47 -211 CURVE",
"-85 -407 LINE",
"-34.333 -419 OFFCURVE",
"23.333 -425 OFFCURVE",
"88 -425 CURVE"
);
}
);
width = 1139;
}
);
note = y;
unicode = 0079;
},
{
glyphname = z;
lastChange = "2020-03-13 21:34:02 +0000";
layers = (
{
layerId = "E64FF656-58E6-4C13-B3CC-343A43FBFB06";
paths = (
{
closed = 1;
nodes = (
"-10 0 LINE",
"848 0 LINE",
"888 205 LINE",
"361 205 LINE",
"971 881 LINE",
"1010 1082 LINE",
"241 1082 LINE",
"201 879 LINE",
"641 879 LINE",
"28 199 LINE",
"-10 0 LINE"
);
}
);
width = 1024;
}
);
note = z;
unicode = 007A;
},
{
glyphname = braceleft;
lastChange = "2020-03-13 21:34:02 +0000";
layers = (
{
layerId = "E64FF656-58E6-4C13-B3CC-343A43FBFB06";
paths = (
{
closed = 1;
nodes = (
"388 -425 LINE",
"571 -425 LINE",
"608 -234 LINE",
"528 -234 LINE SMOOTH",
"453.333 -234 OFFCURVE",
"406 -199.667 OFFCURVE",
"406 -129 CURVE SMOOTH",
"406 -106.333 OFFCURVE",
"409 -81 OFFCURVE",
"415 -53 CURVE SMOOTH",
"480 281 LINE SMOOTH",
"483.333 296.333 OFFCURVE",
"485 313.667 OFFCURVE",
"485 333 CURVE SMOOTH",
"485 433 OFFCURVE",
"420.667 502.667 OFFCURVE",
"322 528 CURVE",
"323 532 LINE",
"452.333 558.667 OFFCURVE",
"553.667 653.667 OFFCURVE",
"579 779 CURVE SMOOTH",
"639 1089 LINE SMOOTH",
"668.333 1238.333 OFFCURVE",
"719.667 1294 OFFCURVE",
"829 1294 CURVE SMOOTH",
"905 1294 LINE",
"942 1484 LINE",
"748 1484 LINE SMOOTH",
"542.667 1484 OFFCURVE",
"436.667 1384.667 OFFCURVE",
"398 1190 CURVE SMOOTH",
"331 852 LINE SMOOTH",
"302.333 703.333 OFFCURVE",
"211 627.667 OFFCURVE",
"57 625 CURVE",
"19 433 LINE",
"147 430.333 OFFCURVE",
"211 377.667 OFFCURVE",
"211 275 CURVE SMOOTH",
"211 253 OFFCURVE",
"208.667 230.333 OFFCURVE",
"204 207 CURVE SMOOTH",
"143 -101 LINE SMOOTH",
"135.667 -139 OFFCURVE",
"132 -172.667 OFFCURVE",
"132 -202 CURVE SMOOTH",
"132 -338 OFFCURVE",
"229.333 -425 OFFCURVE",
"388 -425 CURVE"
);
}
);
width = 797;
}
);
note = braceleft;
unicode = 007B;
},
{
glyphname = bar;
lastChange = "2020-03-13 21:34:02 +0000";
layers = (
{
layerId = "E64FF656-58E6-4C13-B3CC-343A43FBFB06";
paths = (
{
closed = 1;
nodes = (
"191 -425 LINE",
"453 -425 LINE",
"453 1484 LINE",
"191 1484 LINE",
"191 -425 LINE"
);
}
);
width = 573;
}
);
note = bar;
unicode = 007C;
},
{
glyphname = braceright;
lastChange = "2020-03-13 21:34:02 +0000";
layers = (
{
layerId = "E64FF656-58E6-4C13-B3CC-343A43FBFB06";
paths = (
{
closed = 1;
nodes = (
"399 1485 LINE",
"216 1485 LINE",
"179 1294 LINE",
"259 1294 LINE SMOOTH",
"333.667 1294 OFFCURVE",
"381 1259.667 OFFCURVE",
"381 1189 CURVE SMOOTH",
"381 1167.667 OFFCURVE",
"378 1142 OFFCURVE",
"372 1112 CURVE SMOOTH",
"307 779 LINE SMOOTH",
"303.667 763.667 OFFCURVE",
"302 746.333 OFFCURVE",
"302 727 CURVE SMOOTH",
"302 628.333 OFFCURVE",
"365 556.333 OFFCURVE",
"465 531 CURVE",
"464 528 LINE",
"334.667 501.333 OFFCURVE",
"233.333 406.667 OFFCURVE",
"208 280 CURVE SMOOTH",
"148 -30 LINE SMOOTH",
"118.667 -179.333 OFFCURVE",
"67.333 -235 OFFCURVE",
"-42 -235 CURVE SMOOTH",
"-118 -235 LINE",
"-155 -425 LINE",
"39 -425 LINE SMOOTH",
"239 -425 OFFCURVE",
"347.667 -332.667 OFFCURVE",
"389 -130 CURVE SMOOTH",
"456 207 LINE SMOOTH",
"485.333 357.667 OFFCURVE",
"572.667 432.333 OFFCURVE",
"730 435 CURVE",
"768 627 LINE",
"636 629.667 OFFCURVE",
"576 682.333 OFFCURVE",
"576 785 CURVE SMOOTH",
"576 808.333 OFFCURVE",
"578.333 831 OFFCURVE",
"583 853 CURVE SMOOTH",
"644 1161 LINE SMOOTH",
"651.333 1197.667 OFFCURVE",
"655 1231.333 OFFCURVE",
"655 1262 CURVE SMOOTH",
"655 1398 OFFCURVE",
"557.667 1485 OFFCURVE",
"399 1485 CURVE"
);
}
);
width = 797;
}
);
note = braceright;
unicode = 007D;
},
{
glyphname = asciitilde;
lastChange = "2020-03-13 21:34:02 +0000";
layers = (
{
layerId = "E64FF656-58E6-4C13-B3CC-343A43FBFB06";
paths = (
{
closed = 1;
nodes = (
"889 516 LINE",
"1003.667 516 OFFCURVE",
"1070.667 537.333 OFFCURVE",
"1156 596 CURVE",
"1156 815 LINE",
"1080 753.667 OFFCURVE",
"997.333 723 OFFCURVE",
"908 723 CURVE SMOOTH",
"856 723 OFFCURVE",
"785.333 738.667 OFFCURVE",
"696 770 CURVE SMOOTH",
"597.333 804.667 OFFCURVE",
"495.667 840 OFFCURVE",
"389 840 CURVE SMOOTH",
"283.667 840 OFFCURVE",
"193.333 812 OFFCURVE",
"118 756 CURVE",
"118 543 LINE",
"204.667 603 OFFCURVE",
"278.333 631 OFFCURVE",
"373 631 CURVE SMOOTH",
"430.333 631 OFFCURVE",
"504 615.333 OFFCURVE",
"594 584 CURVE SMOOTH",
"694 549.333 OFFCURVE",
"789 516 OFFCURVE",
"889 516 CURVE"
);
}
);
width = 1196;
}
);
note = asciitilde;
unicode = 007E;
},
{
glyphname = dagger;
lastChange = "2020-03-13 21:34:02 +0000";
layers = (
{
layerId = "E64FF656-58E6-4C13-B3CC-343A43FBFB06";
paths = (
{
closed = 1;
nodes = (
"749 960 LINE",
"1077 933 LINE",
"1117 1137 LINE",
"778 1108 LINE",
"879 1484 LINE",
"624 1484 LINE",
"579 1108 LINE",
"253 1137 LINE",
"213 933 LINE",
"550 960 LINE",
"359 -138 LINE",
"514 -138 LINE",
"749 960 LINE"
);
}
);
width = 1139;
}
);
note = dagger;
unicode = 2020;
},
{
glyphname = degree;
lastChange = "2020-03-13 21:34:02 +0000";
layers = (
{
layerId = "E64FF656-58E6-4C13-B3CC-343A43FBFB06";
paths = (
{
closed = 1;
nodes = (
"830 1110 LINE",
"830 1283.333 OFFCURVE",
"689 1425 OFFCURVE",
"509 1425 CURVE SMOOTH",
"391.667 1425 OFFCURVE",
"288.167 1366.333 OFFCURVE",
"231.5 1269 CURVE SMOOTH",
"203.167 1220.333 OFFCURVE",
"189 1167.333 OFFCURVE",
"189 1110 CURVE SMOOTH",
"189 932.667 OFFCURVE",
"333 795 OFFCURVE",
"509 795 CURVE SMOOTH",
"687.667 795 OFFCURVE",
"830 936.667 OFFCURVE",
"830 1110 CURVE"
);
},
{
closed = 1;
nodes = (
"672 1110 LINE",
"672 1016.667 OFFCURVE",
"598.333 942 OFFCURVE",
"509 942 CURVE SMOOTH",
"418.333 942 OFFCURVE",
"343 1018 OFFCURVE",
"343 1110 CURVE SMOOTH",
"343 1202 OFFCURVE",
"414.333 1276 OFFCURVE",
"509 1276 CURVE SMOOTH",
"602.333 1276 OFFCURVE",
"672 1203.333 OFFCURVE",
"672 1110 CURVE"
);
}
);
width = 819;
}
);
note = degree;
unicode = 00B0;
},
{
glyphname = cent;
lastChange = "2020-03-13 21:34:02 +0000";
layers = (
{
layerId = "E64FF656-58E6-4C13-B3CC-343A43FBFB06";
paths = (
{
closed = 1;
nodes = (
"549 328 LINE",
"430.333 328 OFFCURVE",
"371 406 OFFCURVE",
"371 562 CURVE SMOOTH",
"371 597.333 OFFCURVE",
"378.667 653.333 OFFCURVE",
"394 730 CURVE",
"459.333 979.333 OFFCURVE",
"528.333 1064 OFFCURVE",
"671 1064 CURVE SMOOTH",
"775 1064 OFFCURVE",
"830.667 1000.333 OFFCURVE",
"838 873 CURVE",
"1122 896 LINE",
"1107.333 1086.667 OFFCURVE",
"988.333 1217.333 OFFCURVE",
"799 1248 CURVE",
"831 1409 LINE",
"669 1409 LINE",
"638 1255 LINE",
"344.667 1240.333 OFFCURVE",
"168.667 1064.333 OFFCURVE",
"94 739 CURVE SMOOTH",
"82 689.667 OFFCURVE",
"76 630 OFFCURVE",
"76 560 CURVE SMOOTH",
"76 326.667 OFFCURVE",
"202 177.667 OFFCURVE",
"422 143 CURVE",
"390 -31 LINE",
"552 -31 LINE",
"584 136 LINE",
"818.667 150.667 OFFCURVE",
"973.667 260.667 OFFCURVE",
"1043 486 CURVE",
"772 536 LINE",
"729.333 398.667 OFFCURVE",
"659.667 328 OFFCURVE",
"549 328 CURVE"
);
}
);
width = 1139;
}
);
note = cent;
unicode = 00A2;
},
{
glyphname = sterling;
lastChange = "2020-03-13 21:34:02 +0000";
layers = (
{
layerId = "E64FF656-58E6-4C13-B3CC-343A43FBFB06";
paths = (
{
closed = 1;
nodes = (
"1104 363 LINE",
"879 402 LINE",
"847 266 OFFCURVE",
"767.667 210 OFFCURVE",
"641 210 CURVE SMOOTH",
"233 210 LINE",
"359.667 258.667 OFFCURVE",
"437 348 OFFCURVE",
"465 478 CURVE SMOOTH",
"492 604 LINE",
"778 604 LINE",
"811 774 LINE",
"525 774 LINE",
"578 1042 LINE SMOOTH",
"604.667 1182 OFFCURVE",
"656 1239 OFFCURVE",
"760 1239 CURVE SMOOTH",
"854.667 1239 OFFCURVE",
"909 1194 OFFCURVE",
"929 1082 CURVE",
"1174 1130 LINE",
"1151.333 1318 OFFCURVE",
"1006.667 1430 OFFCURVE",
"772 1430 CURVE SMOOTH",
"509.333 1430 OFFCURVE",
"368 1310 OFFCURVE",
"316 1034 CURVE SMOOTH",
"265 774 LINE",
"87 774 LINE",
"55 604 LINE",
"242 604 LINE",
"217 481 LINE SMOOTH",
"189 341 OFFCURVE",
"113.333 255.667 OFFCURVE",
"-12 205 CURVE",
"-51 0 LINE",
"663 0 LINE SMOOTH",
"891 0 OFFCURVE",
"1048 124.333 OFFCURVE",
"1104 363 CURVE"
);
}
);
width = 1139;
}
);
note = sterling;
unicode = 00A3;
},
{
glyphname = section;
lastChange = "2020-03-13 21:34:02 +0000";
layers = (
{
layerId = "E64FF656-58E6-4C13-B3CC-343A43FBFB06";
paths = (
{
closed = 1;
nodes = (
"718 1427 LINE",
"383.333 1427 OFFCURVE",
"221 1320 OFFCURVE",
"221 1100 CURVE SMOOTH",
"221 996 OFFCURVE",
"271.333 913 OFFCURVE",
"366 861 CURVE",
"185.333 816.333 OFFCURVE",
"95 724.333 OFFCURVE",
"95 585 CURVE SMOOTH",
"95 431 OFFCURVE",
"202 330.333 OFFCURVE",
"416 283 CURVE SMOOTH",
"520 259 OFFCURVE",
"587.5 240 OFFCURVE",
"618.5 226 CURVE SMOOTH",
"680.5 198 OFFCURVE",
"716 159 OFFCURVE",
"716 95 CURVE SMOOTH",
"716 -3.667 OFFCURVE",
"619.333 -59 OFFCURVE",
"438 -59 CURVE SMOOTH",
"296.667 -59 OFFCURVE",
"220.667 -14.667 OFFCURVE",
"202 96 CURVE",
"-42 59 LINE",
"-16.667 -139.667 OFFCURVE",
"131.667 -229 OFFCURVE",
"425 -229 CURVE SMOOTH",
"771.667 -229 OFFCURVE",
"962 -100.667 OFFCURVE",
"962 142 CURVE SMOOTH",
"962 242 OFFCURVE",
"914 321.333 OFFCURVE",
"830 368 CURVE",
"1007.333 424 OFFCURVE",
"1079 518.667 OFFCURVE",
"1079 668 CURVE SMOOTH",
"1079 810 OFFCURVE",
"960 908.333 OFFCURVE",
"722 963 CURVE SMOOTH",
"605.864 990.702 OFFCURVE",
"535.46 1014.428 OFFCURVE",
"495 1058 CURVE SMOOTH",
"477.667 1076.667 OFFCURVE",
"469 1098.667 OFFCURVE",
"469 1124 CURVE SMOOTH",
"469 1212.667 OFFCURVE",
"545 1257 OFFCURVE",
"697 1257 CURVE SMOOTH",
"807.667 1257 OFFCURVE",
"888 1218.667 OFFCURVE",
"904 1128 CURVE",
"1148 1153 LINE",
"1138.667 1331.667 OFFCURVE",
"990 1427 OFFCURVE",
"718 1427 CURVE"
);
},
{
closed = 1;
nodes = (
"571 780 LINE",
"671 757.333 OFFCURVE",
"739.167 732.833 OFFCURVE",
"775.5 706.5 CURVE SMOOTH",
"811.833 680.167 OFFCURVE",
"830 644 OFFCURVE",
"830 598 CURVE SMOOTH",
"830 515.333 OFFCURVE",
"748 466 OFFCURVE",
"600 454 CURVE",
"521.333 472.667 OFFCURVE",
"467.5 489.167 OFFCURVE",
"438.5 503.5 CURVE SMOOTH",
"380.5 532.167 OFFCURVE",
"346 570 OFFCURVE",
"346 626 CURVE SMOOTH",
"346 719.333 OFFCURVE",
"433.667 772 OFFCURVE",
"571 780 CURVE"
);
}
);
width = 1139;
}
);
note = section;
unicode = 00A7;
},
{
glyphname = bullet;
lastChange = "2020-03-13 21:34:02 +0000";
layers = (
{
layerId = "E64FF656-58E6-4C13-B3CC-343A43FBFB06";
paths = (
{
closed = 1;
nodes = (
"676 676 LINE",
"676 838.667 OFFCURVE",
"543.667 969 OFFCURVE",
"381 969 CURVE SMOOTH",
"221 969 OFFCURVE",
"90 838.667 OFFCURVE",
"90 676 CURVE SMOOTH",
"90 513.333 OFFCURVE",
"222.333 381 OFFCURVE",
"381 381 CURVE SMOOTH",
"542.333 381 OFFCURVE",
"676 514.667 OFFCURVE",
"676 676 CURVE"
);
}
);
width = 717;
}
);
note = bullet;
unicode = 2022;
},
{
glyphname = paragraph;
lastChange = "2020-03-13 21:34:02 +0000";
layers = (
{
layerId = "E64FF656-58E6-4C13-B3CC-343A43FBFB06";
paths = (
{
closed = 1;
nodes = (
"975 1266 LINE",
"1106 1266 LINE",
"1106 1409 LINE",
"477 1409 LINE SMOOTH",
"245 1409 OFFCURVE",
"106 1274.333 OFFCURVE",
"106 1049 CURVE SMOOTH",
"106 822.333 OFFCURVE",
"243.667 694 OFFCURVE",
"469 694 CURVE",
"469 -264 LINE",
"624 -264 LINE",
"624 1266 LINE",
"819 1266 LINE",
"819 -264 LINE",
"975 -264 LINE",
"975 1266 LINE"
);
}
);
width = 1139;
}
);
note = paragraph;
unicode = 00B6;
},
{
glyphname = germandbls;
lastChange = "2020-03-13 21:34:02 +0000";
layers = (
{
layerId = "E64FF656-58E6-4C13-B3CC-343A43FBFB06";
paths = (
{
closed = 1;
nodes = (
"35 0 LINE",
"316 0 LINE",
"513 1021 LINE SMOOTH",
"547.667 1197 OFFCURVE",
"633.333 1281 OFFCURVE",
"788 1281 CURVE SMOOTH",
"881.333 1281 OFFCURVE",
"931 1238.667 OFFCURVE",
"931 1168 CURVE SMOOTH",
"931 1090.667 OFFCURVE",
"889 1031.667 OFFCURVE",
"785 953 CURVE SMOOTH",
"681 875.667 OFFCURVE",
"638 808.667 OFFCURVE",
"638 718 CURVE SMOOTH",
"638 627.333 OFFCURVE",
"675.667 562.333 OFFCURVE",
"761 501 CURVE SMOOTH",
"849 435.667 OFFCURVE",
"883 390 OFFCURVE",
"883 322 CURVE SMOOTH",
"883 226 OFFCURVE",
"826.667 166 OFFCURVE",
"720 166 CURVE SMOOTH",
"653.333 166 OFFCURVE",
"600 175 OFFCURVE",
"496 223 CURVE",
"428 37 LINE",
"506.667 -1 OFFCURVE",
"613.667 -20 OFFCURVE",
"749 -20 CURVE SMOOTH",
"991.667 -20 OFFCURVE",
"1152 122.333 OFFCURVE",
"1152 345 CURVE SMOOTH",
"1152 453 OFFCURVE",
"1110 538.333 OFFCURVE",
"1026 601 CURVE SMOOTH",
"930 671.667 OFFCURVE",
"900 705.667 OFFCURVE",
"900 759 CURVE SMOOTH",
"900 783.667 OFFCURVE",
"909.667 806.667 OFFCURVE",
"929 828 CURVE SMOOTH",
"948.333 849.333 OFFCURVE",
"986.667 881.333 OFFCURVE",
"1044 924 CURVE SMOOTH",
"1139.333 995.333 OFFCURVE",
"1187 1086 OFFCURVE",
"1187 1196 CURVE SMOOTH",
"1187 1374.667 OFFCURVE",
"1038.333 1484 OFFCURVE",
"797 1484 CURVE SMOOTH",
"483.667 1484 OFFCURVE",
"301.667 1343 OFFCURVE",
"235 1027 CURVE SMOOTH",
"35 0 LINE"
);
}
);
width = 1251;
}
);
note = germandbls;
unicode = 00DF;
},
{
glyphname = registered;
lastChange = "2020-03-13 21:34:02 +0000";
layers = (
{
layerId = "E64FF656-58E6-4C13-B3CC-343A43FBFB06";
paths = (
{
closed = 1;
nodes = (
"1508 707 LINE",
"1508 965.667 OFFCURVE",
"1372.167 1202.5 OFFCURVE",
"1147.5 1332.5 CURVE SMOOTH",
"1035.167 1397.5 OFFCURVE",
"914.333 1430 OFFCURVE",
"785 1430 CURVE SMOOTH",
"527.667 1430 OFFCURVE",
"288.333 1292 OFFCURVE",
"159 1068 CURVE SMOOTH",
"94.333 956 OFFCURVE",
"62 835.667 OFFCURVE",
"62 707 CURVE SMOOTH",
"62 455 OFFCURVE",
"192.5 218.5 OFFCURVE",
"418.5 84.5 CURVE SMOOTH",
"531.5 17.5 OFFCURVE",
"653.667 -16 OFFCURVE",
"785 -16 CURVE SMOOTH",
"1042.333 -16 OFFCURVE",
"1282.833 120.833 OFFCURVE",
"1411.5 345.5 CURVE SMOOTH",
"1475.833 457.833 OFFCURVE",
"1508 578.333 OFFCURVE",
"1508 707 CURVE"
);
},
{
closed = 1;
nodes = (
"1396 707 LINE",
"1396 489.667 OFFCURVE",
"1280.333 287.333 OFFCURVE",
"1091 178 CURVE SMOOTH",
"996.333 123.333 OFFCURVE",
"894.333 96 OFFCURVE",
"785 96 CURVE SMOOTH",
"566.333 96 OFFCURVE",
"367.167 212.667 OFFCURVE",
"258.5 402 CURVE SMOOTH",
"204.167 496.667 OFFCURVE",
"177 598.333 OFFCURVE",
"177 707 CURVE SMOOTH",
"177 932.333 OFFCURVE",
"301.333 1133 OFFCURVE",
"488 1237 CURVE SMOOTH",
"581.333 1289 OFFCURVE",
"680.333 1315 OFFCURVE",
"785 1315 CURVE SMOOTH",
"1002.333 1315 OFFCURVE",
"1204.667 1197.833 OFFCURVE",
"1314 1010.5 CURVE SMOOTH",
"1368.667 916.833 OFFCURVE",
"1396 815.667 OFFCURVE",
"1396 707 CURVE"
);
},
{
closed = 1;
nodes = (
"953 297 LINE",
"1154 297 LINE",
"941 633 LINE",
"1045 666.333 OFFCURVE",
"1115 744.667 OFFCURVE",
"1115 870 CURVE SMOOTH",
"1115 1020.667 OFFCURVE",
"1014 1112 OFFCURVE",
"810 1112 CURVE SMOOTH",
"480 1112 LINE",
"480 297 LINE",
"658 297 LINE",
"658 610 LINE",
"775 610 LINE",
"953 297 LINE"
);
},
{
closed = 1;
nodes = (
"935 868 LINE",
"935 790.667 OFFCURVE",
"890 739 OFFCURVE",
"802 739 CURVE SMOOTH",
"658 739 LINE",
"658 985 LINE",
"791 985 LINE SMOOTH",
"883 985 OFFCURVE",
"935 944 OFFCURVE",
"935 868 CURVE"
);
}
);
width = 1509;
}
);
note = registered;
unicode = 00AE;
},
{
glyphname = copyright;
lastChange = "2020-03-13 21:34:02 +0000";
layers = (
{
layerId = "E64FF656-58E6-4C13-B3CC-343A43FBFB06";
paths = (
{
closed = 1;
nodes = (
"1508 707 LINE",
"1508 965.667 OFFCURVE",
"1372.167 1202.5 OFFCURVE",
"1147.5 1332.5 CURVE SMOOTH",
"1035.167 1397.5 OFFCURVE",
"914.333 1430 OFFCURVE",
"785 1430 CURVE SMOOTH",
"527.667 1430 OFFCURVE",
"288.333 1292 OFFCURVE",
"159 1068 CURVE SMOOTH",
"94.333 956 OFFCURVE",
"62 835.667 OFFCURVE",
"62 707 CURVE SMOOTH",
"62 455 OFFCURVE",
"192.5 218.5 OFFCURVE",
"418.5 84.5 CURVE SMOOTH",
"531.5 17.5 OFFCURVE",
"653.667 -16 OFFCURVE",
"785 -16 CURVE SMOOTH",
"1042.333 -16 OFFCURVE",
"1282.833 120.833 OFFCURVE",
"1411.5 345.5 CURVE SMOOTH",
"1475.833 457.833 OFFCURVE",
"1508 578.333 OFFCURVE",
"1508 707 CURVE"
);
},
{
closed = 1;
nodes = (
"1396 707 LINE",
"1396 489.667 OFFCURVE",
"1280.333 287.333 OFFCURVE",
"1091 178 CURVE SMOOTH",
"996.333 123.333 OFFCURVE",
"894.333 96 OFFCURVE",
"785 96 CURVE SMOOTH",
"566.333 96 OFFCURVE",
"367.167 212.667 OFFCURVE",
"258.5 402 CURVE SMOOTH",
"204.167 496.667 OFFCURVE",
"177 598.333 OFFCURVE",
"177 707 CURVE SMOOTH",
"177 932.333 OFFCURVE",
"301.333 1133 OFFCURVE",
"488 1237 CURVE SMOOTH",
"581.333 1289 OFFCURVE",
"680.333 1315 OFFCURVE",
"785 1315 CURVE SMOOTH",
"1002.333 1315 OFFCURVE",
"1204.667 1197.833 OFFCURVE",
"1314 1010.5 CURVE SMOOTH",
"1368.667 916.833 OFFCURVE",
"1396 815.667 OFFCURVE",
"1396 707 CURVE"
);
},
{
closed = 1;
nodes = (
"798 285 LINE",
"963.333 285 OFFCURVE",
"1076.667 355.333 OFFCURVE",
"1154 522 CURVE",
"994 569 LINE",
"956.667 477 OFFCURVE",
"886 426 OFFCURVE",
"798 426 CURVE SMOOTH",
"656.667 426 OFFCURVE",
"574 529 OFFCURVE",
"574 709 CURVE SMOOTH",
"574 887.667 OFFCURVE",
"648.667 983 OFFCURVE",
"794 983 CURVE SMOOTH",
"886 983 OFFCURVE",
"951.333 935.333 OFFCURVE",
"986 854 CURVE",
"1142 895 LINE",
"1078 1051 OFFCURVE",
"962.333 1124 OFFCURVE",
"789 1124 CURVE SMOOTH",
"534.333 1124 OFFCURVE",
"394 979.667 OFFCURVE",
"394 709 CURVE SMOOTH",
"394 439.667 OFFCURVE",
"540.667 285 OFFCURVE",
"798 285 CURVE"
);
}
);
width = 1509;
}
);
note = copyright;
unicode = 00A9;
},
{
glyphname = trademark;
lastChange = "2020-03-13 21:34:02 +0000";
layers = (
{
layerId = "E64FF656-58E6-4C13-B3CC-343A43FBFB06";
paths = (
{
closed = 1;
nodes = (
"1119 768 LINE",
"1119 1108 LINE SMOOTH",
"1119 1127.333 OFFCURVE",
"1116.667 1184.667 OFFCURVE",
"1112 1280 CURVE",
"1189 1096 LINE",
"1338 768 LINE",
"1469 768 LINE",
"1623 1096 LINE",
"1669 1205 LINE",
"1699 1280 LINE",
"1693.667 1176 OFFCURVE",
"1691 1118.667 OFFCURVE",
"1691 1108 CURVE SMOOTH",
"1691 768 LINE",
"1856 768 LINE",
"1856 1409 LINE",
"1613 1409 LINE",
"1469 1108 LINE",
"1428 1009 LINE",
"1405 948 LINE",
"1376.333 1022 OFFCURVE",
"1354.667 1075.333 OFFCURVE",
"1340 1108 CURVE SMOOTH",
"1201 1409 LINE",
"953 1409 LINE",
"953 768 LINE",
"1119 768 LINE"
);
},
{
closed = 1;
nodes = (
"608 1270 LINE",
"859 1270 LINE",
"859 1409 LINE",
"185 1409 LINE",
"185 1270 LINE",
"428 1270 LINE",
"428 768 LINE",
"608 768 LINE",
"608 1270 LINE"
);
}
);
width = 2048;
}
);
note = trademark;
unicode = 2122;
},
{
glyphname = acute;
lastChange = "2020-03-13 21:34:02 +0000";
layers = (
{
layerId = "E64FF656-58E6-4C13-B3CC-343A43FBFB06";
paths = (
{
closed = 1;
nodes = (
"255 1183 LINE",
"401 1183 LINE",
"777 1459 LINE",
"785 1502 LINE",
"508 1502 LINE",
"261 1214 LINE",
"255 1183 LINE"
);
}
);
width = 682;
}
);
note = acute;
unicode = 00B4;
},
{
glyphname = dieresis;
lastChange = "2020-03-13 21:34:02 +0000";
layers = (
{
layerId = "E64FF656-58E6-4C13-B3CC-343A43FBFB06";
paths = (
{
closed = 1;
nodes = (
"568 1199 LINE",
"785 1199 LINE",
"828 1418 LINE",
"611 1418 LINE",
"568 1199 LINE"
);
},
{
closed = 1;
nodes = (
"135 1199 LINE",
"348 1199 LINE",
"391 1418 LINE",
"177 1418 LINE",
"135 1199 LINE"
);
}
);
width = 682;
}
);
note = dieresis;
unicode = 00A8;
},
{
glyphname = notequal;
lastChange = "2020-03-13 21:34:02 +0000";
layers = (
{
layerId = "E64FF656-58E6-4C13-B3CC-343A43FBFB06";
paths = (
{
closed = 1;
nodes = (
"491 291 LINE",
"1126 291 LINE",
"1126 512 LINE",
"599 512 LINE",
"765 842 LINE",
"1126 842 LINE",
"1126 1065 LINE",
"874 1065 LINE",
"1005 1323 LINE",
"794 1323 LINE",
"661 1065 LINE",
"59 1065 LINE",
"59 842 LINE",
"552 842 LINE",
"386 512 LINE",
"59 512 LINE",
"59 291 LINE",
"278 291 LINE",
"149 37 LINE",
"362 37 LINE",
"491 291 LINE"
);
}
);
width = 1124;
}
);
note = notequal;
unicode = 2260;
},
{
glyphname = AE;
lastChange = "2020-03-13 21:34:02 +0000";
layers = (
{
layerId = "E64FF656-58E6-4C13-B3CC-343A43FBFB06";
paths = (
{
closed = 1;
nodes = (
"837 0 LINE",
"1866 0 LINE",
"1910 227 LINE",
"1168 227 LINE",
"1241 606 LINE",
"1880 606 LINE",
"1923 827 LINE",
"1284 827 LINE",
"1353 1182 LINE",
"2054 1182 LINE",
"2099 1409 LINE",
"868 1409 LINE",
"-97 0 LINE",
"215 0 LINE",
"457 360 LINE",
"907 360 LINE",
"837 0 LINE"
);
},
{
closed = 1;
nodes = (
"1068 1192 LINE",
"950 582 LINE",
"602 582 LINE",
"871 983 LINE",
"1007 1192 LINE",
"1068 1192 LINE"
);
}
);
width = 2048;
}
);
note = AE;
unicode = 00C6;
},
{
glyphname = Oslash;
lastChange = "2020-03-13 21:34:02 +0000";
layers = (
{
layerId = "E64FF656-58E6-4C13-B3CC-343A43FBFB06";
paths = (
{
closed = 1;
nodes = (
"928 1430 LINE",
"604 1430 OFFCURVE",
"346.167 1282.833 OFFCURVE",
"205.5 1011.5 CURVE SMOOTH",
"135.167 875.833 OFFCURVE",
"100 729.667 OFFCURVE",
"100 573 CURVE SMOOTH",
"100 407.667 OFFCURVE",
"146.667 272.333 OFFCURVE",
"240 167 CURVE",
"35 -53 LINE",
"242 -53 LINE",
"357 71 LINE",
"455.667 10.333 OFFCURVE",
"579 -20 OFFCURVE",
"727 -20 CURVE SMOOTH",
"1051 -20 OFFCURVE",
"1312.833 129.167 OFFCURVE",
"1453.5 400.5 CURVE SMOOTH",
"1523.833 536.167 OFFCURVE",
"1559 686.333 OFFCURVE",
"1559 851 CURVE SMOOTH",
"1559 1003 OFFCURVE",
"1517.667 1128.333 OFFCURVE",
"1435 1227 CURVE",
"1658 1466 LINE",
"1455 1466 LINE",
"1324 1326 LINE",
"1218 1395.333 OFFCURVE",
"1086 1430 OFFCURVE",
"928 1430 CURVE"
);
},
{
closed = 1;
nodes = (
"914 1197 LINE",
"1005.333 1197 OFFCURVE",
"1080 1173.667 OFFCURVE",
"1138 1127 CURVE",
"439 379 LINE",
"413 433 OFFCURVE",
"400 500.333 OFFCURVE",
"400 581 CURVE SMOOTH",
"400 799.667 OFFCURVE",
"486 1022 OFFCURVE",
"638 1122 CURVE SMOOTH",
"714 1172 OFFCURVE",
"806 1197 OFFCURVE",
"914 1197 CURVE"
);
},
{
closed = 1;
nodes = (
"1255 827 LINE",
"1255 601.667 OFFCURVE",
"1168 387 OFFCURVE",
"1016 287 CURVE SMOOTH",
"940 237 OFFCURVE",
"848.333 212 OFFCURVE",
"741 212 CURVE SMOOTH",
"658.333 212 OFFCURVE",
"590.667 229.333 OFFCURVE",
"538 264 CURVE",
"1226 1002 LINE",
"1245.333 952 OFFCURVE",
"1255 893.667 OFFCURVE",
"1255 827 CURVE"
);
}
);
width = 1593;
}
);
note = Oslash;
unicode = 00D8;
},
{
glyphname = infinity;
lastChange = "2020-03-13 21:34:02 +0000";
layers = (
{
layerId = "E64FF656-58E6-4C13-B3CC-343A43FBFB06";
paths = (
{
closed = 1;
nodes = (
"1398 583 LINE",
"1398 808.333 OFFCURVE",
"1265.667 955 OFFCURVE",
"1063 955 CURVE SMOOTH",
"931.667 955 OFFCURVE",
"823.667 878.333 OFFCURVE",
"739 725 CURVE",
"652.333 895.667 OFFCURVE",
"543.333 964 OFFCURVE",
"406 964 CURVE SMOOTH",
"219.333 964 OFFCURVE",
"81 809 OFFCURVE",
"81 597 CURVE SMOOTH",
"81 375.667 OFFCURVE",
"212.667 226 OFFCURVE",
"406 226 CURVE SMOOTH",
"540.667 226 OFFCURVE",
"651.667 302.333 OFFCURVE",
"739 455 CURVE",
"820.333 295.667 OFFCURVE",
"932.333 216 OFFCURVE",
"1075 216 CURVE SMOOTH",
"1257.667 216 OFFCURVE",
"1398 376.333 OFFCURVE",
"1398 583 CURVE"
);
},
{
closed = 1;
nodes = (
"1051 782 LINE",
"1145.667 782 OFFCURVE",
"1208 702.333 OFFCURVE",
"1208 585 CURVE SMOOTH",
"1208 470.333 OFFCURVE",
"1142 389 OFFCURVE",
"1050 389 CURVE SMOOTH",
"956.667 389 OFFCURVE",
"895.667 459.667 OFFCURVE",
"837 585 CURVE",
"899.667 716.333 OFFCURVE",
"971 782 OFFCURVE",
"1051 782 CURVE"
);
},
{
closed = 1;
nodes = (
"640 595 LINE",
"577.333 461.667 OFFCURVE",
"516.667 400 OFFCURVE",
"438 400 CURVE SMOOTH",
"335.333 400 OFFCURVE",
"271 483 OFFCURVE",
"271 595 CURVE SMOOTH",
"271 711 OFFCURVE",
"342.333 793 OFFCURVE",
"437 793 CURVE SMOOTH",
"517 793 OFFCURVE",
"569.333 745.667 OFFCURVE",
"640 595 CURVE"
);
}
);
width = 1460;
}
);
note = infinity;
unicode = 221E;
},
{
glyphname = plusminus;
lastChange = "2020-03-13 21:34:02 +0000";
layers = (
{
layerId = "E64FF656-58E6-4C13-B3CC-343A43FBFB06";
paths = (
{
closed = 1;
nodes = (
"712 707 LINE",
"1114 707 LINE",
"1114 930 LINE",
"712 930 LINE",
"712 1270 LINE",
"488 1270 LINE",
"488 930 LINE",
"87 930 LINE",
"87 707 LINE",
"488 707 LINE",
"488 366 LINE",
"712 366 LINE",
"712 707 LINE"
);
},
{
closed = 1;
nodes = (
"87 0 LINE",
"1114 0 LINE",
"1114 223 LINE",
"87 223 LINE",
"87 0 LINE"
);
}
);
width = 1124;
}
);
note = plusminus;
unicode = 00B1;
},
{
glyphname = lessequal;
lastChange = "2020-03-13 21:34:02 +0000";
layers = (
{
layerId = "E64FF656-58E6-4C13-B3CC-343A43FBFB06";
paths = (
{
closed = 1;
nodes = (
"87 631 LINE",
"1113 285 LINE",
"1113 512 LINE",
"281 791 LINE",
"1113 1071 LINE",
"1113 1298 LINE",
"87 952 LINE",
"87 631 LINE"
);
},
{
closed = 1;
nodes = (
"87 0 LINE",
"1111 0 LINE",
"1111 223 LINE",
"87 223 LINE",
"87 0 LINE"
);
}
);
width = 1124;
}
);
note = lessequal;
unicode = 2264;
},
{
glyphname = greaterequal;
lastChange = "2020-03-13 21:34:02 +0000";
layers = (
{
layerId = "E64FF656-58E6-4C13-B3CC-343A43FBFB06";
paths = (
{
closed = 1;
nodes = (
"87 285 LINE",
"1113 631 LINE",
"1113 952 LINE",
"87 1298 LINE",
"87 1071 LINE",
"918 791 LINE",
"87 512 LINE",
"87 285 LINE"
);
},
{
closed = 1;
nodes = (
"87 0 LINE",
"1113 0 LINE",
"1113 223 LINE",
"87 223 LINE",
"87 0 LINE"
);
}
);
width = 1124;
}
);
note = greaterequal;
unicode = 2265;
},
{
glyphname = yen;
lastChange = "2020-03-13 21:34:02 +0000";
layers = (
{
layerId = "E64FF656-58E6-4C13-B3CC-343A43FBFB06";
paths = (
{
closed = 1;
nodes = (
"797 691 LINE",
"1301 1409 LINE",
"1007 1409 LINE",
"617 813 LINE",
"463 1409 LINE",
"179 1409 LINE",
"403 691 LINE",
"127 691 LINE",
"99 545 LINE",
"436 545 LINE",
"404 383 LINE",
"67 383 LINE",
"39 236 LINE",
"375 236 LINE",
"329 0 LINE",
"601 0 LINE",
"647 236 LINE",
"985 236 LINE",
"1013 383 LINE",
"675 383 LINE",
"707 545 LINE",
"1045 545 LINE",
"1073 691 LINE",
"797 691 LINE"
);
}
);
width = 1139;
}
);
note = yen;
unicode = 00A5;
},
{
glyphname = mu1;
lastChange = "2020-03-13 21:34:02 +0000";
layers = (
{
layerId = "E64FF656-58E6-4C13-B3CC-343A43FBFB06";
paths = (
{
closed = 1;
nodes = (
"875 -20 LINE",
"929.667 -20 OFFCURVE",
"992.333 -11.667 OFFCURVE",
"1063 5 CURVE",
"1079 198 LINE",
"1063.667 193.333 OFFCURVE",
"1048.333 191 OFFCURVE",
"1033 191 CURVE SMOOTH",
"999.667 191 OFFCURVE",
"983 214 OFFCURVE",
"983 260 CURVE SMOOTH",
"983 273.333 OFFCURVE",
"986 295 OFFCURVE",
"992 325 CURVE SMOOTH",
"1139 1082 LINE",
"858 1082 LINE",
"746 504 LINE SMOOTH",
"711.333 302.667 OFFCURVE",
"627 193 OFFCURVE",
"519 193 CURVE SMOOTH",
"435.667 193 OFFCURVE",
"394 248 OFFCURVE",
"394 358 CURVE SMOOTH",
"395.333 398 OFFCURVE",
"399.667 437.667 OFFCURVE",
"407 477 CURVE SMOOTH",
"525 1082 LINE",
"244 1082 LINE",
"-47 -425 LINE",
"233 -425 LINE",
"306 -45 LINE",
"322 70 LINE",
"328 70 LINE",
"348 15.333 OFFCURVE",
"400.333 -20 OFFCURVE",
"479 -20 CURVE SMOOTH",
"587 -20 OFFCURVE",
"652 48 OFFCURVE",
"708 164 CURVE",
"712 164 LINE",
"710 143 LINE",
"710 122 LINE SMOOTH",
"710 19.333 OFFCURVE",
"757.667 -20 OFFCURVE",
"875 -20 CURVE"
);
}
);
width = 1180;
}
);
note = mu1;
unicode = 00B5;
},
{
glyphname = partialdiff;
lastChange = "2020-03-13 21:34:02 +0000";
layers = (
{
layerId = "E64FF656-58E6-4C13-B3CC-343A43FBFB06";
paths = (
{
closed = 1;
nodes = (
"955 907 LINE",
"955 1269.667 OFFCURVE",
"809.667 1468 OFFCURVE",
"559 1468 CURVE SMOOTH",
"482.333 1468 OFFCURVE",
"411.667 1449 OFFCURVE",
"347 1411 CURVE",
"302 1206 LINE",
"351.333 1243.333 OFFCURVE",
"440.333 1274 OFFCURVE",
"511 1274 CURVE SMOOTH",
"659 1274 OFFCURVE",
"728 1141.667 OFFCURVE",
"728 911 CURVE SMOOTH",
"728 863 LINE",
"727 821 LINE",
"723 821 LINE",
"681.667 922.333 OFFCURVE",
"595.333 983 OFFCURVE",
"494 983 CURVE SMOOTH",
"332.667 983 OFFCURVE",
"201.833 881.833 OFFCURVE",
"122.5 682.5 CURVE SMOOTH",
"82.833 582.833 OFFCURVE",
"63 479 OFFCURVE",
"63 371 CURVE SMOOTH",
"63 115 OFFCURVE",
"185.667 -25 OFFCURVE",
"403 -25 CURVE SMOOTH",
"573.667 -25 OFFCURVE",
"709.167 60 OFFCURVE",
"804.5 224 CURVE SMOOTH",
"899.833 388 OFFCURVE",
"955 640.333 OFFCURVE",
"955 907 CURVE"
);
},
{
closed = 1;
nodes = (
"695 645 LINE",
"665.667 382.333 OFFCURVE",
"558.333 170 OFFCURVE",
"433 170 CURVE SMOOTH",
"350.333 170 OFFCURVE",
"300 245.667 OFFCURVE",
"300 375 CURVE SMOOTH",
"300 515 OFFCURVE",
"349 676.5 OFFCURVE",
"421 754.5 CURVE SMOOTH",
"457 793.5 OFFCURVE",
"496.333 813 OFFCURVE",
"539 813 CURVE SMOOTH",
"612.333 813 OFFCURVE",
"675 745 OFFCURVE",
"695 645 CURVE"
);
}
);
width = 1012;
}
);
note = partialdiff;
unicode = 2202;
},
{
glyphname = summation;
lastChange = "2020-03-13 21:34:02 +0000";
layers = (
{
layerId = "E64FF656-58E6-4C13-B3CC-343A43FBFB06";
paths = (
{
closed = 1;
nodes = (
"164 -425 LINE",
"1378 -425 LINE",
"1378 -197 LINE",
"535 -197 LINE",
"1083 545 LINE",
"555 1182 LINE",
"1321 1182 LINE",
"1321 1409 LINE",
"184 1409 LINE",
"184 1257 LINE",
"768 547 LINE",
"164 -265 LINE",
"164 -425 LINE"
);
}
);
width = 1460;
}
);
note = summation;
unicode = 2211;
},
{
glyphname = product;
lastChange = "2020-03-13 21:34:02 +0000";
layers = (
{
layerId = "E64FF656-58E6-4C13-B3CC-343A43FBFB06";
paths = (
{
closed = 1;
nodes = (
"1220 -425 LINE",
"1502 -425 LINE",
"1502 1409 LINE",
"224 1409 LINE",
"224 -425 LINE",
"519 -425 LINE",
"519 1165 LINE",
"1220 1165 LINE",
"1220 -425 LINE"
);
}
);
width = 1686;
}
);
note = product;
unicode = 220F;
},
{
glyphname = integral;
lastChange = "2020-03-13 21:34:02 +0000";
layers = (
{
layerId = "E64FF656-58E6-4C13-B3CC-343A43FBFB06";
paths = (
{
closed = 1;
nodes = (
"26 -425 LINE",
"278 -425 OFFCURVE",
"426 -286.667 OFFCURVE",
"426 -44 CURVE SMOOTH",
"426 1079 LINE SMOOTH",
"426 1204.333 OFFCURVE",
"480.333 1274 OFFCURVE",
"583 1274 CURVE SMOOTH",
"629 1274 OFFCURVE",
"668.667 1265.667 OFFCURVE",
"702 1249 CURVE",
"702 1468 LINE",
"657.333 1480.667 OFFCURVE",
"605.667 1487 OFFCURVE",
"547 1487 CURVE SMOOTH",
"293.667 1487 OFFCURVE",
"145 1346 OFFCURVE",
"145 1106 CURVE SMOOTH",
"145 -15 LINE SMOOTH",
"145 -146.333 OFFCURVE",
"93.333 -212 OFFCURVE",
"-10 -212 CURVE SMOOTH",
"-45.333 -212 OFFCURVE",
"-85 -203.667 OFFCURVE",
"-129 -187 CURVE",
"-129 -404 LINE",
"-102.333 -413.333 OFFCURVE",
"-31.333 -425 OFFCURVE",
"26 -425 CURVE"
);
}
);
width = 561;
}
);
note = integral;
unicode = 222B;
},
{
glyphname = ordfeminine;
lastChange = "2020-03-13 21:34:02 +0000";
layers = (
{
layerId = "E64FF656-58E6-4C13-B3CC-343A43FBFB06";
paths = (
{
closed = 1;
nodes = (
"679 697 LINE",
"729.667 697 OFFCURVE",
"766.667 701 OFFCURVE",
"790 709 CURVE",
"800 811 LINE",
"784 807 OFFCURVE",
"770.333 805 OFFCURVE",
"759 805 CURVE SMOOTH",
"724.333 805 OFFCURVE",
"707 819.333 OFFCURVE",
"707 848 CURVE",
"712 895 LINE",
"751.333 1087 OFFCURVE",
"771.667 1188.167 OFFCURVE",
"773 1198.5 CURVE SMOOTH",
"774.333 1208.833 OFFCURVE",
"775 1218.333 OFFCURVE",
"775 1227 CURVE SMOOTH",
"775 1357.667 OFFCURVE",
"695 1418 OFFCURVE",
"515 1418 CURVE SMOOTH",
"331 1418 OFFCURVE",
"235.667 1344.333 OFFCURVE",
"209 1227 CURVE",
"380 1208 LINE",
"396 1268 OFFCURVE",
"432 1299 OFFCURVE",
"512 1299 CURVE SMOOTH",
"566.667 1299 OFFCURVE",
"594 1271.667 OFFCURVE",
"594 1217 CURVE SMOOTH",
"594 1200.333 OFFCURVE",
"591 1180 OFFCURVE",
"585 1156 CURVE SMOOTH",
"580 1130 LINE",
"457 1128 LINE SMOOTH",
"207.667 1124 OFFCURVE",
"104 1040 OFFCURVE",
"104 884 CURVE SMOOTH",
"104 768 OFFCURVE",
"185.333 689 OFFCURVE",
"304 689 CURVE SMOOTH",
"405.333 689 OFFCURVE",
"467.333 720 OFFCURVE",
"542 836 CURVE",
"545 836 LINE",
"542 795 LINE",
"542 733.667 OFFCURVE",
"591 697 OFFCURVE",
"679 697 CURVE"
);
},
{
closed = 1;
nodes = (
"561 1029 LINE",
"545 969 LINE SMOOTH",
"521 874.333 OFFCURVE",
"456.333 816 OFFCURVE",
"387 816 CURVE SMOOTH",
"336.333 816 OFFCURVE",
"298 846 OFFCURVE",
"298 914 CURVE SMOOTH",
"298 986 OFFCURVE",
"360.333 1024.333 OFFCURVE",
"463 1027 CURVE SMOOTH",
"561 1029 LINE"
);
}
);
width = 758;
}
);
note = ordfeminine;
unicode = 00AA;
},
{
glyphname = ordmasculine;
lastChange = "2020-03-13 21:34:02 +0000";
layers = (
{
layerId = "E64FF656-58E6-4C13-B3CC-343A43FBFB06";
paths = (
{
closed = 1;
nodes = (
"828 1142 LINE",
"828 1314 OFFCURVE",
"719 1418 OFFCURVE",
"515 1418 CURVE SMOOTH",
"268.333 1418 OFFCURVE",
"102 1242.667 OFFCURVE",
"102 980 CURVE SMOOTH",
"102 801.333 OFFCURVE",
"219.667 689 OFFCURVE",
"409 689 CURVE SMOOTH",
"657 689 OFFCURVE",
"828 871.333 OFFCURVE",
"828 1142 CURVE"
);
},
{
closed = 1;
nodes = (
"625 1128 LINE",
"618.333 1030.667 OFFCURVE",
"603.5 973.5 OFFCURVE",
"585.5 931.5 CURVE SMOOTH",
"576.5 910.5 OFFCURVE",
"565.167 891.667 OFFCURVE",
"551.5 875 CURVE SMOOTH",
"524.167 841.667 OFFCURVE",
"495.667 826 OFFCURVE",
"429 826 CURVE SMOOTH",
"349 826 OFFCURVE",
"306 881.667 OFFCURVE",
"306 987 CURVE SMOOTH",
"306 1147.812 OFFCURVE",
"359.813 1280 OFFCURVE",
"501 1280 CURVE SMOOTH",
"582.333 1280 OFFCURVE",
"625 1225.333 OFFCURVE",
"625 1128 CURVE"
);
}
);
width = 748;
}
);
note = ordmasculine;
unicode = 00BA;
},
{
glyphname = Ohm;
lastChange = "2020-03-13 21:34:02 +0000";
layers = (
{
layerId = "E64FF656-58E6-4C13-B3CC-343A43FBFB06";
paths = (
{
closed = 1;
nodes = (
"795 1430 LINE",
"375 1430 OFFCURVE",
"121 1203.667 OFFCURVE",
"121 829 CURVE SMOOTH",
"121 542.333 OFFCURVE",
"258.333 345 OFFCURVE",
"537 217 CURVE",
"463.667 224.333 OFFCURVE",
"405.667 228 OFFCURVE",
"363 228 CURVE SMOOTH",
"93 228 LINE",
"93 0 LINE",
"729 0 LINE",
"729 309 LINE",
"521 410.333 OFFCURVE",
"416 552.667 OFFCURVE",
"416 774 CURVE SMOOTH",
"416 1044.667 OFFCURVE",
"556 1198 OFFCURVE",
"796 1198 CURVE SMOOTH",
"1037.333 1198 OFFCURVE",
"1176 1043.333 OFFCURVE",
"1176 774 CURVE SMOOTH",
"1176 556.667 OFFCURVE",
"1077.667 413 OFFCURVE",
"867 309 CURVE",
"867 0 LINE",
"1496 0 LINE",
"1496 228 LINE",
"1228 228 LINE SMOOTH",
"1187.333 228 OFFCURVE",
"1130.333 224.333 OFFCURVE",
"1057 217 CURVE",
"1331.667 346.333 OFFCURVE",
"1468 544 OFFCURVE",
"1468 828 CURVE SMOOTH",
"1468 1201.333 OFFCURVE",
"1215 1430 OFFCURVE",
"795 1430 CURVE"
);
}
);
width = 1573;
}
);
note = Ohm;
unicode = 2126;
},
{
glyphname = ae;
lastChange = "2020-03-13 21:34:02 +0000";
layers = (
{
layerId = "E64FF656-58E6-4C13-B3CC-343A43FBFB06";
paths = (
{
closed = 1;
nodes = (
"1027 476 LINE",
"1727 476 LINE",
"1743 553.333 OFFCURVE",
"1751 625 OFFCURVE",
"1751 691 CURVE SMOOTH",
"1751 952.333 OFFCURVE",
"1593.667 1102 OFFCURVE",
"1315 1102 CURVE SMOOTH",
"1180.333 1102 OFFCURVE",
"1066.333 1064.333 OFFCURVE",
"973 989 CURVE",
"911 1064.333 OFFCURVE",
"811 1102 OFFCURVE",
"673 1102 CURVE SMOOTH",
"409 1102 OFFCURVE",
"247.333 1000 OFFCURVE",
"202 808 CURVE",
"465 777 LINE",
"487.667 869 OFFCURVE",
"542.667 919 OFFCURVE",
"668 919 CURVE SMOOTH",
"752.667 919 OFFCURVE",
"795 876.333 OFFCURVE",
"795 791 CURVE SMOOTH",
"795 767 OFFCURVE",
"788 723.333 OFFCURVE",
"774 660 CURVE",
"583 660 LINE SMOOTH",
"222.333 660 OFFCURVE",
"42 532.667 OFFCURVE",
"42 278 CURVE SMOOTH",
"42 103.333 OFFCURVE",
"162.333 -20 OFFCURVE",
"349 -20 CURVE SMOOTH",
"507.667 -20 OFFCURVE",
"594.167 8.167 OFFCURVE",
"677.5 71.5 CURVE SMOOTH",
"719.167 103.167 OFFCURVE",
"757 145.667 OFFCURVE",
"791 199 CURVE",
"855.667 53 OFFCURVE",
"987 -20 OFFCURVE",
"1185 -20 CURVE SMOOTH",
"1425 -20 OFFCURVE",
"1562 51 OFFCURVE",
"1662 263 CURVE",
"1417 337 LINE",
"1373 224.333 OFFCURVE",
"1302 168 OFFCURVE",
"1204 168 CURVE SMOOTH",
"1082.667 168 OFFCURVE",
"1020 245.667 OFFCURVE",
"1020 387 CURVE SMOOTH",
"1020 421 OFFCURVE",
"1022.333 450.667 OFFCURVE",
"1027 476 CURVE"
);
},
{
closed = 1;
nodes = (
"743 500 LINE",
"721 411 LINE SMOOTH",
"685 269.667 OFFCURVE",
"585.667 176 OFFCURVE",
"475 176 CURVE SMOOTH",
"388.333 176 OFFCURVE",
"341 229 OFFCURVE",
"341 325 CURVE SMOOTH",
"341 435.667 OFFCURVE",
"431.333 500 OFFCURVE",
"582 500 CURVE SMOOTH",
"743 500 LINE"
);
},
{
closed = 1;
nodes = (
"1491 663 LINE",
"1060 663 LINE",
"1097.333 833.667 OFFCURVE",
"1187 924 OFFCURVE",
"1315 924 CURVE SMOOTH",
"1421.667 924 OFFCURVE",
"1494 861.667 OFFCURVE",
"1494 719 CURVE",
"1491 663 LINE"
);
}
);
width = 1821;
}
);
note = ae;
unicode = 00E6;
},
{
glyphname = oslash;
lastChange = "2020-03-13 21:34:02 +0000";
layers = (
{
layerId = "E64FF656-58E6-4C13-B3CC-343A43FBFB06";
paths = (
{
closed = 1;
nodes = (
"42 -38 LINE",
"233 -38 LINE",
"291 29 LINE",
"361.667 -3.667 OFFCURVE",
"443 -20 OFFCURVE",
"535 -20 CURVE SMOOTH",
"785.667 -20 OFFCURVE",
"994.833 100.333 OFFCURVE",
"1103.5 315 CURVE SMOOTH",
"1157.833 422.333 OFFCURVE",
"1185 545 OFFCURVE",
"1185 683 CURVE SMOOTH",
"1185 797.667 OFFCURVE",
"1154 890 OFFCURVE",
"1092 960 CURVE",
"1226 1116 LINE",
"1037 1116 LINE",
"977 1047 LINE",
"901 1083 OFFCURVE",
"810 1101 OFFCURVE",
"704 1101 CURVE SMOOTH",
"453.333 1101 OFFCURVE",
"248.5 981.667 OFFCURVE",
"142.5 775 CURVE SMOOTH",
"89.5 671.667 OFFCURVE",
"63 553 OFFCURVE",
"63 419 CURVE SMOOTH",
"63 291.667 OFFCURVE",
"99.667 190 OFFCURVE",
"173 114 CURVE",
"42 -38 LINE"
);
},
{
closed = 1;
nodes = (
"358 431 LINE",
"358 581.667 OFFCURVE",
"411.5 769 OFFCURVE",
"501.5 849 CURVE SMOOTH",
"546.5 889 OFFCURVE",
"607 909 OFFCURVE",
"683 909 CURVE SMOOTH",
"741.667 909 OFFCURVE",
"787.667 894.333 OFFCURVE",
"821 865 CURVE",
"366 338 LINE",
"360.667 366.667 OFFCURVE",
"358 397.667 OFFCURVE",
"358 431 CURVE"
);
},
{
closed = 1;
nodes = (
"891 662 LINE",
"881.667 466 OFFCURVE",
"830.833 303.833 OFFCURVE",
"743.5 228.5 CURVE SMOOTH",
"699.833 190.833 OFFCURVE",
"640.667 172 OFFCURVE",
"566 172 CURVE SMOOTH",
"516.667 172 OFFCURVE",
"475.667 183.333 OFFCURVE",
"443 206 CURVE",
"887 722 LINE",
"889.667 703.333 OFFCURVE",
"891 683.333 OFFCURVE",
"891 662 CURVE"
);
}
);
width = 1251;
}
);
note = oslash;
unicode = 00F8;
},
{
glyphname = questiondown;
lastChange = "2020-03-13 21:34:02 +0000";
layers = (
{
layerId = "E64FF656-58E6-4C13-B3CC-343A43FBFB06";
paths = (
{
closed = 1;
nodes = (
"490 -348 LINE",
"786 -348 OFFCURVE",
"973 -220.667 OFFCURVE",
"1051 34 CURVE",
"785 74 LINE",
"750.333 -54.667 OFFCURVE",
"657.333 -119 OFFCURVE",
"506 -119 CURVE SMOOTH",
"371.333 -119 OFFCURVE",
"309 -57 OFFCURVE",
"309 27 CURVE SMOOTH",
"309 79 OFFCURVE",
"322 117.833 OFFCURVE",
"358 158.5 CURVE SMOOTH",
"394 199.167 OFFCURVE",
"453 240.667 OFFCURVE",
"545 298 CURVE SMOOTH",
"702.333 395.333 OFFCURVE",
"749.667 444.833 OFFCURVE",
"791 521.5 CURVE SMOOTH",
"811.667 559.833 OFFCURVE",
"826.667 604.667 OFFCURVE",
"836 656 CURVE",
"569 656 LINE",
"562.333 602.667 OFFCURVE",
"540 563.833 OFFCURVE",
"504 528.5 CURVE SMOOTH",
"486 510.833 OFFCURVE",
"449.333 483.667 OFFCURVE",
"394 447 CURVE",
"184.667 331 OFFCURVE",
"113.5 262.667 OFFCURVE",
"63.5 168 CURVE SMOOTH",
"38.5 120.667 OFFCURVE",
"26 67 OFFCURVE",
"26 7 CURVE SMOOTH",
"26 -215.667 OFFCURVE",
"204.667 -348 OFFCURVE",
"490 -348 CURVE"
);
},
{
closed = 1;
nodes = (
"926 1082 LINE",
"637 1082 LINE",
"585 812 LINE",
"874 812 LINE",
"926 1082 LINE"
);
}
);
width = 1251;
}
);
note = questiondown;
unicode = 00BF;
},
{
glyphname = exclamdown;
lastChange = "2020-03-13 21:34:02 +0000";
layers = (
{
layerId = "E64FF656-58E6-4C13-B3CC-343A43FBFB06";
paths = (
{
closed = 1;
nodes = (
"247 812 LINE",
"535 812 LINE",
"588 1082 LINE",
"300 1082 LINE",
"247 812 LINE"
);
},
{
closed = 1;
nodes = (
"20 -327 LINE",
"314 -327 LINE",
"472 654 LINE",
"242 654 LINE",
"20 -327 LINE"
);
}
);
width = 682;
}
);
note = exclamdown;
unicode = 00A1;
},
{
glyphname = logicalnot;
lastChange = "2020-03-13 21:34:02 +0000";
layers = (
{
layerId = "E64FF656-58E6-4C13-B3CC-343A43FBFB06";
paths = (
{
closed = 1;
nodes = (
"878 141 LINE",
"1102 141 LINE",
"1102 793 LINE",
"75 793 LINE",
"75 569 LINE",
"878 569 LINE",
"878 141 LINE"
);
}
);
width = 1196;
}
);
note = logicalnot;
unicode = 00AC;
},
{
glyphname = radical;
lastChange = "2020-03-13 21:34:02 +0000";
layers = (
{
layerId = "E64FF656-58E6-4C13-B3CC-343A43FBFB06";
paths = (
{
closed = 1;
nodes = (
"746 -25 LINE",
"1252 1620 LINE",
"1066 1620 LINE",
"654 260 LINE",
"435 895 LINE",
"124 895 LINE",
"124 729 LINE",
"308 729 LINE",
"578 -25 LINE",
"746 -25 LINE"
);
}
);
width = 1124;
}
);
note = radical;
unicode = 221A;
},
{
glyphname = florin;
lastChange = "2020-03-13 21:34:02 +0000";
layers = (
{
layerId = "E64FF656-58E6-4C13-B3CC-343A43FBFB06";
paths = (
{
closed = 1;
nodes = (
"756 892 LINE",
"969 892 LINE",
"1006 1082 LINE",
"793 1082 LINE",
"809 1167 LINE SMOOTH",
"826.333 1253.667 OFFCURVE",
"859.667 1296 OFFCURVE",
"949 1296 CURVE SMOOTH",
"977 1296 OFFCURVE",
"1030.333 1288.667 OFFCURVE",
"1045 1286 CURVE",
"1081 1467 LINE",
"1026.333 1478.333 OFFCURVE",
"974.667 1484 OFFCURVE",
"926 1484 CURVE SMOOTH",
"696.667 1484 OFFCURVE",
"575 1401.667 OFFCURVE",
"535 1195 CURVE SMOOTH",
"513 1082 LINE",
"355 1082 LINE",
"318 892 LINE",
"476 892 LINE",
"218 -425 LINE",
"498 -425 LINE",
"756 892 LINE"
);
}
);
width = 1139;
}
);
note = florin;
unicode = 0192;
},
{
glyphname = approxequal;
lastChange = "2020-03-13 21:34:02 +0000";
layers = (
{
layerId = "E64FF656-58E6-4C13-B3CC-343A43FBFB06";
paths = (
{
closed = 1;
nodes = (
"839 756 LINE",
"951 756 OFFCURVE",
"1022 776 OFFCURVE",
"1106 836 CURVE",
"1106 1055 LINE",
"1030 993.667 OFFCURVE",
"947.333 963 OFFCURVE",
"858 963 CURVE SMOOTH",
"808.667 963 OFFCURVE",
"738 978.333 OFFCURVE",
"646 1009 CURVE SMOOTH",
"547.333 1043.667 OFFCURVE",
"445.667 1079 OFFCURVE",
"339 1079 CURVE SMOOTH",
"231.667 1079 OFFCURVE",
"141.333 1051 OFFCURVE",
"68 995 CURVE",
"68 782 LINE",
"161.333 847.333 OFFCURVE",
"233.667 870 OFFCURVE",
"323 870 CURVE SMOOTH",
"382.333 870 OFFCURVE",
"456 854.333 OFFCURVE",
"544 823 CURVE SMOOTH",
"644 788.333 OFFCURVE",
"739 756 OFFCURVE",
"839 756 CURVE"
);
},
{
closed = 1;
nodes = (
"839 274 LINE",
"953.667 274 OFFCURVE",
"1020.667 295.333 OFFCURVE",
"1106 354 CURVE",
"1106 573 LINE",
"1030 511.667 OFFCURVE",
"947.333 481 OFFCURVE",
"858 481 CURVE SMOOTH",
"839.333 481 OFFCURVE",
"818.333 483.167 OFFCURVE",
"795 487.5 CURVE SMOOTH",
"771.667 491.833 OFFCURVE",
"726 504.667 OFFCURVE",
"658 526 CURVE SMOOTH",
"556.667 560.667 OFFCURVE",
"449.667 598 OFFCURVE",
"339 598 CURVE SMOOTH",
"233.667 598 OFFCURVE",
"143.333 570 OFFCURVE",
"68 514 CURVE",
"68 301 LINE",
"154.667 361 OFFCURVE",
"228.333 389 OFFCURVE",
"323 389 CURVE SMOOTH",
"384.333 389 OFFCURVE",
"458 374 OFFCURVE",
"544 344 CURVE",
"660 297.333 OFFCURVE",
"758.333 274 OFFCURVE",
"839 274 CURVE"
);
}
);
width = 1124;
}
);
note = approxequal;
unicode = 2248;
},
{
glyphname = uni2206;
lastChange = "2020-03-13 21:34:02 +0000";
layers = (
{
layerId = "E64FF656-58E6-4C13-B3CC-343A43FBFB06";
paths = (
{
closed = 1;
nodes = (
"43 0 LINE",
"1209 0 LINE",
"1209 215 LINE",
"808 1409 LINE",
"440 1409 LINE",
"43 215 LINE",
"43 0 LINE"
);
},
{
closed = 1;
nodes = (
"624 1208 LINE",
"626 1198 OFFCURVE",
"723.333 872.333 OFFCURVE",
"916 231 CURVE",
"336 231 LINE",
"543 920 LINE",
"615 1174 LINE",
"624 1208 LINE"
);
}
);
width = 1253;
}
);
note = uni2206;
unicode = 2206;
},
{
glyphname = guillemotleft;
lastChange = "2020-03-13 21:34:02 +0000";
layers = (
{
layerId = "E64FF656-58E6-4C13-B3CC-343A43FBFB06";
paths = (
{
closed = 1;
nodes = (
"722 139 LINE",
"954 139 LINE",
"959 178 LINE",
"771 531 LINE",
"1100 897 LINE",
"1106 938 LINE",
"867 938 LINE",
"544 571 LINE",
"530 500 LINE",
"722 139 LINE"
);
},
{
closed = 1;
nodes = (
"264 139 LINE",
"496 139 LINE",
"501 178 LINE",
"313 531 LINE",
"642 897 LINE",
"648 938 LINE",
"409 938 LINE",
"86 571 LINE",
"72 500 LINE",
"264 139 LINE"
);
}
);
width = 1139;
}
);
note = guillemotleft;
unicode = 00AB;
},
{
glyphname = guillemotright;
lastChange = "2020-03-13 21:34:02 +0000";
layers = (
{
layerId = "E64FF656-58E6-4C13-B3CC-343A43FBFB06";
paths = (
{
closed = 1;
nodes = (
"422 938 LINE",
"190 938 LINE",
"185 899 LINE",
"373 546 LINE",
"44 180 LINE",
"38 139 LINE",
"277 139 LINE",
"600 506 LINE",
"614 577 LINE",
"422 938 LINE"
);
},
{
closed = 1;
nodes = (
"880 938 LINE",
"648 938 LINE",
"643 899 LINE",
"831 546 LINE",
"502 180 LINE",
"496 139 LINE",
"735 139 LINE",
"1058 506 LINE",
"1072 577 LINE",
"880 938 LINE"
);
}
);
width = 1139;
}
);
note = guillemotright;
unicode = 00BB;
},
{
glyphname = ellipsis;
lastChange = "2020-03-13 21:34:02 +0000";
layers = (
{
layerId = "E64FF656-58E6-4C13-B3CC-343A43FBFB06";
paths = (
{
closed = 1;
nodes = (
"133 0 LINE",
"422 0 LINE",
"481 305 LINE",
"192 305 LINE",
"133 0 LINE"
);
},
{
closed = 1;
nodes = (
"787 0 LINE",
"1076 0 LINE",
"1135 305 LINE",
"846 305 LINE",
"787 0 LINE"
);
},
{
closed = 1;
nodes = (
"1437 0 LINE",
"1726 0 LINE",
"1785 305 LINE",
"1496 305 LINE",
"1437 0 LINE"
);
}
);
width = 2048;
}
);
note = ellipsis;
unicode = 2026;
},
{
glyphname = OE;
lastChange = "2020-03-13 21:34:02 +0000";
layers = (
{
layerId = "E64FF656-58E6-4C13-B3CC-343A43FBFB06";
paths = (
{
closed = 1;
nodes = (
"917 0 LINE",
"1866 0 LINE",
"1911 231 LINE",
"1203 231 LINE",
"1276 606 LINE",
"1882 606 LINE",
"1925 827 LINE",
"1319 827 LINE",
"1388 1182 LINE",
"2055 1182 LINE",
"2099 1409 LINE",
"1150 1409 LINE",
"1087 1415 LINE SMOOTH",
"1047.667 1418.333 OFFCURVE",
"1001.667 1420 OFFCURVE",
"949 1420 CURVE SMOOTH",
"703.667 1420 OFFCURVE",
"487.167 1334.5 OFFCURVE",
"334.5 1176.5 CURVE SMOOTH",
"181.833 1018.5 OFFCURVE",
"103 799.667 OFFCURVE",
"103 573 CURVE SMOOTH",
"103 202.333 OFFCURVE",
"324.667 -10 OFFCURVE",
"706 -10 CURVE SMOOTH",
"804.667 -10 OFFCURVE",
"875 -6.667 OFFCURVE",
"917 0 CURVE"
);
},
{
closed = 1;
nodes = (
"736 222 LINE",
"521.333 222 OFFCURVE",
"403 344.333 OFFCURVE",
"403 563 CURVE SMOOTH",
"403 732.333 OFFCURVE",
"453.667 906.667 OFFCURVE",
"547 1020 CURVE SMOOTH",
"640.333 1133.333 OFFCURVE",
"769.667 1188 OFFCURVE",
"939 1188 CURVE SMOOTH",
"967 1188 OFFCURVE",
"1047.667 1182.333 OFFCURVE",
"1089 1169 CURVE",
"909 242 LINE",
"861.667 228.667 OFFCURVE",
"804 222 OFFCURVE",
"736 222 CURVE"
);
}
);
width = 2048;
}
);
note = OE;
unicode = 0152;
},
{
glyphname = oe;
lastChange = "2020-03-13 21:34:02 +0000";
layers = (
{
layerId = "E64FF656-58E6-4C13-B3CC-343A43FBFB06";
paths = (
{
closed = 1;
nodes = (
"1163 476 LINE",
"1863 476 LINE",
"1879 553.333 OFFCURVE",
"1887 625 OFFCURVE",
"1887 691 CURVE SMOOTH",
"1887 952.333 OFFCURVE",
"1729.667 1102 OFFCURVE",
"1451 1102 CURVE SMOOTH",
"1297 1102 OFFCURVE",
"1169.333 1054.667 OFFCURVE",
"1068 960 CURVE",
"974.667 1058.667 OFFCURVE",
"865.667 1101 OFFCURVE",
"699 1101 CURVE SMOOTH",
"448.333 1101 OFFCURVE",
"243.5 981.667 OFFCURVE",
"137.5 775 CURVE SMOOTH",
"84.5 671.667 OFFCURVE",
"58 553 OFFCURVE",
"58 419 CURVE SMOOTH",
"58 147 OFFCURVE",
"239.333 -20 OFFCURVE",
"530 -20 CURVE SMOOTH",
"714 -20 OFFCURVE",
"864.333 32 OFFCURVE",
"955 132 CURVE",
"1034.333 30.667 OFFCURVE",
"1156.333 -20 OFFCURVE",
"1321 -20 CURVE SMOOTH",
"1561 -20 OFFCURVE",
"1698 51 OFFCURVE",
"1798 263 CURVE",
"1553 337 LINE",
"1509 224.333 OFFCURVE",
"1438 168 OFFCURVE",
"1340 168 CURVE SMOOTH",
"1218.667 168 OFFCURVE",
"1156 245.667 OFFCURVE",
"1156 387 CURVE SMOOTH",
"1156 421 OFFCURVE",
"1158.333 450.667 OFFCURVE",
"1163 476 CURVE"
);
},
{
closed = 1;
nodes = (
"886 662 LINE",
"878 476.667 OFFCURVE",
"827.667 308.5 OFFCURVE",
"741 230.5 CURVE SMOOTH",
"697.667 191.5 OFFCURVE",
"638 172 OFFCURVE",
"562 172 CURVE SMOOTH",
"422 172 OFFCURVE",
"353 265.667 OFFCURVE",
"353 431 CURVE SMOOTH",
"353 581.667 OFFCURVE",
"406.5 769 OFFCURVE",
"496.5 849 CURVE SMOOTH",
"541.5 889 OFFCURVE",
"602 909 OFFCURVE",
"678 909 CURVE SMOOTH",
"816.667 909 OFFCURVE",
"886 826.667 OFFCURVE",
"886 662 CURVE"
);
},
{
closed = 1;
nodes = (
"1627 663 LINE",
"1196 663 LINE",
"1233.333 833.667 OFFCURVE",
"1323 924 OFFCURVE",
"1451 924 CURVE SMOOTH",
"1557.667 924 OFFCURVE",
"1630 861.667 OFFCURVE",
"1630 719 CURVE",
"1627 663 LINE"
);
}
);
width = 1933;
}
);
note = oe;
unicode = 0153;
},
{
glyphname = endash;
lastChange = "2020-03-13 21:34:02 +0000";
layers = (
{
layerId = "E64FF656-58E6-4C13-B3CC-343A43FBFB06";
paths = (
{
closed = 1;
nodes = (
"44 448 LINE",
"1058 448 LINE",
"1090 651 LINE",
"76 651 LINE",
"44 448 LINE"
);
}
);
width = 1139;
}
);
note = endash;
unicode = 2013;
},
{
glyphname = emdash;
lastChange = "2020-03-13 21:34:02 +0000";
layers = (
{
layerId = "E64FF656-58E6-4C13-B3CC-343A43FBFB06";
paths = (
{
closed = 1;
nodes = (
"-19 448 LINE",
"2028 448 LINE",
"2067 651 LINE",
"19 651 LINE",
"-19 448 LINE"
);
}
);
width = 2048;
}
);
note = emdash;
unicode = 2014;
},
{
glyphname = quotedblleft;
lastChange = "2020-03-13 21:34:02 +0000";
layers = (
{
layerId = "E64FF656-58E6-4C13-B3CC-343A43FBFB06";
paths = (
{
closed = 1;
nodes = (
"617 831 LINE",
"906 831 LINE",
"957 1092 LINE",
"830 1092 LINE",
"850 1190.667 OFFCURVE",
"921.667 1307.667 OFFCURVE",
"1023 1409 CURVE",
"841 1409 LINE",
"739.667 1301 OFFCURVE",
"685.667 1182 OFFCURVE",
"655 1026 CURVE SMOOTH",
"617 831 LINE"
);
},
{
closed = 1;
nodes = (
"189 831 LINE",
"476 831 LINE",
"527 1092 LINE",
"400 1092 LINE",
"420 1190.667 OFFCURVE",
"491.667 1307.667 OFFCURVE",
"593 1409 CURVE",
"410 1409 LINE",
"315.333 1306.333 OFFCURVE",
"259 1190 OFFCURVE",
"227 1026 CURVE SMOOTH",
"189 831 LINE"
);
}
);
width = 1024;
}
);
note = quotedblleft;
unicode = 201C;
},
{
glyphname = quotedblright;
lastChange = "2020-03-13 21:34:02 +0000";
layers = (
{
layerId = "E64FF656-58E6-4C13-B3CC-343A43FBFB06";
paths = (
{
closed = 1;
nodes = (
"801 831 LINE",
"895.667 935 OFFCURVE",
"953 1049 OFFCURVE",
"985 1217 CURVE SMOOTH",
"1023 1409 LINE",
"736 1409 LINE",
"685 1149 LINE",
"812 1149 LINE",
"791.333 1046.333 OFFCURVE",
"726.333 940.333 OFFCURVE",
"617 831 CURVE",
"801 831 LINE"
);
},
{
closed = 1;
nodes = (
"371 831 LINE",
"473.667 943 OFFCURVE",
"524.333 1055.667 OFFCURVE",
"555 1217 CURVE SMOOTH",
"593 1409 LINE",
"306 1409 LINE",
"255 1149 LINE",
"382 1149 LINE",
"362 1049 OFFCURVE",
"297.667 943 OFFCURVE",
"189 831 CURVE",
"371 831 LINE"
);
}
);
width = 1024;
}
);
note = quotedblright;
unicode = 201D;
},
{
glyphname = quoteleft;
lastChange = "2020-03-13 21:34:02 +0000";
layers = (
{
layerId = "E64FF656-58E6-4C13-B3CC-343A43FBFB06";
paths = (
{
closed = 1;
nodes = (
"189 831 LINE",
"476 831 LINE",
"527 1092 LINE",
"400 1092 LINE",
"420 1190.667 OFFCURVE",
"491.667 1307.667 OFFCURVE",
"593 1409 CURVE",
"410 1409 LINE",
"315.333 1306.333 OFFCURVE",
"259 1190 OFFCURVE",
"227 1026 CURVE SMOOTH",
"189 831 LINE"
);
}
);
width = 569;
}
);
note = quoteleft;
unicode = 2018;
},
{
glyphname = quoteright;
lastChange = "2020-03-13 21:34:02 +0000";
layers = (
{
layerId = "E64FF656-58E6-4C13-B3CC-343A43FBFB06";
paths = (
{
closed = 1;
nodes = (
"371 831 LINE",
"472.333 943 OFFCURVE",
"524.333 1058 OFFCURVE",
"555 1214 CURVE SMOOTH",
"593 1409 LINE",
"306 1409 LINE",
"255 1149 LINE",
"382 1149 LINE",
"362 1049 OFFCURVE",
"297.667 943 OFFCURVE",
"189 831 CURVE",
"371 831 LINE"
);
}
);
width = 569;
}
);
note = quoteright;
unicode = 2019;
},
{
glyphname = divide;
lastChange = "2020-03-13 21:34:02 +0000";
layers = (
{
layerId = "E64FF656-58E6-4C13-B3CC-343A43FBFB06";
paths = (
{
closed = 1;
nodes = (
"462 961 LINE",
"700 961 LINE",
"700 1194 LINE",
"462 1194 LINE",
"462 961 LINE"
);
},
{
closed = 1;
nodes = (
"69 569 LINE",
"1096 569 LINE",
"1096 793 LINE",
"69 793 LINE",
"69 569 LINE"
);
},
{
closed = 1;
nodes = (
"462 170 LINE",
"700 170 LINE",
"700 403 LINE",
"462 403 LINE",
"462 170 LINE"
);
}
);
width = 1124;
}
);
note = divide;
unicode = 00F7;
},
{
glyphname = lozenge;
lastChange = "2020-03-13 21:34:02 +0000";
layers = (
{
layerId = "E64FF656-58E6-4C13-B3CC-343A43FBFB06";
paths = (
{
closed = 1;
nodes = (
"598 0 LINE",
"1052 723 LINE",
"598 1446 LINE",
"494 1446 LINE",
"43 721 LINE",
"494 0 LINE",
"598 0 LINE"
);
},
{
closed = 1;
nodes = (
"547 1204 LINE",
"836 723 LINE",
"547 229 LINE",
"258 723 LINE",
"547 1204 LINE"
);
}
);
width = 1012;
}
);
note = lozenge;
unicode = 25CA;
},
{
glyphname = fraction;
lastChange = "2020-03-13 21:34:02 +0000";
layers = (
{
layerId = "E64FF656-58E6-4C13-B3CC-343A43FBFB06";
paths = (
{
closed = 1;
nodes = (
"-231 0 LINE",
"857 1409 LINE",
"658 1409 LINE",
"-428 0 LINE",
"-231 0 LINE"
);
}
);
width = 342;
}
);
note = fraction;
unicode = "2044,2215";
},
{
glyphname = Euro;
lastChange = "2020-03-13 21:34:02 +0000";
layers = (
{
layerId = "E64FF656-58E6-4C13-B3CC-343A43FBFB06";
paths = (
{
closed = 1;
nodes = (
"803 1210 LINE",
"903 1210 OFFCURVE",
"941.333 1169.667 OFFCURVE",
"956 1083 CURVE",
"1213 1130 LINE",
"1199.667 1330 OFFCURVE",
"1078 1430 OFFCURVE",
"848 1430 CURVE SMOOTH",
"536 1430 OFFCURVE",
"343.667 1263 OFFCURVE",
"245 915 CURVE",
"111 915 LINE",
"79 766 LINE",
"205 766 LINE",
"198.333 740 OFFCURVE",
"192 704.333 OFFCURVE",
"186 659 CURVE",
"59 659 LINE",
"28 510 LINE",
"169 510 LINE",
"169 163.333 OFFCURVE",
"317.667 -18 OFFCURVE",
"619 -18 CURVE SMOOTH",
"837.667 -18 OFFCURVE",
"986 84.333 OFFCURVE",
"1054 287 CURVE",
"811 327 LINE",
"773 241.667 OFFCURVE",
"709 199 OFFCURVE",
"619 199 CURVE SMOOTH",
"517.667 199 OFFCURVE",
"455 274.333 OFFCURVE",
"455 441 CURVE",
"458 510 LINE",
"762 510 LINE",
"791 659 LINE",
"481 659 LINE",
"484.333 695 OFFCURVE",
"490.667 730.667 OFFCURVE",
"500 766 CURVE",
"801 766 LINE",
"830 915 LINE",
"534 915 LINE",
"582 1111 OFFCURVE",
"660.333 1210 OFFCURVE",
"803 1210 CURVE"
);
}
);
width = 1139;
}
);
note = Euro;
unicode = 20AC;
},
{
glyphname = guilsinglleft;
lastChange = "2020-03-13 21:34:02 +0000";
layers = (
{
layerId = "E64FF656-58E6-4C13-B3CC-343A43FBFB06";
paths = (
{
closed = 1;
nodes = (
"265 139 LINE",
"497 139 LINE",
"502 178 LINE",
"314 531 LINE",
"643 897 LINE",
"649 938 LINE",
"410 938 LINE",
"87 571 LINE",
"73 500 LINE",
"265 139 LINE"
);
}
);
width = 682;
}
);
note = guilsinglleft;
unicode = 2039;
},
{
glyphname = guilsinglright;
lastChange = "2020-03-13 21:34:02 +0000";
layers = (
{
layerId = "E64FF656-58E6-4C13-B3CC-343A43FBFB06";
paths = (
{
closed = 1;
nodes = (
"417 938 LINE",
"185 938 LINE",
"180 899 LINE",
"368 546 LINE",
"39 180 LINE",
"33 139 LINE",
"272 139 LINE",
"595 506 LINE",
"609 577 LINE",
"417 938 LINE"
);
}
);
width = 682;
}
);
note = guilsinglright;
unicode = 203A;
},
{
glyphname = daggerdbl;
lastChange = "2020-03-13 21:34:02 +0000";
layers = (
{
layerId = "E64FF656-58E6-4C13-B3CC-343A43FBFB06";
paths = (
{
closed = 1;
nodes = (
"545 980 LINE",
"511 670 LINE",
"425 363 LINE",
"90 390 LINE",
"50 186 LINE",
"397 215 LINE",
"311 -141 LINE",
"526 -141 LINE",
"580 215 LINE",
"934 186 LINE",
"974 390 LINE",
"608 363 LINE",
"642 670 LINE",
"728 980 LINE",
"1084 953 LINE",
"1124 1157 LINE",
"757 1128 LINE",
"842 1484 LINE",
"627 1484 LINE",
"574 1128 LINE",
"240 1157 LINE",
"200 953 LINE",
"545 980 LINE"
);
}
);
width = 1139;
}
);
note = daggerdbl;
unicode = 2021;
},
{
glyphname = periodcentered;
lastChange = "2020-03-13 21:34:02 +0000";
layers = (
{
layerId = "E64FF656-58E6-4C13-B3CC-343A43FBFB06";
paths = (
{
closed = 1;
nodes = (
"126 531 LINE",
"414 531 LINE",
"473 836 LINE",
"185 836 LINE",
"126 531 LINE"
);
}
);
width = 569;
}
);
note = periodcentered;
unicode = 2219;
},
{
glyphname = quotesinglbase;
lastChange = "2020-03-13 21:34:02 +0000";
layers = (
{
layerId = "E64FF656-58E6-4C13-B3CC-343A43FBFB06";
paths = (
{
closed = 1;
nodes = (
"167 -317 LINE",
"264.333 -210.333 OFFCURVE",
"318.333 -94 OFFCURVE",
"349 66 CURVE SMOOTH",
"387 260 LINE",
"99 260 LINE",
"48 0 LINE",
"177 0 LINE",
"159.667 -93.333 OFFCURVE",
"87.333 -211.667 OFFCURVE",
"-18 -317 CURVE",
"167 -317 LINE"
);
}
);
width = 569;
}
);
note = quotesinglbase;
unicode = 201A;
},
{
glyphname = quotedblbase;
lastChange = "2020-03-13 21:34:02 +0000";
layers = (
{
layerId = "E64FF656-58E6-4C13-B3CC-343A43FBFB06";
paths = (
{
closed = 1;
nodes = (
"602 -317 LINE",
"702 -209 OFFCURVE",
"754.333 -94 OFFCURVE",
"785 66 CURVE SMOOTH",
"823 260 LINE",
"536 260 LINE",
"485 0 LINE",
"612 0 LINE",
"597.333 -88 OFFCURVE",
"526 -209 OFFCURVE",
"418 -317 CURVE",
"602 -317 LINE"
);
},
{
closed = 1;
nodes = (
"172 -317 LINE",
"270.667 -213 OFFCURVE",
"324.333 -92.667 OFFCURVE",
"355 66 CURVE SMOOTH",
"393 260 LINE",
"106 260 LINE",
"55 0 LINE",
"182 0 LINE",
"166 -92 OFFCURVE",
"94 -213 OFFCURVE",
"-10 -317 CURVE",
"172 -317 LINE"
);
}
);
width = 1024;
}
);
note = quotedblbase;
unicode = 201E;
},
{
glyphname = perthousand;
lastChange = "2020-03-13 21:34:02 +0000";
layers = (
{
layerId = "E64FF656-58E6-4C13-B3CC-343A43FBFB06";
paths = (
{
closed = 1;
nodes = (
"471 1419 LINE",
"297 1419 OFFCURVE",
"187.333 1310.667 OFFCURVE",
"142 1094 CURVE",
"129.333 1047.333 OFFCURVE",
"123 1000.333 OFFCURVE",
"123 953 CURVE SMOOTH",
"123 793 OFFCURVE",
"208.333 700 OFFCURVE",
"359 700 CURVE SMOOTH",
"531 700 OFFCURVE",
"654.333 824.667 OFFCURVE",
"697 1030 CURVE",
"711 1078.667 OFFCURVE",
"718 1126 OFFCURVE",
"718 1172 CURVE SMOOTH",
"718 1333.333 OFFCURVE",
"629.667 1419 OFFCURVE",
"471 1419 CURVE"
);
},
{
closed = 1;
nodes = (
"470 1298 LINE",
"520.667 1298 OFFCURVE",
"546 1261 OFFCURVE",
"546 1187 CURVE SMOOTH",
"546 1145.667 OFFCURVE",
"538.667 1096 OFFCURVE",
"524 1038 CURVE",
"497.333 900.667 OFFCURVE",
"448.333 829 OFFCURVE",
"363 829 CURVE SMOOTH",
"317 829 OFFCURVE",
"294 866.667 OFFCURVE",
"294 942 CURVE SMOOTH",
"294 1034 OFFCURVE",
"323.833 1187.167 OFFCURVE",
"372.5 1250.5 CURVE SMOOTH",
"396.833 1282.167 OFFCURVE",
"429.333 1298 OFFCURVE",
"470 1298 CURVE"
);
},
{
closed = 1;
nodes = (
"1066 712 LINE",
"892 712 OFFCURVE",
"782.333 603.667 OFFCURVE",
"737 387 CURVE",
"724.333 340.333 OFFCURVE",
"718 293.333 OFFCURVE",
"718 246 CURVE SMOOTH",
"718 86 OFFCURVE",
"803.333 -7 OFFCURVE",
"954 -7 CURVE SMOOTH",
"1126 -7 OFFCURVE",
"1249.333 117.667 OFFCURVE",
"1292 323 CURVE",
"1306 371.667 OFFCURVE",
"1313 419 OFFCURVE",
"1313 465 CURVE SMOOTH",
"1313 626.333 OFFCURVE",
"1224.667 712 OFFCURVE",
"1066 712 CURVE"
);
},
{
closed = 1;
nodes = (
"1065 591 LINE",
"1115.667 591 OFFCURVE",
"1141 554 OFFCURVE",
"1141 480 CURVE SMOOTH",
"1141 438.667 OFFCURVE",
"1133.667 389 OFFCURVE",
"1119 331 CURVE",
"1092.333 193.667 OFFCURVE",
"1043.333 122 OFFCURVE",
"958 122 CURVE SMOOTH",
"912 122 OFFCURVE",
"889 159.667 OFFCURVE",
"889 235 CURVE SMOOTH",
"889 327 OFFCURVE",
"918.833 480.167 OFFCURVE",
"967.5 543.5 CURVE SMOOTH",
"991.833 575.167 OFFCURVE",
"1024.333 591 OFFCURVE",
"1065 591 CURVE"
);
},
{
closed = 1;
nodes = (
"1730 712 LINE",
"1556 712 OFFCURVE",
"1446.333 603.667 OFFCURVE",
"1401 387 CURVE",
"1388.333 340.333 OFFCURVE",
"1382 293.333 OFFCURVE",
"1382 246 CURVE SMOOTH",
"1382 86 OFFCURVE",
"1467.333 -7 OFFCURVE",
"1618 -7 CURVE SMOOTH",
"1790 -7 OFFCURVE",
"1913.333 117.667 OFFCURVE",
"1956 323 CURVE",
"1970 371.667 OFFCURVE",
"1977 419 OFFCURVE",
"1977 465 CURVE SMOOTH",
"1977 626.333 OFFCURVE",
"1888.667 712 OFFCURVE",
"1730 712 CURVE"
);
},
{
closed = 1;
nodes = (
"1729 591 LINE",
"1779.667 591 OFFCURVE",
"1805 554 OFFCURVE",
"1805 480 CURVE SMOOTH",
"1805 438.667 OFFCURVE",
"1797.667 389 OFFCURVE",
"1783 331 CURVE",
"1756.333 193.667 OFFCURVE",
"1707.333 122 OFFCURVE",
"1622 122 CURVE SMOOTH",
"1576 122 OFFCURVE",
"1553 159.667 OFFCURVE",
"1553 235 CURVE SMOOTH",
"1553 327 OFFCURVE",
"1582.833 480.167 OFFCURVE",
"1631.5 543.5 CURVE SMOOTH",
"1655.833 575.167 OFFCURVE",
"1688.333 591 OFFCURVE",
"1729 591 CURVE"
);
},
{
closed = 1;
nodes = (
"269 0 LINE",
"1357 1409 LINE",
"1158 1409 LINE",
"72 0 LINE",
"269 0 LINE"
);
}
);
width = 2048;
}
);
note = perthousand;
unicode = 2030;
},
{
glyphname = dotlessi;
lastChange = "2020-03-13 21:34:02 +0000";
layers = (
{
layerId = "E64FF656-58E6-4C13-B3CC-343A43FBFB06";
paths = (
{
closed = 1;
nodes = (
"35 0 LINE",
"315 0 LINE",
"526 1082 LINE",
"245 1082 LINE",
"35 0 LINE"
);
}
);
width = 569;
}
);
note = dotlessi;
unicode = 0131;
},
{
glyphname = circumflex;
lastChange = "2020-03-13 21:34:02 +0000";
layers = (
{
layerId = "E64FF656-58E6-4C13-B3CC-343A43FBFB06";
paths = (
{
closed = 1;
nodes = (
"818 1211 LINE",
"630 1529 LINE",
"401 1529 LINE",
"81 1211 LINE",
"76 1183 LINE",
"245 1183 LINE",
"493 1375 LINE",
"497 1375 LINE",
"663 1183 LINE",
"813 1183 LINE",
"818 1211 LINE"
);
}
);
width = 682;
}
);
note = circumflex;
unicode = 02C6;
},
{
glyphname = tilde;
lastChange = "2020-03-13 21:34:02 +0000";
layers = (
{
layerId = "E64FF656-58E6-4C13-B3CC-343A43FBFB06";
paths = (
{
closed = 1;
nodes = (
"624 1183 LINE",
"760 1183 OFFCURVE",
"852 1265.333 OFFCURVE",
"904 1476 CURVE",
"769 1476 LINE",
"737 1386.667 OFFCURVE",
"703.333 1353 OFFCURVE",
"646 1353 CURVE SMOOTH",
"564.952 1353 OFFCURVE",
"459.954 1476 OFFCURVE",
"349 1476 CURVE SMOOTH",
"211.667 1476 OFFCURVE",
"120 1393.667 OFFCURVE",
"68 1183 CURVE",
"204 1183 LINE",
"237.333 1279 OFFCURVE",
"270 1306 OFFCURVE",
"326 1306 CURVE SMOOTH",
"410.547 1306 OFFCURVE",
"515.102 1183 OFFCURVE",
"624 1183 CURVE"
);
}
);
width = 682;
}
);
note = tilde;
unicode = 02DC;
},
{
glyphname = macron;
lastChange = "2020-03-13 21:34:02 +0000";
layers = (
{
layerId = "E64FF656-58E6-4C13-B3CC-343A43FBFB06";
paths = (
{
closed = 1;
nodes = (
"753 1203 LINE",
"790 1371 LINE",
"200 1371 LINE",
"167 1203 LINE",
"753 1203 LINE"
);
}
);
width = 682;
}
);
note = macron;
unicode = 02C9;
},
{
glyphname = breve;
lastChange = "2020-03-13 21:34:02 +0000";
layers = (
{
layerId = "E64FF656-58E6-4C13-B3CC-343A43FBFB06";
paths = (
{
closed = 1;
nodes = (
"470 1183 LINE",
"683.333 1183 OFFCURVE",
"809.667 1287.333 OFFCURVE",
"867 1506 CURVE",
"703 1506 LINE",
"671 1400.667 OFFCURVE",
"590 1340 OFFCURVE",
"486 1340 CURVE SMOOTH",
"388.667 1340 OFFCURVE",
"322 1407.333 OFFCURVE",
"322 1506 CURVE",
"159 1506 LINE",
"157 1468 LINE",
"157 1297.333 OFFCURVE",
"283.333 1183 OFFCURVE",
"470 1183 CURVE"
);
}
);
width = 682;
}
);
note = breve;
unicode = 02D8;
},
{
glyphname = dotaccent;
lastChange = "2020-03-13 21:34:02 +0000";
layers = (
{
layerId = "E64FF656-58E6-4C13-B3CC-343A43FBFB06";
paths = (
{
closed = 1;
nodes = (
"330 1277 LINE",
"611 1277 LINE",
"652 1484 LINE",
"371 1484 LINE",
"330 1277 LINE"
);
}
);
width = 682;
}
);
note = dotaccent;
unicode = 02D9;
},
{
glyphname = ring;
lastChange = "2020-03-13 21:34:02 +0000";
layers = (
{
layerId = "E64FF656-58E6-4C13-B3CC-343A43FBFB06";
paths = (
{
closed = 1;
nodes = (
"735 1390 LINE",
"735 1530 OFFCURVE",
"621 1644 OFFCURVE",
"481 1644 CURVE SMOOTH",
"341 1644 OFFCURVE",
"227 1530 OFFCURVE",
"227 1390 CURVE SMOOTH",
"227 1250 OFFCURVE",
"338.333 1136 OFFCURVE",
"481 1136 CURVE SMOOTH",
"623.667 1136 OFFCURVE",
"735 1250 OFFCURVE",
"735 1390 CURVE"
);
},
{
closed = 1;
nodes = (
"608 1390 LINE",
"608 1318 OFFCURVE",
"551.667 1262 OFFCURVE",
"481 1262 CURVE SMOOTH",
"413 1262 OFFCURVE",
"356 1315.333 OFFCURVE",
"356 1390 CURVE SMOOTH",
"356 1460.667 OFFCURVE",
"413 1515 OFFCURVE",
"481 1515 CURVE SMOOTH",
"553 1515 OFFCURVE",
"608 1458 OFFCURVE",
"608 1390 CURVE"
);
}
);
width = 682;
}
);
note = ring;
unicode = 02DA;
},
{
glyphname = cedilla;
lastChange = "2020-03-13 21:34:02 +0000";
layers = (
{
layerId = "E64FF656-58E6-4C13-B3CC-343A43FBFB06";
paths = (
{
closed = 1;
nodes = (
"194 -425 LINE",
"430 -425 OFFCURVE",
"539 -344.333 OFFCURVE",
"539 -215 CURVE SMOOTH",
"539 -127 OFFCURVE",
"475.333 -84.333 OFFCURVE",
"382 -83 CURVE",
"430 0 LINE",
"289 0 LINE",
"191 -171 LINE",
"219 -169 LINE",
"244 -169 LINE SMOOTH",
"317.333 -169 OFFCURVE",
"354 -190 OFFCURVE",
"354 -232 CURVE SMOOTH",
"354 -288 OFFCURVE",
"307 -309 OFFCURVE",
"199 -309 CURVE SMOOTH",
"172.333 -309 OFFCURVE",
"145 -306.667 OFFCURVE",
"117 -302 CURVE",
"88 -419 LINE",
"125.333 -423 OFFCURVE",
"160.667 -425 OFFCURVE",
"194 -425 CURVE"
);
}
);
width = 682;
}
);
note = cedilla;
unicode = 00B8;
},
{
glyphname = hungarumlaut;
lastChange = "2020-03-13 21:34:02 +0000";
layers = (
{
layerId = "E64FF656-58E6-4C13-B3CC-343A43FBFB06";
paths = (
{
closed = 1;
nodes = (
"58 1183 LINE",
"204 1183 LINE",
"576 1459 LINE",
"586 1502 LINE",
"325 1502 LINE",
"68 1214 LINE",
"58 1183 LINE"
);
},
{
closed = 1;
nodes = (
"463 1183 LINE",
"609 1183 LINE",
"981 1459 LINE",
"991 1502 LINE",
"730 1502 LINE",
"473 1214 LINE",
"463 1183 LINE"
);
}
);
width = 682;
}
);
note = hungarumlaut;
unicode = 02DD;
},
{
glyphname = ogonek;
lastChange = "2020-03-13 21:34:02 +0000";
layers = (
{
layerId = "E64FF656-58E6-4C13-B3CC-343A43FBFB06";
paths = (
{
closed = 1;
nodes = (
"306 -425 LINE",
"360 -425 OFFCURVE",
"413.333 -413.667 OFFCURVE",
"466 -391 CURVE",
"485 -264 LINE",
"449.667 -279.333 OFFCURVE",
"415.667 -287 OFFCURVE",
"383 -287 CURVE SMOOTH",
"336.333 -287 OFFCURVE",
"304 -261.667 OFFCURVE",
"304 -211 CURVE SMOOTH",
"304 -137.667 OFFCURVE",
"368.667 -40.667 OFFCURVE",
"450 10 CURVE",
"286 10 LINE",
"167.333 -56.667 OFFCURVE",
"106 -148.667 OFFCURVE",
"106 -246 CURVE SMOOTH",
"106 -356.667 OFFCURVE",
"186 -425 OFFCURVE",
"306 -425 CURVE"
);
}
);
width = 682;
}
);
note = ogonek;
unicode = 02DB;
},
{
glyphname = caron;
lastChange = "2020-03-13 21:34:02 +0000";
layers = (
{
layerId = "E64FF656-58E6-4C13-B3CC-343A43FBFB06";
paths = (
{
closed = 1;
nodes = (
"573 1183 LINE",
"884 1500 LINE",
"890 1529 LINE",
"721 1529 LINE",
"481 1336 LINE",
"477 1336 LINE",
"303 1529 LINE",
"153 1529 LINE",
"147 1500 LINE",
"344 1183 LINE",
"573 1183 LINE"
);
}
);
width = 682;
}
);
note = caron;
unicode = 02C7;
},
{
glyphname = Lslash;
lastChange = "2020-03-13 21:34:02 +0000";
layers = (
{
layerId = "E64FF656-58E6-4C13-B3CC-343A43FBFB06";
paths = (
{
closed = 1;
nodes = (
"36 0 LINE",
"1086 0 LINE",
"1131 228 LINE",
"375 228 LINE",
"452 625 LINE",
"788 774 LINE",
"831 997 LINE",
"495 848 LINE",
"604 1409 LINE",
"309 1409 LINE",
"173 708 LINE",
"25 643 LINE",
"-19 418 LINE",
"129 482 LINE",
"36 0 LINE"
);
}
);
width = 1251;
}
);
note = Lslash;
unicode = 0141;
},
{
glyphname = lslash;
lastChange = "2020-03-13 21:34:02 +0000";
layers = (
{
layerId = "E64FF656-58E6-4C13-B3CC-343A43FBFB06";
paths = (
{
closed = 1;
nodes = (
"315 0 LINE",
"455 717 LINE",
"598 793 LINE",
"640 1006 LINE",
"496 932 LINE",
"604 1484 LINE",
"323 1484 LINE",
"185 776 LINE",
"47 707 LINE",
"6 492 LINE",
"143 561 LINE",
"35 0 LINE",
"315 0 LINE"
);
}
);
width = 569;
}
);
note = lslash;
unicode = 0142;
},
{
glyphname = brokenbar;
lastChange = "2020-03-13 21:34:02 +0000";
layers = (
{
layerId = "E64FF656-58E6-4C13-B3CC-343A43FBFB06";
paths = (
{
closed = 1;
nodes = (
"192 736 LINE",
"454 736 LINE",
"454 1484 LINE",
"192 1484 LINE",
"192 736 LINE"
);
},
{
closed = 1;
nodes = (
"192 -425 LINE",
"454 -425 LINE",
"454 324 LINE",
"192 324 LINE",
"192 -425 LINE"
);
}
);
width = 573;
}
);
note = brokenbar;
unicode = 00A6;
},
{
glyphname = Eth;
lastChange = "2020-03-13 21:34:02 +0000";
layers = (
{
layerId = "E64FF656-58E6-4C13-B3CC-343A43FBFB06";
paths = (
{
closed = 1;
nodes = (
"734 1409 LINE",
"310 1409 LINE",
"194 813 LINE",
"65 813 LINE",
"23 594 LINE",
"151 594 LINE",
"36 0 LINE",
"614 0 LINE SMOOTH",
"924.667 0 OFFCURVE",
"1190 148.667 OFFCURVE",
"1322 390 CURVE SMOOTH",
"1388 510.667 OFFCURVE",
"1421 649.667 OFFCURVE",
"1421 807 CURVE SMOOTH",
"1421 1196.333 OFFCURVE",
"1178 1409 OFFCURVE",
"734 1409 CURVE"
);
},
{
closed = 1;
nodes = (
"488 813 LINE",
"560 1181 LINE",
"736 1181 LINE SMOOTH",
"1000 1181 OFFCURVE",
"1145 1046 OFFCURVE",
"1145 794 CURVE SMOOTH",
"1145 566 OFFCURVE",
"1053.167 387.833 OFFCURVE",
"888.5 296.5 CURVE SMOOTH",
"806.167 250.833 OFFCURVE",
"711.667 228 OFFCURVE",
"605 228 CURVE SMOOTH",
"375 228 LINE",
"446 594 LINE",
"801 594 LINE",
"845 813 LINE",
"488 813 LINE"
);
}
);
width = 1479;
}
);
note = Eth;
unicode = 00D0;
},
{
glyphname = eth;
lastChange = "2020-03-13 21:34:02 +0000";
layers = (
{
layerId = "E64FF656-58E6-4C13-B3CC-343A43FBFB06";
paths = (
{
closed = 1;
nodes = (
"661 1305 LINE",
"512 1248 LINE",
"479 1069 LINE",
"756 1180 LINE",
"818 1097.333 OFFCURVE",
"859.667 1009.333 OFFCURVE",
"881 916 CURVE",
"831.667 950.667 OFFCURVE",
"730.333 979 OFFCURVE",
"649 979 CURVE SMOOTH",
"285 979 OFFCURVE",
"58 754 OFFCURVE",
"58 410 CURVE SMOOTH",
"58 144.667 OFFCURVE",
"235 -20 OFFCURVE",
"527 -20 CURVE SMOOTH",
"931 -20 OFFCURVE",
"1172 256 OFFCURVE",
"1172 728 CURVE SMOOTH",
"1172 942.667 OFFCURVE",
"1117.667 1105 OFFCURVE",
"991 1269 CURVE",
"1136 1323 LINE",
"1168 1499 LINE",
"873 1390 LINE",
"827 1427.333 OFFCURVE",
"780 1458.667 OFFCURVE",
"732 1484 CURVE",
"439 1484 LINE",
"504.333 1445.333 OFFCURVE",
"578.333 1385.667 OFFCURVE",
"661 1305 CURVE"
);
},
{
closed = 1;
nodes = (
"658 787 LINE",
"796.667 787 OFFCURVE",
"868 719.333 OFFCURVE",
"868 606 CURVE SMOOTH",
"868 448.667 OFFCURVE",
"811.167 306.167 OFFCURVE",
"714.5 229.5 CURVE SMOOTH",
"666.167 191.167 OFFCURVE",
"613 172 OFFCURVE",
"555 172 CURVE SMOOTH",
"431 172 OFFCURVE",
"352 259 OFFCURVE",
"352 395 CURVE SMOOTH",
"352 629.667 OFFCURVE",
"474 787 OFFCURVE",
"658 787 CURVE"
);
}
);
width = 1251;
}
);
note = eth;
unicode = 00F0;
},
{
glyphname = Thorn;
lastChange = "2020-03-13 21:34:02 +0000";
layers = (
{
layerId = "E64FF656-58E6-4C13-B3CC-343A43FBFB06";
paths = (
{
closed = 1;
nodes = (
"331 0 LINE",
"384 271 LINE",
"762 271 LINE SMOOTH",
"1104.667 271 OFFCURVE",
"1326 462 OFFCURVE",
"1326 762 CURVE SMOOTH",
"1326 1026 OFFCURVE",
"1135 1184 OFFCURVE",
"807 1184 CURVE SMOOTH",
"561 1184 LINE",
"605 1409 LINE",
"310 1409 LINE",
"36 0 LINE",
"331 0 LINE"
);
},
{
closed = 1;
nodes = (
"428 498 LINE",
"517 955 LINE",
"779 955 LINE SMOOTH",
"939 955 OFFCURVE",
"1027 882 OFFCURVE",
"1027 746 CURVE SMOOTH",
"1027 570 OFFCURVE",
"923.667 498 OFFCURVE",
"717 498 CURVE SMOOTH",
"428 498 LINE"
);
}
);
width = 1366;
}
);
note = Thorn;
unicode = 00DE;
},
{
glyphname = thorn;
lastChange = "2020-03-13 21:34:02 +0000";
layers = (
{
layerId = "E64FF656-58E6-4C13-B3CC-343A43FBFB06";
paths = (
{
closed = 1;
nodes = (
"728 907 LINE",
"840 907 OFFCURVE",
"889 835.333 OFFCURVE",
"889 694 CURVE SMOOTH",
"889 548.667 OFFCURVE",
"840.667 322.333 OFFCURVE",
"762 237 CURVE SMOOTH",
"722.667 194.333 OFFCURVE",
"669 173 OFFCURVE",
"601 173 CURVE SMOOTH",
"474.333 173 OFFCURVE",
"400 258.333 OFFCURVE",
"400 401 CURVE SMOOTH",
"400 441 OFFCURVE",
"405.667 492 OFFCURVE",
"417 554 CURVE SMOOTH",
"462.333 790 OFFCURVE",
"560 907 OFFCURVE",
"728 907 CURVE"
);
},
{
closed = 1;
nodes = (
"487 913 LINE",
"497.667 947.667 OFFCURVE",
"509 995.667 OFFCURVE",
"521 1057 CURVE SMOOTH",
"604 1484 LINE",
"323 1484 LINE",
"-46 -425 LINE",
"234 -425 LINE",
"315 -10 LINE",
"333 88 LINE",
"347 178 LINE",
"349 178 LINE",
"391.667 52.667 OFFCURVE",
"495.333 -20 OFFCURVE",
"662 -20 CURVE SMOOTH",
"894 -20 OFFCURVE",
"1040.333 99.167 OFFCURVE",
"1123 354.5 CURVE SMOOTH",
"1164.333 482.167 OFFCURVE",
"1185 613.333 OFFCURVE",
"1185 748 CURVE SMOOTH",
"1185 968 OFFCURVE",
"1060 1102 OFFCURVE",
"848 1102 CURVE SMOOTH",
"690.667 1102 OFFCURVE",
"589 1046.333 OFFCURVE",
"493 913 CURVE",
"487 913 LINE"
);
}
);
width = 1251;
}
);
note = thorn;
unicode = 00FE;
},
{
glyphname = minus;
lastChange = "2020-03-13 21:34:02 +0000";
layers = (
{
layerId = "E64FF656-58E6-4C13-B3CC-343A43FBFB06";
paths = (
{
closed = 1;
nodes = (
"125 569 LINE",
"1152 569 LINE",
"1152 793 LINE",
"125 793 LINE",
"125 569 LINE"
);
}
);
width = 1196;
}
);
note = minus;
unicode = 2212;
},
{
glyphname = multiply;
lastChange = "2020-03-13 21:34:02 +0000";
layers = (
{
layerId = "E64FF656-58E6-4C13-B3CC-343A43FBFB06";
paths = (
{
closed = 1;
nodes = (
"126 326 LINE",
"284 168 LINE",
"640 526 LINE",
"992 172 LINE",
"1150 332 LINE",
"798 682 LINE",
"1150 1036 LINE",
"992 1194 LINE",
"640 842 LINE",
"288 1192 LINE",
"130 1036 LINE",
"482 684 LINE",
"126 326 LINE"
);
}
);
width = 1196;
}
);
note = multiply;
unicode = 00D7;
},
{
glyphname = onesuperior;
lastChange = "2020-03-13 21:34:02 +0000";
layers = (
{
layerId = "E64FF656-58E6-4C13-B3CC-343A43FBFB06";
paths = (
{
closed = 1;
nodes = (
"98 693 LINE",
"634 693 LINE",
"657 814 LINE",
"487 814 LINE",
"603 1413 LINE",
"428 1413 LINE",
"226 1296 LINE",
"202 1174 LINE",
"396 1282 LINE",
"305 814 LINE",
"121 814 LINE",
"98 693 LINE"
);
}
);
width = 682;
}
);
note = onesuperior;
unicode = 00B9;
},
{
glyphname = twosuperior;
lastChange = "2020-03-13 21:34:02 +0000";
layers = (
{
layerId = "E64FF656-58E6-4C13-B3CC-343A43FBFB06";
paths = (
{
closed = 1;
nodes = (
"71 696 LINE",
"635 696 LINE",
"660 839 LINE",
"311 839 LINE",
"340.333 879 OFFCURVE",
"395.667 909.833 OFFCURVE",
"457 942.5 CURVE SMOOTH",
"487.667 958.833 OFFCURVE",
"519 976 OFFCURVE",
"551 994 CURVE SMOOTH",
"615 1030 OFFCURVE",
"667.667 1075.167 OFFCURVE",
"701 1134.5 CURVE SMOOTH",
"717.667 1164.167 OFFCURVE",
"726 1199 OFFCURVE",
"726 1239 CURVE SMOOTH",
"726 1353.667 OFFCURVE",
"632.333 1426 OFFCURVE",
"479 1426 CURVE SMOOTH",
"315 1426 OFFCURVE",
"228.333 1368 OFFCURVE",
"187 1236 CURVE",
"349 1202 LINE",
"366.333 1266.667 OFFCURVE",
"404.333 1299 OFFCURVE",
"463 1299 CURVE SMOOTH",
"509.667 1299 OFFCURVE",
"542 1269.667 OFFCURVE",
"542 1231 CURVE SMOOTH",
"542 1163 OFFCURVE",
"495.667 1111.667 OFFCURVE",
"373 1045 CURVE SMOOTH",
"226.333 962.333 OFFCURVE",
"148.333 900 OFFCURVE",
"95 816 CURVE",
"71 696 LINE"
);
}
);
width = 682;
}
);
note = twosuperior;
unicode = 00B2;
},
{
glyphname = threesuperior;
lastChange = "2020-03-13 21:34:02 +0000";
layers = (
{
layerId = "E64FF656-58E6-4C13-B3CC-343A43FBFB06";
paths = (
{
closed = 1;
nodes = (
"496 915 LINE",
"496 847 OFFCURVE",
"446.333 811 OFFCURVE",
"385 811 CURVE SMOOTH",
"324.333 811 OFFCURVE",
"288.333 844 OFFCURVE",
"277 910 CURVE",
"96 885 LINE",
"114 753.667 OFFCURVE",
"205 688 OFFCURVE",
"369 688 CURVE SMOOTH",
"562.333 688 OFFCURVE",
"684 778.333 OFFCURVE",
"684 913 CURVE SMOOTH",
"684 997 OFFCURVE",
"627.333 1049 OFFCURVE",
"542 1065 CURVE",
"543 1067 LINE",
"652.333 1076.333 OFFCURVE",
"726 1152.333 OFFCURVE",
"726 1247 CURVE SMOOTH",
"726 1367 OFFCURVE",
"633.333 1426 OFFCURVE",
"476 1426 CURVE SMOOTH",
"300 1426 OFFCURVE",
"212.667 1364.667 OFFCURVE",
"178 1234 CURVE",
"341 1210 LINE",
"357.667 1272.667 OFFCURVE",
"396 1304 OFFCURVE",
"456 1304 CURVE SMOOTH",
"511.333 1304 OFFCURVE",
"539 1276.333 OFFCURVE",
"539 1221 CURVE SMOOTH",
"539 1161 OFFCURVE",
"483.667 1126 OFFCURVE",
"401 1126 CURVE SMOOTH",
"341 1126 LINE",
"317 1000 LINE",
"385 1000 LINE SMOOTH",
"459 1000 OFFCURVE",
"496 971.667 OFFCURVE",
"496 915 CURVE"
);
}
);
width = 682;
}
);
note = threesuperior;
unicode = 00B3;
},
{
glyphname = franc;
lastChange = "2020-03-13 21:34:02 +0000";
layers = (
{
layerId = "E64FF656-58E6-4C13-B3CC-343A43FBFB06";
paths = (
{
closed = 1;
nodes = (
"555 1201 LINE",
"1225 1201 LINE",
"1265 1409 LINE",
"310 1409 LINE",
"116 407 LINE",
"-13 407 LINE",
"-42 258 LINE",
"87 258 LINE",
"37 0 LINE",
"321 0 LINE",
"372 258 LINE",
"686 258 LINE",
"715 407 LINE",
"401 407 LINE",
"438 597 LINE",
"1075 597 LINE",
"1115 805 LINE",
"478 805 LINE",
"555 1201 LINE"
);
}
);
width = 1139;
}
);
note = franc;
unicode = 20A3;
},
{
glyphname = dcroat;
lastChange = "2020-03-13 21:34:02 +0000";
layers = (
{
layerId = "E64FF656-58E6-4C13-B3CC-343A43FBFB06";
paths = (
{
closed = 1;
nodes = (
"749 160 LINE",
"753 160 LINE",
"743 95.333 OFFCURVE",
"738 42 OFFCURVE",
"738 0 CURVE",
"1019 0 LINE",
"1025 79.333 OFFCURVE",
"1034.667 156.333 OFFCURVE",
"1048 231 CURVE SMOOTH",
"1227 1175 LINE",
"1358 1175 LINE",
"1391 1345 LINE",
"1259 1345 LINE",
"1286 1484 LINE",
"1009 1484 LINE",
"981 1345 LINE",
"691 1345 LINE",
"658 1175 LINE",
"947 1175 LINE",
"922 1053 LINE SMOOTH",
"903.333 961 OFFCURVE",
"895.667 900.333 OFFCURVE",
"893 871 CURVE",
"887 871 LINE",
"848.333 995 OFFCURVE",
"740.333 1061 OFFCURVE",
"571 1061 CURVE SMOOTH",
"360.333 1061 OFFCURVE",
"205 933.833 OFFCURVE",
"121 698.5 CURVE SMOOTH",
"79 580.833 OFFCURVE",
"58 461.333 OFFCURVE",
"58 340 CURVE SMOOTH",
"58 120 OFFCURVE",
"186.667 -21 OFFCURVE",
"392 -21 CURVE SMOOTH",
"553.333 -21 OFFCURVE",
"654.333 36 OFFCURVE",
"749 160 CURVE"
);
},
{
closed = 1;
nodes = (
"515 172 LINE",
"408.333 172 OFFCURVE",
"355 242 OFFCURVE",
"355 382 CURVE SMOOTH",
"355 524.667 OFFCURVE",
"401.667 723.5 OFFCURVE",
"487 809.5 CURVE SMOOTH",
"529.667 852.5 OFFCURVE",
"583.333 874 OFFCURVE",
"648 874 CURVE SMOOTH",
"773.333 874 OFFCURVE",
"836 809.333 OFFCURVE",
"836 656 CURVE SMOOTH",
"836 513.333 OFFCURVE",
"782 317.833 OFFCURVE",
"690 234.5 CURVE SMOOTH",
"644 192.833 OFFCURVE",
"585.667 172 OFFCURVE",
"515 172 CURVE"
);
}
);
width = 1251;
}
);
note = dcroat;
unicode = 0111;
},
{
glyphname = overscore;
lastChange = "2020-03-13 21:34:02 +0000";
layers = (
{
layerId = "E64FF656-58E6-4C13-B3CC-343A43FBFB06";
paths = (
{
closed = 1;
nodes = (
"1148 1452 LINE",
"1148 1546 LINE",
"-17 1546 LINE",
"-17 1452 LINE",
"1148 1452 LINE"
);
}
);
width = 1131;
}
);
note = overscore;
unicode = 00AF;
},
{
glyphname = middot;
lastChange = "2020-03-13 21:34:02 +0000";
layers = (
{
layerId = "E64FF656-58E6-4C13-B3CC-343A43FBFB06";
paths = (
{
closed = 1;
nodes = (
"189 531 LINE",
"477 531 LINE",
"536 836 LINE",
"248 836 LINE",
"189 531 LINE"
);
}
);
width = 682;
}
);
note = middot;
unicode = 00B7;
},
{
glyphname = Gamma;
lastChange = "2020-03-13 21:34:02 +0000";
layers = (
{
layerId = "E64FF656-58E6-4C13-B3CC-343A43FBFB06";
paths = (
{
closed = 1;
nodes = (
"1330 1409 LINE",
"309 1409 LINE",
"36 1 LINE",
"331 1 LINE",
"560 1181 LINE",
"1286 1181 LINE",
"1330 1409 LINE"
);
}
);
width = 1249;
}
);
note = Gamma;
unicode = 0393;
},
{
glyphname = Theta;
lastChange = "2020-03-13 21:34:02 +0000";
layers = (
{
layerId = "E64FF656-58E6-4C13-B3CC-343A43FBFB06";
paths = (
{
closed = 1;
nodes = (
"556 827 LINE",
"512 599 LINE",
"1099 599 LINE",
"1143 827 LINE",
"556 827 LINE"
);
},
{
closed = 1;
nodes = (
"928 1430 LINE",
"604 1430 OFFCURVE",
"346.167 1282.833 OFFCURVE",
"205.5 1011.5 CURVE SMOOTH",
"135.167 875.833 OFFCURVE",
"100 729.667 OFFCURVE",
"100 573 CURVE SMOOTH",
"100 333 OFFCURVE",
"201.5 148 OFFCURVE",
"391.5 52 CURVE SMOOTH",
"486.5 4 OFFCURVE",
"598.333 -20 OFFCURVE",
"727 -20 CURVE SMOOTH",
"1051 -20 OFFCURVE",
"1312.833 129.167 OFFCURVE",
"1453.5 400.5 CURVE SMOOTH",
"1523.833 536.167 OFFCURVE",
"1559 686.333 OFFCURVE",
"1559 851 CURVE SMOOTH",
"1559 1208.333 OFFCURVE",
"1318.667 1430 OFFCURVE",
"928 1430 CURVE"
);
},
{
closed = 1;
nodes = (
"914 1197 LINE",
"1135.333 1197 OFFCURVE",
"1255 1061.667 OFFCURVE",
"1255 827 CURVE SMOOTH",
"1255 601.667 OFFCURVE",
"1168 387 OFFCURVE",
"1016 287 CURVE SMOOTH",
"940 237 OFFCURVE",
"848.333 212 OFFCURVE",
"741 212 CURVE SMOOTH",
"526.333 212 OFFCURVE",
"400 335.667 OFFCURVE",
"400 581 CURVE SMOOTH",
"400 799.667 OFFCURVE",
"486 1022 OFFCURVE",
"638 1122 CURVE SMOOTH",
"714 1172 OFFCURVE",
"806 1197 OFFCURVE",
"914 1197 CURVE"
);
}
);
width = 1593;
}
);
note = Theta;
unicode = 0398;
},
{
glyphname = Phi;
lastChange = "2020-03-13 21:34:02 +0000";
layers = (
{
layerId = "E64FF656-58E6-4C13-B3CC-343A43FBFB06";
paths = (
{
closed = 1;
nodes = (
"1071 1052 LINE",
"1133 1052 LINE SMOOTH",
"1275.667 1052 OFFCURVE",
"1363 951.667 OFFCURVE",
"1363 789 CURVE SMOOTH",
"1363 549 OFFCURVE",
"1224.667 397 OFFCURVE",
"998 397 CURVE SMOOTH",
"944 397 LINE",
"1071 1052 LINE"
);
},
{
closed = 1;
nodes = (
"595 -11 LINE",
"865 -11 LINE",
"903 188 LINE",
"984 188 LINE SMOOTH",
"1402.667 188 OFFCURVE",
"1654 411.667 OFFCURVE",
"1654 793 CURVE SMOOTH",
"1654 979.667 OFFCURVE",
"1574.833 1125.667 OFFCURVE",
"1431.5 1203 CURVE SMOOTH",
"1359.833 1241.667 OFFCURVE",
"1275.667 1261 OFFCURVE",
"1179 1261 CURVE SMOOTH",
"1112 1261 LINE",
"1142 1419 LINE",
"872 1419 LINE",
"842 1261 LINE",
"773 1261 LINE SMOOTH",
"339.667 1261 OFFCURVE",
"96 1040.333 OFFCURVE",
"96 651 CURVE SMOOTH",
"96 375 OFFCURVE",
"281 188 OFFCURVE",
"557 188 CURVE SMOOTH",
"633 188 LINE",
"595 -11 LINE"
);
},
{
closed = 1;
nodes = (
"801 1052 LINE",
"674 397 LINE",
"608 397 LINE SMOOTH",
"470.667 397 OFFCURVE",
"387 499.333 OFFCURVE",
"387 662 CURVE SMOOTH",
"387 912.667 OFFCURVE",
"521.667 1052 OFFCURVE",
"755 1052 CURVE SMOOTH",
"801 1052 LINE"
);
}
);
width = 1684;
}
);
note = Phi;
unicode = 03A6;
},
{
glyphname = alpha;
lastChange = "2020-03-13 21:34:02 +0000";
layers = (
{
layerId = "E64FF656-58E6-4C13-B3CC-343A43FBFB06";
paths = (
{
closed = 1;
nodes = (
"612 1101 LINE",
"426.667 1101 OFFCURVE",
"294.333 1035.667 OFFCURVE",
"201 901 CURVE SMOOTH",
"107.667 766.333 OFFCURVE",
"57 548.333 OFFCURVE",
"57 375 CURVE SMOOTH",
"57 127 OFFCURVE",
"182.333 -21 OFFCURVE",
"405 -21 CURVE SMOOTH",
"561 -21 OFFCURVE",
"679 46.667 OFFCURVE",
"803 240 CURVE",
"807 240 LINE",
"807 225 LINE SMOOTH",
"807 158.333 OFFCURVE",
"815.667 83.333 OFFCURVE",
"833 0 CURVE",
"1111 0 LINE",
"1080.333 160 OFFCURVE",
"1075.5 218.833 OFFCURVE",
"1069.5 327.5 CURVE SMOOTH",
"1066.5 381.833 OFFCURVE",
"1065 444 OFFCURVE",
"1065 514 CURVE",
"1121 683.333 OFFCURVE",
"1250.333 950 OFFCURVE",
"1341 1082 CURVE",
"1069 1082 LINE",
"1037 1032.667 OFFCURVE",
"973.333 904.333 OFFCURVE",
"952 847 CURVE",
"950 847 LINE",
"919.333 1005.667 OFFCURVE",
"800 1101 OFFCURVE",
"612 1101 CURVE"
);
},
{
closed = 1;
nodes = (
"616 907 LINE",
"733.333 907 OFFCURVE",
"792 801.333 OFFCURVE",
"792 616 CURVE SMOOTH",
"790 552 LINE",
"719.333 309.333 OFFCURVE",
"608.333 174 OFFCURVE",
"495 174 CURVE SMOOTH",
"397.667 174 OFFCURVE",
"349 245 OFFCURVE",
"349 387 CURVE SMOOTH",
"349 543 OFFCURVE",
"395.167 754.167 OFFCURVE",
"470.5 841.5 CURVE SMOOTH",
"508.167 885.167 OFFCURVE",
"556.667 907 OFFCURVE",
"616 907 CURVE"
);
}
);
width = 1270;
}
);
note = alpha;
unicode = 03B1;
},
{
glyphname = delta;
lastChange = "2020-03-13 21:34:02 +0000";
layers = (
{
layerId = "E64FF656-58E6-4C13-B3CC-343A43FBFB06";
paths = (
{
closed = 1;
nodes = (
"557 177 LINE",
"426.333 177 OFFCURVE",
"345 276.667 OFFCURVE",
"345 430 CURVE SMOOTH",
"345 546 OFFCURVE",
"373.833 636 OFFCURVE",
"426.5 708 CURVE SMOOTH",
"479.167 780 OFFCURVE",
"548.333 836 OFFCURVE",
"719 900 CURVE",
"817.667 788 OFFCURVE",
"855 684.667 OFFCURVE",
"855 558 CURVE SMOOTH",
"855 327.333 OFFCURVE",
"739.667 177 OFFCURVE",
"557 177 CURVE"
);
},
{
closed = 1;
nodes = (
"855 1294 LINE",
"1225 1294 LINE",
"1253 1484 LINE",
"414 1484 LINE",
"378 1325 LINE",
"625 1013 LINE",
"245 913 OFFCURVE",
"55 713.667 OFFCURVE",
"55 415 CURVE SMOOTH",
"55 155 OFFCURVE",
"243.667 -19 OFFCURVE",
"533 -19 CURVE SMOOTH",
"905 -19 OFFCURVE",
"1146 197 OFFCURVE",
"1146 537 CURVE SMOOTH",
"1146 679.667 OFFCURVE",
"1104 801.333 OFFCURVE",
"960 992 CURVE",
"703 1302 LINE",
"719 1300.667 OFFCURVE",
"748.333 1299.333 OFFCURVE",
"779 1298 CURVE SMOOTH",
"855 1294 LINE"
);
}
);
width = 1250;
}
);
note = delta;
unicode = 03B4;
},
{
glyphname = epsilon;
lastChange = "2020-03-13 21:34:02 +0000";
layers = (
{
layerId = "E64FF656-58E6-4C13-B3CC-343A43FBFB06";
paths = (
{
closed = 1;
nodes = (
"462 170 LINE",
"374 170 OFFCURVE",
"317 225.333 OFFCURVE",
"317 304 CURVE SMOOTH",
"317 392 OFFCURVE",
"370.333 438.5 OFFCURVE",
"465 460.5 CURVE SMOOTH",
"512.333 471.5 OFFCURVE",
"590.333 477 OFFCURVE",
"699 477 CURVE",
"723 652 LINE",
"528.333 652 OFFCURVE",
"425 702 OFFCURVE",
"425 794 CURVE SMOOTH",
"425 875.333 OFFCURVE",
"492.333 923 OFFCURVE",
"603 923 CURVE SMOOTH",
"695 923 OFFCURVE",
"763 883.333 OFFCURVE",
"807 804 CURVE",
"999 888 LINE",
"923 1032 OFFCURVE",
"798 1101 OFFCURVE",
"602 1101 CURVE SMOOTH",
"320.667 1101 OFFCURVE",
"161 992.667 OFFCURVE",
"161 806 CURVE SMOOTH",
"161 699.333 OFFCURVE",
"232.667 614.333 OFFCURVE",
"350 581 CURVE",
"349 579 LINE",
"138.333 557.667 OFFCURVE",
"26 454.667 OFFCURVE",
"26 292 CURVE SMOOTH",
"26 108 OFFCURVE",
"185.333 -20 OFFCURVE",
"420 -20 CURVE SMOOTH",
"621.333 -20 OFFCURVE",
"761 32.333 OFFCURVE",
"897 159 CURVE",
"769 310 LINE",
"677 228.667 OFFCURVE",
"580.667 170 OFFCURVE",
"462 170 CURVE"
);
}
);
width = 980;
}
);
note = epsilon;
unicode = 03B5;
},
{
glyphname = sigma;
lastChange = "2020-03-13 21:34:02 +0000";
layers = (
{
layerId = "E64FF656-58E6-4C13-B3CC-343A43FBFB06";
paths = (
{
closed = 1;
nodes = (
"532 -20 LINE",
"790.667 -20 OFFCURVE",
"986.167 85.833 OFFCURVE",
"1085.5 270.5 CURVE SMOOTH",
"1135.167 362.833 OFFCURVE",
"1160 470 OFFCURVE",
"1160 592 CURVE SMOOTH",
"1160 694.667 OFFCURVE",
"1128.333 795.333 OFFCURVE",
"1065 894 CURVE",
"1066 898 LINE",
"1253 892 LINE",
"1387 892 LINE",
"1424 1082 LINE",
"838 1082 LINE SMOOTH",
"587.333 1082 OFFCURVE",
"392 1019.833 OFFCURVE",
"260 896.5 CURVE SMOOTH",
"128 773.167 OFFCURVE",
"64 596.333 OFFCURVE",
"64 411 CURVE SMOOTH",
"64 137.667 OFFCURVE",
"240 -20 OFFCURVE",
"532 -20 CURVE"
);
},
{
closed = 1;
nodes = (
"564 172 LINE",
"429.333 172 OFFCURVE",
"356 266 OFFCURVE",
"356 426 CURVE SMOOTH",
"356 542 OFFCURVE",
"389 673.167 OFFCURVE",
"461 760.5 CURVE SMOOTH",
"533 847.833 OFFCURVE",
"640 892 OFFCURVE",
"776 892 CURVE SMOOTH",
"847 892 LINE",
"869 818 OFFCURVE",
"880 740.667 OFFCURVE",
"880 660 CURVE SMOOTH",
"880 330.667 OFFCURVE",
"774.667 172 OFFCURVE",
"564 172 CURVE"
);
}
);
width = 1359;
}
);
note = sigma;
unicode = 03C3;
},
{
glyphname = tau;
lastChange = "2020-03-13 21:34:02 +0000";
layers = (
{
layerId = "E64FF656-58E6-4C13-B3CC-343A43FBFB06";
paths = (
{
closed = 1;
nodes = (
"311 892 LINE",
"334 892 LINE",
"227 339 LINE SMOOTH",
"219 300.333 OFFCURVE",
"215 260.333 OFFCURVE",
"215 219 CURVE SMOOTH",
"215 64.333 OFFCURVE",
"301.667 -20 OFFCURVE",
"455 -20 CURVE SMOOTH",
"523 -20 OFFCURVE",
"612 -6.333 OFFCURVE",
"660 7 CURVE",
"692 190 LINE",
"670 187 LINE SMOOTH",
"634.667 180.333 OFFCURVE",
"607.333 177 OFFCURVE",
"588 177 CURVE SMOOTH",
"527.333 177 OFFCURVE",
"497 208.333 OFFCURVE",
"497 271 CURVE SMOOTH",
"497 287.667 OFFCURVE",
"499 307 OFFCURVE",
"503 329 CURVE SMOOTH",
"612 892 LINE",
"887 892 LINE",
"924 1082 LINE",
"279 1082 LINE SMOOTH",
"209.667 1082 OFFCURVE",
"134.667 1069 OFFCURVE",
"96 1053 CURVE",
"57 855 LINE",
"94.333 873.667 OFFCURVE",
"203 892 OFFCURVE",
"311 892 CURVE"
);
}
);
width = 837;
}
);
note = tau;
unicode = 03C4;
},
{
glyphname = phi;
lastChange = "2020-03-13 21:34:02 +0000";
layers = (
{
layerId = "E64FF656-58E6-4C13-B3CC-343A43FBFB06";
paths = (
{
closed = 1;
nodes = (
"1026 1104 LINE",
"807.333 1104 OFFCURVE",
"672.333 970 OFFCURVE",
"621 702 CURVE SMOOTH",
"517 167 LINE",
"395.667 175 OFFCURVE",
"332 271.667 OFFCURVE",
"332 429 CURVE SMOOTH",
"332 687.667 OFFCURVE",
"449 888.333 OFFCURVE",
"617 927 CURVE",
"631 1106 LINE",
"264.333 1046 OFFCURVE",
"64 809.667 OFFCURVE",
"64 435 CURVE SMOOTH",
"64 168.333 OFFCURVE",
"230.667 -9.333 OFFCURVE",
"480 -20 CURVE",
"402 -425 LINE",
"640 -425 LINE",
"719 -18 LINE",
"1133.667 -12.667 OFFCURVE",
"1379 255 OFFCURVE",
"1379 715 CURVE SMOOTH",
"1379 951 OFFCURVE",
"1244.667 1104 OFFCURVE",
"1026 1104 CURVE"
);
},
{
closed = 1;
nodes = (
"1014 930 LINE",
"1080 930 OFFCURVE",
"1113 856.333 OFFCURVE",
"1113 709 CURVE SMOOTH",
"1113 371 OFFCURVE",
"993.333 190 OFFCURVE",
"754 166 CURVE",
"858 699 LINE SMOOTH",
"888.667 857.667 OFFCURVE",
"934 930 OFFCURVE",
"1014 930 CURVE"
);
}
);
width = 1441;
}
);
note = phi;
unicode = 03C6;
},
{
glyphname = nsuperior;
lastChange = "2020-03-13 21:34:02 +0000";
layers = (
{
layerId = "E64FF656-58E6-4C13-B3CC-343A43FBFB06";
paths = (
{
closed = 1;
nodes = (
"511 519 LINE",
"690 519 LINE",
"769 923 LINE SMOOTH",
"775 950.333 OFFCURVE",
"778 978 OFFCURVE",
"778 1006 CURVE SMOOTH",
"778 1122.667 OFFCURVE",
"719.333 1181 OFFCURVE",
"602 1181 CURVE SMOOTH",
"506 1181 OFFCURVE",
"438 1148.667 OFFCURVE",
"370 1058 CURVE",
"367 1058 LINE",
"381 1169 LINE",
"215 1169 LINE",
"191 1030 LINE",
"92 519 LINE",
"270 519 LINE",
"338 870 LINE SMOOTH",
"360.667 991.333 OFFCURVE",
"428.667 1057 OFFCURVE",
"510 1057 CURVE SMOOTH",
"566.667 1057 OFFCURVE",
"595 1032 OFFCURVE",
"595 982 CURVE SMOOTH",
"595 956.667 OFFCURVE",
"591.667 928.667 OFFCURVE",
"585 898 CURVE SMOOTH",
"511 519 LINE"
);
}
);
width = 811;
}
);
note = nsuperior;
unicode = 207F;
},
{
glyphname = peseta;
lastChange = "2020-03-13 21:34:02 +0000";
layers = (
{
layerId = "E64FF656-58E6-4C13-B3CC-343A43FBFB06";
paths = (
{
closed = 1;
nodes = (
"1435 646 LINE",
"1468 813 LINE",
"1321 813 LINE",
"1368 1055 LINE",
"1243 1055 LINE",
"1108 813 LINE",
"1039 813 LINE",
"1077.667 870.333 OFFCURVE",
"1097 941.333 OFFCURVE",
"1097 1026 CURVE SMOOTH",
"1097 1274 OFFCURVE",
"932.333 1409 OFFCURVE",
"647 1409 CURVE SMOOTH",
"333 1409 LINE",
"59 0 LINE",
"300 0 LINE",
"407 549 LINE",
"543 549 LINE SMOOTH",
"741.667 549 OFFCURVE",
"884.333 605 OFFCURVE",
"983 733 CURVE",
"964 646 LINE",
"1058 646 LINE",
"985 260 LINE SMOOTH",
"979 230 OFFCURVE",
"976 201.667 OFFCURVE",
"976 175 CURVE SMOOTH",
"976 59 OFFCURVE",
"1044.667 -16 OFFCURVE",
"1186 -16 CURVE SMOOTH",
"1235.333 -16 OFFCURVE",
"1283.333 -8 OFFCURVE",
"1330 8 CURVE",
"1361 166 LINE",
"1331 156.667 OFFCURVE",
"1303.667 152 OFFCURVE",
"1279 152 CURVE SMOOTH",
"1233.667 152 OFFCURVE",
"1211 175 OFFCURVE",
"1211 221 CURVE SMOOTH",
"1211 235.667 OFFCURVE",
"1213.333 256.333 OFFCURVE",
"1218 283 CURVE SMOOTH",
"1288 646 LINE",
"1435 646 LINE"
);
},
{
closed = 1;
nodes = (
"1715 -20 LINE",
"1984.333 -20 OFFCURVE",
"2126 81 OFFCURVE",
"2126 269 CURVE SMOOTH",
"2126 383.667 OFFCURVE",
"2043 462.333 OFFCURVE",
"1883 497 CURVE SMOOTH",
"1807 514 LINE SMOOTH",
"1727.667 531.333 OFFCURVE",
"1688 556.667 OFFCURVE",
"1688 590 CURVE SMOOTH",
"1688 612.667 OFFCURVE",
"1698 629.333 OFFCURVE",
"1718 640 CURVE SMOOTH",
"1738 650.667 OFFCURVE",
"1775.667 656 OFFCURVE",
"1831 656 CURVE SMOOTH",
"1913 656 OFFCURVE",
"1957.333 622.667 OFFCURVE",
"1964 556 CURVE",
"2171 578 LINE",
"2160.333 744.667 OFFCURVE",
"2040.667 824 OFFCURVE",
"1842 824 CURVE SMOOTH",
"1600.667 824 OFFCURVE",
"1469 740.667 OFFCURVE",
"1469 578 CURVE SMOOTH",
"1469 456.667 OFFCURVE",
"1545 378 OFFCURVE",
"1697 342 CURVE SMOOTH",
"1781.667 320.667 OFFCURVE",
"1833.5 306 OFFCURVE",
"1852.5 298 CURVE SMOOTH",
"1890.5 282 OFFCURVE",
"1909 263.333 OFFCURVE",
"1909 234 CURVE SMOOTH",
"1909 158.361 OFFCURVE",
"1825.88 147 OFFCURVE",
"1730 147 CURVE SMOOTH",
"1624.667 147 OFFCURVE",
"1574 181 OFFCURVE",
"1562 261 CURVE",
"1358 226 LINE",
"1378 56.667 OFFCURVE",
"1488.333 -20 OFFCURVE",
"1715 -20 CURVE"
);
},
{
closed = 1;
nodes = (
"444 740 LINE",
"538 1216 LINE",
"608 1216 LINE SMOOTH",
"769.333 1216 OFFCURVE",
"850 1147.667 OFFCURVE",
"850 1011 CURVE SMOOTH",
"850 836.333 OFFCURVE",
"741 740 OFFCURVE",
"533 740 CURVE SMOOTH",
"444 740 LINE"
);
}
);
width = 2261;
}
);
note = peseta;
unicode = 20A7;
},
{
glyphname = arrowleft;
lastChange = "2020-03-13 21:34:02 +0000";
layers = (
{
layerId = "E64FF656-58E6-4C13-B3CC-343A43FBFB06";
paths = (
{
closed = 1;
nodes = (
"641 497 LINE",
"1630 497 LINE",
"1630 583 LINE",
"641 583 LINE",
"679 627.667 OFFCURVE",
"718.667 693.333 OFFCURVE",
"760 780 CURVE",
"688 780 LINE",
"603.333 680.667 OFFCURVE",
"513.333 606.667 OFFCURVE",
"418 558 CURVE",
"418 522 LINE",
"513.333 473.333 OFFCURVE",
"603.333 399.333 OFFCURVE",
"688 300 CURVE",
"760 300 LINE",
"718.667 386.667 OFFCURVE",
"679 452.333 OFFCURVE",
"641 497 CURVE"
);
}
);
width = 2048;
}
);
note = arrowleft;
unicode = 2190;
},
{
glyphname = arrowup;
lastChange = "2020-03-13 21:34:02 +0000";
layers = (
{
layerId = "E64FF656-58E6-4C13-B3CC-343A43FBFB06";
paths = (
{
closed = 1;
nodes = (
"469 928 LINE",
"469 -61 LINE",
"555 -61 LINE",
"555 928 LINE",
"599.667 890 OFFCURVE",
"665.333 850.333 OFFCURVE",
"752 809 CURVE",
"752 881 LINE",
"652.667 965.667 OFFCURVE",
"578.667 1055.667 OFFCURVE",
"530 1151 CURVE",
"494 1151 LINE",
"445.333 1055.667 OFFCURVE",
"371.333 965.667 OFFCURVE",
"272 881 CURVE",
"272 809 LINE",
"358.667 850.333 OFFCURVE",
"424.333 890 OFFCURVE",
"469 928 CURVE"
);
}
);
width = 1024;
}
);
note = arrowup;
unicode = 2191;
},
{
glyphname = arrowright;
lastChange = "2020-03-13 21:34:02 +0000";
layers = (
{
layerId = "E64FF656-58E6-4C13-B3CC-343A43FBFB06";
paths = (
{
closed = 1;
nodes = (
"1407 583 LINE",
"418 583 LINE",
"418 497 LINE",
"1407 497 LINE",
"1369 452.333 OFFCURVE",
"1329.333 386.667 OFFCURVE",
"1288 300 CURVE",
"1360 300 LINE",
"1444.667 399.333 OFFCURVE",
"1534.667 473.333 OFFCURVE",
"1630 522 CURVE",
"1630 558 LINE",
"1534.667 606.667 OFFCURVE",
"1444.667 680.667 OFFCURVE",
"1360 780 CURVE",
"1288 780 LINE",
"1329.333 693.333 OFFCURVE",
"1369 627.667 OFFCURVE",
"1407 583 CURVE"
);
}
);
width = 2048;
}
);
note = arrowright;
unicode = 2192;
},
{
glyphname = arrowdown;
lastChange = "2020-03-13 21:34:02 +0000";
layers = (
{
layerId = "E64FF656-58E6-4C13-B3CC-343A43FBFB06";
paths = (
{
closed = 1;
nodes = (
"555 162 LINE",
"555 1151 LINE",
"469 1151 LINE",
"469 162 LINE",
"424.333 200 OFFCURVE",
"358.667 239.667 OFFCURVE",
"272 281 CURVE",
"272 209 LINE",
"371.333 124.333 OFFCURVE",
"445.333 34.333 OFFCURVE",
"494 -61 CURVE",
"530 -61 LINE",
"578.667 34.333 OFFCURVE",
"652.667 124.333 OFFCURVE",
"752 209 CURVE",
"752 281 LINE",
"665.333 239.667 OFFCURVE",
"599.667 200 OFFCURVE",
"555 162 CURVE"
);
}
);
width = 1024;
}
);
note = arrowdown;
unicode = 2193;
},
{
glyphname = arrowboth;
lastChange = "2020-03-13 21:34:02 +0000";
layers = (
{
layerId = "E64FF656-58E6-4C13-B3CC-343A43FBFB06";
paths = (
{
closed = 1;
nodes = (
"641 497 LINE",
"1407 497 LINE",
"1369 452.333 OFFCURVE",
"1329.333 386.667 OFFCURVE",
"1288 300 CURVE",
"1360 300 LINE",
"1444.667 399.333 OFFCURVE",
"1534.667 473.333 OFFCURVE",
"1630 522 CURVE",
"1630 558 LINE",
"1534.667 606.667 OFFCURVE",
"1444.667 680.667 OFFCURVE",
"1360 780 CURVE",
"1288 780 LINE",
"1329.333 693.333 OFFCURVE",
"1369 627.667 OFFCURVE",
"1407 583 CURVE",
"641 583 LINE",
"679 627.667 OFFCURVE",
"718.667 693.333 OFFCURVE",
"760 780 CURVE",
"688 780 LINE",
"603.333 680.667 OFFCURVE",
"513.333 606.667 OFFCURVE",
"418 558 CURVE",
"418 522 LINE",
"513.333 473.333 OFFCURVE",
"603.333 399.333 OFFCURVE",
"688 300 CURVE",
"760 300 LINE",
"718.667 386.667 OFFCURVE",
"679 452.333 OFFCURVE",
"641 497 CURVE"
);
}
);
width = 2048;
}
);
note = arrowboth;
unicode = 2194;
},
{
glyphname = arrowupdn;
lastChange = "2020-03-13 21:34:02 +0000";
layers = (
{
layerId = "E64FF656-58E6-4C13-B3CC-343A43FBFB06";
paths = (
{
closed = 1;
nodes = (
"469 928 LINE",
"469 162 LINE",
"424.333 200 OFFCURVE",
"358.667 239.667 OFFCURVE",
"272 281 CURVE",
"272 209 LINE",
"371.333 124.333 OFFCURVE",
"445.333 34.333 OFFCURVE",
"494 -61 CURVE",
"530 -61 LINE",
"578.667 34.333 OFFCURVE",
"652.667 124.333 OFFCURVE",
"752 209 CURVE",
"752 281 LINE",
"665.333 239.667 OFFCURVE",
"599.667 200 OFFCURVE",
"555 162 CURVE",
"555 928 LINE",
"599.667 890 OFFCURVE",
"665.333 850.333 OFFCURVE",
"752 809 CURVE",
"752 881 LINE",
"652.667 965.667 OFFCURVE",
"578.667 1055.667 OFFCURVE",
"530 1151 CURVE",
"494 1151 LINE",
"445.333 1055.667 OFFCURVE",
"371.333 965.667 OFFCURVE",
"272 881 CURVE",
"272 809 LINE",
"358.667 850.333 OFFCURVE",
"424.333 890 OFFCURVE",
"469 928 CURVE"
);
}
);
width = 1024;
}
);
note = arrowupdn;
unicode = 2195;
},
{
glyphname = arrowupdnbse;
lastChange = "2020-03-13 21:34:02 +0000";
layers = (
{
layerId = "E64FF656-58E6-4C13-B3CC-343A43FBFB06";
paths = (
{
closed = 1;
nodes = (
"272 -104 LINE",
"272 -184 LINE",
"752 -184 LINE",
"752 -104 LINE",
"272 -104 LINE"
);
},
{
closed = 1;
nodes = (
"469 928 LINE",
"469 162 LINE",
"424.333 200 OFFCURVE",
"358.667 239.667 OFFCURVE",
"272 281 CURVE",
"272 209 LINE",
"371.333 124.333 OFFCURVE",
"445.333 34.333 OFFCURVE",
"494 -61 CURVE",
"530 -61 LINE",
"578.667 34.333 OFFCURVE",
"652.667 124.333 OFFCURVE",
"752 209 CURVE",
"752 281 LINE",
"665.333 239.667 OFFCURVE",
"599.667 200 OFFCURVE",
"555 162 CURVE",
"555 928 LINE",
"599.667 890 OFFCURVE",
"665.333 850.333 OFFCURVE",
"752 809 CURVE",
"752 881 LINE",
"652.667 965.667 OFFCURVE",
"578.667 1055.667 OFFCURVE",
"530 1151 CURVE",
"494 1151 LINE",
"445.333 1055.667 OFFCURVE",
"371.333 965.667 OFFCURVE",
"272 881 CURVE",
"272 809 LINE",
"358.667 850.333 OFFCURVE",
"424.333 890 OFFCURVE",
"469 928 CURVE"
);
}
);
width = 1024;
}
);
note = arrowupdnbse;
unicode = 21A8;
},
{
glyphname = orthogonal;
lastChange = "2020-03-13 21:34:02 +0000";
layers = (
{
layerId = "E64FF656-58E6-4C13-B3CC-343A43FBFB06";
paths = (
{
closed = 1;
nodes = (
"408 1223 LINE",
"408 0 LINE",
"1632 0 LINE",
"1632 94 LINE",
"502 94 LINE",
"502 1223 LINE",
"408 1223 LINE"
);
}
);
width = 2005;
}
);
note = orthogonal;
unicode = 221F;
},
{
glyphname = intersection;
lastChange = "2020-03-13 21:34:02 +0000";
layers = (
{
layerId = "E64FF656-58E6-4C13-B3CC-343A43FBFB06";
paths = (
{
closed = 1;
nodes = (
"281 -2 LINE",
"384 -2 LINE",
"384 510 LINE SMOOTH",
"384 768.667 OFFCURVE",
"522 930 OFFCURVE",
"738 930 CURVE SMOOTH",
"951.333 930 OFFCURVE",
"1094 765.333 OFFCURVE",
"1094 512 CURVE SMOOTH",
"1094 -2 LINE",
"1197 -2 LINE",
"1197 510 LINE SMOOTH",
"1197 707.333 OFFCURVE",
"1113.167 878 OFFCURVE",
"972.5 966 CURVE SMOOTH",
"902.167 1010 OFFCURVE",
"823.333 1032 OFFCURVE",
"736 1032 CURVE SMOOTH",
"562.667 1032 OFFCURVE",
"416.333 938.833 OFFCURVE",
"339 779.5 CURVE SMOOTH",
"300.333 699.833 OFFCURVE",
"281 610 OFFCURVE",
"281 510 CURVE SMOOTH",
"281 -2 LINE"
);
}
);
width = 1479;
}
);
note = intersection;
unicode = 2229;
},
{
glyphname = equivalence;
lastChange = "2020-03-13 21:34:02 +0000";
layers = (
{
layerId = "E64FF656-58E6-4C13-B3CC-343A43FBFB06";
paths = (
{
closed = 1;
nodes = (
"100 956 LINE",
"1095 956 LINE",
"1095 1104 LINE",
"100 1104 LINE",
"100 956 LINE"
);
},
{
closed = 1;
nodes = (
"100 244 LINE",
"1095 244 LINE",
"1095 392 LINE",
"100 392 LINE",
"100 244 LINE"
);
},
{
closed = 1;
nodes = (
"100 600 LINE",
"1095 600 LINE",
"1095 748 LINE",
"100 748 LINE",
"100 600 LINE"
);
}
);
width = 1195;
}
);
note = equivalence;
unicode = 2261;
},
{
glyphname = house;
lastChange = "2020-03-13 21:34:02 +0000";
layers = (
{
layerId = "E64FF656-58E6-4C13-B3CC-343A43FBFB06";
paths = (
{
closed = 1;
nodes = (
"157 0 LINE",
"1079 0 LINE",
"1079 635 LINE",
"618 1153 LINE",
"157 635 LINE",
"157 0 LINE"
);
},
{
closed = 1;
nodes = (
"237 82 LINE",
"237 600 LINE",
"618 1026 LINE",
"999 600 LINE",
"999 82 LINE",
"237 82 LINE"
);
}
);
width = 1237;
}
);
note = house;
unicode = 2302;
},
{
glyphname = revlogicalnot;
lastChange = "2020-03-13 21:34:02 +0000";
layers = (
{
layerId = "E64FF656-58E6-4C13-B3CC-343A43FBFB06";
paths = (
{
closed = 1;
nodes = (
"100 180 LINE",
"245 180 LINE",
"245 608 LINE",
"1095 608 LINE",
"1095 754 LINE",
"100 754 LINE",
"100 180 LINE"
);
}
);
width = 1196;
}
);
note = revlogicalnot;
unicode = 2310;
},
{
glyphname = integraltp;
lastChange = "2020-03-13 21:34:02 +0000";
layers = (
{
layerId = "E64FF656-58E6-4C13-B3CC-343A43FBFB06";
paths = (
{
closed = 1;
nodes = (
"693 -614 LINE",
"693 1423 LINE SMOOTH",
"693 1493 OFFCURVE",
"695 1539.667 OFFCURVE",
"699 1563 CURVE SMOOTH",
"705 1589 OFFCURVE",
"720 1602 OFFCURVE",
"744 1602 CURVE SMOOTH",
"754.667 1602 OFFCURVE",
"771 1589 OFFCURVE",
"793 1563 CURVE SMOOTH",
"818.333 1535 OFFCURVE",
"836.333 1518.333 OFFCURVE",
"847 1513 CURVE",
"855.667 1506.333 OFFCURVE",
"870 1503 OFFCURVE",
"890 1503 CURVE SMOOTH",
"939.333 1503 OFFCURVE",
"978 1541.667 OFFCURVE",
"978 1595 CURVE SMOOTH",
"978 1659 OFFCURVE",
"924 1706 OFFCURVE",
"840 1706 CURVE SMOOTH",
"672 1706 OFFCURVE",
"546 1525.333 OFFCURVE",
"546 1264 CURVE SMOOTH",
"546 -614 LINE",
"693 -614 LINE"
);
}
);
width = 1237;
}
);
note = integraltp;
unicode = 2320;
},
{
glyphname = integralbt;
lastChange = "2020-03-13 21:34:02 +0000";
layers = (
{
layerId = "E64FF656-58E6-4C13-B3CC-343A43FBFB06";
paths = (
{
closed = 1;
nodes = (
"546 1706 LINE",
"546 -334 LINE SMOOTH",
"546 -418.667 OFFCURVE",
"542.167 -469.5 OFFCURVE",
"534.5 -486.5 CURVE SMOOTH",
"526.833 -503.5 OFFCURVE",
"513.333 -512 OFFCURVE",
"494 -512 CURVE SMOOTH",
"483.333 -512 OFFCURVE",
"467.667 -499.667 OFFCURVE",
"447 -475 CURVE SMOOTH",
"426.333 -447.667 OFFCURVE",
"412.667 -432.667 OFFCURVE",
"406 -430 CURVE",
"388.667 -419.333 OFFCURVE",
"369 -414 OFFCURVE",
"347 -414 CURVE SMOOTH",
"299 -414 OFFCURVE",
"261 -454 OFFCURVE",
"261 -506 CURVE SMOOTH",
"261 -568.667 OFFCURVE",
"319.333 -614 OFFCURVE",
"398 -614 CURVE SMOOTH",
"574 -614 OFFCURVE",
"693 -434 OFFCURVE",
"693 -174 CURVE SMOOTH",
"693 1706 LINE",
"546 1706 LINE"
);
}
);
width = 1237;
}
);
note = integralbt;
unicode = 2321;
},
{
glyphname = uni2500;
lastChange = "2020-03-13 21:34:02 +0000";
layers = (
{
layerId = "E64FF656-58E6-4C13-B3CC-343A43FBFB06";
paths = (
{
closed = 1;
nodes = (
"-10 549 LINE",
"1461 549 LINE",
"1461 694 LINE",
"-10 694 LINE",
"-10 549 LINE"
);
}
);
width = 1451;
}
);
note = uni2500;
unicode = 2500;
},
{
glyphname = uni2502;
lastChange = "2020-03-13 21:34:02 +0000";
layers = (
{
layerId = "E64FF656-58E6-4C13-B3CC-343A43FBFB06";
paths = (
{
closed = 1;
nodes = (
"472 1864 LINE",
"472 -621 LINE",
"617 -621 LINE",
"617 1864 LINE",
"472 1864 LINE"
);
}
);
width = 1280;
}
);
note = uni2502;
unicode = 2502;
},
{
glyphname = uni250C;
lastChange = "2020-03-13 21:34:02 +0000";
layers = (
{
layerId = "E64FF656-58E6-4C13-B3CC-343A43FBFB06";
paths = (
{
closed = 1;
nodes = (
"653 694 LINE",
"653 -621 LINE",
"798 -621 LINE",
"798 549 LINE",
"1461 549 LINE",
"1461 694 LINE",
"653 694 LINE"
);
}
);
width = 1451;
}
);
note = uni250C;
unicode = 250C;
},
{
glyphname = uni2510;
lastChange = "2020-03-13 21:34:02 +0000";
layers = (
{
layerId = "E64FF656-58E6-4C13-B3CC-343A43FBFB06";
paths = (
{
closed = 1;
nodes = (
"-10 549 LINE",
"653 549 LINE",
"653 -621 LINE",
"798 -621 LINE",
"798 694 LINE",
"-10 694 LINE",
"-10 549 LINE"
);
}
);
width = 1451;
}
);
note = uni2510;
unicode = 2510;
},
{
glyphname = uni2514;
lastChange = "2020-03-13 21:34:02 +0000";
layers = (
{
layerId = "E64FF656-58E6-4C13-B3CC-343A43FBFB06";
paths = (
{
closed = 1;
nodes = (
"653 1864 LINE",
"653 549 LINE",
"1461 549 LINE",
"1461 694 LINE",
"798 694 LINE",
"798 1864 LINE",
"653 1864 LINE"
);
}
);
width = 1451;
}
);
note = uni2514;
unicode = 2514;
},
{
glyphname = uni2518;
lastChange = "2020-03-13 21:34:02 +0000";
layers = (
{
layerId = "E64FF656-58E6-4C13-B3CC-343A43FBFB06";
paths = (
{
closed = 1;
nodes = (
"-10 549 LINE",
"798 549 LINE",
"798 1864 LINE",
"653 1864 LINE",
"653 694 LINE",
"-10 694 LINE",
"-10 549 LINE"
);
}
);
width = 1451;
}
);
note = uni2518;
unicode = 2518;
},
{
glyphname = uni251C;
lastChange = "2020-03-13 21:34:02 +0000";
layers = (
{
layerId = "E64FF656-58E6-4C13-B3CC-343A43FBFB06";
paths = (
{
closed = 1;
nodes = (
"653 1864 LINE",
"653 -621 LINE",
"798 -621 LINE",
"798 549 LINE",
"1461 549 LINE",
"1461 694 LINE",
"798 694 LINE",
"798 1864 LINE",
"653 1864 LINE"
);
}
);
width = 1451;
}
);
note = uni251C;
unicode = 251C;
},
{
glyphname = uni2524;
lastChange = "2020-03-13 21:34:02 +0000";
layers = (
{
layerId = "E64FF656-58E6-4C13-B3CC-343A43FBFB06";
paths = (
{
closed = 1;
nodes = (
"-10 549 LINE",
"653 549 LINE",
"653 -621 LINE",
"798 -621 LINE",
"798 1864 LINE",
"653 1864 LINE",
"653 694 LINE",
"-10 694 LINE",
"-10 549 LINE"
);
}
);
width = 1451;
}
);
note = uni2524;
unicode = 2524;
},
{
glyphname = uni252C;
lastChange = "2020-03-13 21:34:02 +0000";
layers = (
{
layerId = "E64FF656-58E6-4C13-B3CC-343A43FBFB06";
paths = (
{
closed = 1;
nodes = (
"-10 549 LINE",
"653 549 LINE",
"653 -621 LINE",
"798 -621 LINE",
"798 549 LINE",
"1461 549 LINE",
"1461 694 LINE",
"-10 694 LINE",
"-10 549 LINE"
);
}
);
width = 1451;
}
);
note = uni252C;
unicode = 252C;
},
{
glyphname = uni2534;
lastChange = "2020-03-13 21:34:02 +0000";
layers = (
{
layerId = "E64FF656-58E6-4C13-B3CC-343A43FBFB06";
paths = (
{
closed = 1;
nodes = (
"-10 549 LINE",
"1461 549 LINE",
"1461 694 LINE",
"798 694 LINE",
"798 1864 LINE",
"653 1864 LINE",
"653 694 LINE",
"-10 694 LINE",
"-10 549 LINE"
);
}
);
width = 1451;
}
);
note = uni2534;
unicode = 2534;
},
{
glyphname = uni253C;
lastChange = "2020-03-13 21:34:02 +0000";
layers = (
{
layerId = "E64FF656-58E6-4C13-B3CC-343A43FBFB06";
paths = (
{
closed = 1;
nodes = (
"-10 549 LINE",
"653 549 LINE",
"653 -621 LINE",
"798 -621 LINE",
"798 549 LINE",
"1461 549 LINE",
"1461 694 LINE",
"798 694 LINE",
"798 1864 LINE",
"653 1864 LINE",
"653 694 LINE",
"-10 694 LINE",
"-10 549 LINE"
);
}
);
width = 1451;
}
);
note = uni253C;
unicode = 253C;
},
{
glyphname = uni2550;
lastChange = "2020-03-13 21:34:02 +0000";
layers = (
{
layerId = "E64FF656-58E6-4C13-B3CC-343A43FBFB06";
paths = (
{
closed = 1;
nodes = (
"-10 729 LINE",
"1461 729 LINE",
"1461 874 LINE",
"-10 874 LINE",
"-10 729 LINE"
);
},
{
closed = 1;
nodes = (
"-10 369 LINE",
"1461 369 LINE",
"1461 514 LINE",
"-10 514 LINE",
"-10 369 LINE"
);
}
);
width = 1451;
}
);
note = uni2550;
unicode = 2550;
},
{
glyphname = uni2551;
lastChange = "2020-03-13 21:34:02 +0000";
layers = (
{
layerId = "E64FF656-58E6-4C13-B3CC-343A43FBFB06";
paths = (
{
closed = 1;
nodes = (
"473 1864 LINE",
"473 -621 LINE",
"618 -621 LINE",
"618 1864 LINE",
"473 1864 LINE"
);
},
{
closed = 1;
nodes = (
"833 1864 LINE",
"833 -621 LINE",
"978 -621 LINE",
"978 1864 LINE",
"833 1864 LINE"
);
}
);
width = 1451;
}
);
note = uni2551;
unicode = 2551;
},
{
glyphname = uni2552;
lastChange = "2020-03-13 21:34:02 +0000";
layers = (
{
layerId = "E64FF656-58E6-4C13-B3CC-343A43FBFB06";
paths = (
{
closed = 1;
nodes = (
"653 874 LINE",
"653 -621 LINE",
"798 -621 LINE",
"798 369 LINE",
"1461 369 LINE",
"1461 514 LINE",
"798 514 LINE",
"798 729 LINE",
"1461 729 LINE",
"1461 874 LINE",
"653 874 LINE"
);
}
);
width = 1451;
}
);
note = uni2552;
unicode = 2552;
},
{
glyphname = uni2553;
lastChange = "2020-03-13 21:34:02 +0000";
layers = (
{
layerId = "E64FF656-58E6-4C13-B3CC-343A43FBFB06";
paths = (
{
closed = 1;
nodes = (
"1461 694 LINE",
"473 694 LINE",
"473 -621 LINE",
"618 -621 LINE",
"618 549 LINE",
"833 549 LINE",
"833 -621 LINE",
"978 -621 LINE",
"978 549 LINE",
"1461 549 LINE",
"1461 694 LINE"
);
}
);
width = 1451;
}
);
note = uni2553;
unicode = 2553;
},
{
glyphname = uni2554;
lastChange = "2020-03-13 21:34:02 +0000";
layers = (
{
layerId = "E64FF656-58E6-4C13-B3CC-343A43FBFB06";
paths = (
{
closed = 1;
nodes = (
"473 874 LINE",
"473 -621 LINE",
"618 -621 LINE",
"618 729 LINE",
"1461 729 LINE",
"1461 874 LINE",
"473 874 LINE"
);
},
{
closed = 1;
nodes = (
"833 514 LINE",
"833 -621 LINE",
"978 -621 LINE",
"978 369 LINE",
"1461 369 LINE",
"1461 514 LINE",
"833 514 LINE"
);
}
);
width = 1451;
}
);
note = uni2554;
unicode = 2554;
},
{
glyphname = uni2555;
lastChange = "2020-03-13 21:34:02 +0000";
layers = (
{
layerId = "E64FF656-58E6-4C13-B3CC-343A43FBFB06";
paths = (
{
closed = 1;
nodes = (
"-10 369 LINE",
"653 369 LINE",
"653 -621 LINE",
"798 -621 LINE",
"798 874 LINE",
"-10 874 LINE",
"-10 729 LINE",
"653 729 LINE",
"653 514 LINE",
"-10 514 LINE",
"-10 369 LINE"
);
}
);
width = 1451;
}
);
note = uni2555;
unicode = 2555;
},
{
glyphname = uni2556;
lastChange = "2020-03-13 21:34:02 +0000";
layers = (
{
layerId = "E64FF656-58E6-4C13-B3CC-343A43FBFB06";
paths = (
{
closed = 1;
nodes = (
"-10 549 LINE",
"473 549 LINE",
"473 -621 LINE",
"618 -621 LINE",
"618 549 LINE",
"833 549 LINE",
"833 -621 LINE",
"978 -621 LINE",
"978 694 LINE",
"-10 694 LINE",
"-10 549 LINE"
);
}
);
width = 1451;
}
);
note = uni2556;
unicode = 2556;
},
{
glyphname = uni2557;
lastChange = "2020-03-13 21:34:02 +0000";
layers = (
{
layerId = "E64FF656-58E6-4C13-B3CC-343A43FBFB06";
paths = (
{
closed = 1;
nodes = (
"978 874 LINE",
"-10 874 LINE",
"-10 729 LINE",
"833 729 LINE",
"833 -621 LINE",
"978 -621 LINE",
"978 874 LINE"
);
},
{
closed = 1;
nodes = (
"618 -621 LINE",
"618 514 LINE",
"-10 514 LINE",
"-10 369 LINE",
"473 369 LINE",
"473 -621 LINE",
"618 -621 LINE"
);
}
);
width = 1451;
}
);
note = uni2557;
unicode = 2557;
},
{
glyphname = uni2558;
lastChange = "2020-03-13 21:34:02 +0000";
layers = (
{
layerId = "E64FF656-58E6-4C13-B3CC-343A43FBFB06";
paths = (
{
closed = 1;
nodes = (
"653 1864 LINE",
"653 369 LINE",
"1461 369 LINE",
"1461 514 LINE",
"798 514 LINE",
"798 729 LINE",
"1461 729 LINE",
"1461 874 LINE",
"798 874 LINE",
"798 1864 LINE",
"653 1864 LINE"
);
}
);
width = 1451;
}
);
note = uni2558;
unicode = 2558;
},
{
glyphname = uni2559;
lastChange = "2020-03-13 21:34:02 +0000";
layers = (
{
layerId = "E64FF656-58E6-4C13-B3CC-343A43FBFB06";
paths = (
{
closed = 1;
nodes = (
"833 1864 LINE",
"833 694 LINE",
"618 694 LINE",
"618 1864 LINE",
"473 1864 LINE",
"473 549 LINE",
"1461 549 LINE",
"1461 694 LINE",
"978 694 LINE",
"978 1864 LINE",
"833 1864 LINE"
);
}
);
width = 1451;
}
);
note = uni2559;
unicode = 2559;
},
{
glyphname = uni255A;
lastChange = "2020-03-13 21:34:02 +0000";
layers = (
{
layerId = "E64FF656-58E6-4C13-B3CC-343A43FBFB06";
paths = (
{
closed = 1;
nodes = (
"473 1864 LINE",
"473 369 LINE",
"1461 369 LINE",
"1461 514 LINE",
"618 514 LINE",
"618 1864 LINE",
"473 1864 LINE"
);
},
{
closed = 1;
nodes = (
"833 1864 LINE",
"833 729 LINE",
"1461 729 LINE",
"1461 874 LINE",
"978 874 LINE",
"978 1864 LINE",
"833 1864 LINE"
);
}
);
width = 1451;
}
);
note = uni255A;
unicode = 255A;
},
{
glyphname = uni255B;
lastChange = "2020-03-13 21:34:02 +0000";
layers = (
{
layerId = "E64FF656-58E6-4C13-B3CC-343A43FBFB06";
paths = (
{
closed = 1;
nodes = (
"-10 369 LINE",
"798 369 LINE",
"798 1864 LINE",
"653 1864 LINE",
"653 874 LINE",
"-10 874 LINE",
"-10 729 LINE",
"653 729 LINE",
"653 514 LINE",
"-10 514 LINE",
"-10 369 LINE"
);
}
);
width = 1451;
}
);
note = uni255B;
unicode = 255B;
},
{
glyphname = uni255C;
lastChange = "2020-03-13 21:34:02 +0000";
layers = (
{
layerId = "E64FF656-58E6-4C13-B3CC-343A43FBFB06";
paths = (
{
closed = 1;
nodes = (
"978 549 LINE",
"978 1864 LINE",
"833 1864 LINE",
"833 694 LINE",
"618 694 LINE",
"618 1864 LINE",
"473 1864 LINE",
"473 694 LINE",
"-10 694 LINE",
"-10 549 LINE",
"978 549 LINE"
);
}
);
width = 1451;
}
);
note = uni255C;
unicode = 255C;
},
{
glyphname = uni255D;
lastChange = "2020-03-13 21:34:02 +0000";
layers = (
{
layerId = "E64FF656-58E6-4C13-B3CC-343A43FBFB06";
paths = (
{
closed = 1;
nodes = (
"978 369 LINE",
"978 1864 LINE",
"833 1864 LINE",
"833 514 LINE",
"-10 514 LINE",
"-10 369 LINE",
"978 369 LINE"
);
},
{
closed = 1;
nodes = (
"473 1864 LINE",
"473 874 LINE",
"-10 874 LINE",
"-10 729 LINE",
"618 729 LINE",
"618 1864 LINE",
"473 1864 LINE"
);
}
);
width = 1451;
}
);
note = uni255D;
unicode = 255D;
},
{
glyphname = uni255E;
lastChange = "2020-03-13 21:34:02 +0000";
layers = (
{
layerId = "E64FF656-58E6-4C13-B3CC-343A43FBFB06";
paths = (
{
closed = 1;
nodes = (
"653 1864 LINE",
"653 -621 LINE",
"798 -621 LINE",
"798 369 LINE",
"1461 369 LINE",
"1461 514 LINE",
"798 514 LINE",
"798 729 LINE",
"1461 729 LINE",
"1461 874 LINE",
"798 874 LINE",
"798 1864 LINE",
"653 1864 LINE"
);
}
);
width = 1451;
}
);
note = uni255E;
unicode = 255E;
},
{
glyphname = uni255F;
lastChange = "2020-03-13 21:34:02 +0000";
layers = (
{
layerId = "E64FF656-58E6-4C13-B3CC-343A43FBFB06";
paths = (
{
closed = 1;
nodes = (
"833 1864 LINE",
"833 -621 LINE",
"978 -621 LINE",
"978 549 LINE",
"1461 549 LINE",
"1461 694 LINE",
"978 694 LINE",
"978 1864 LINE",
"833 1864 LINE"
);
},
{
closed = 1;
nodes = (
"473 1864 LINE",
"473 -621 LINE",
"618 -621 LINE",
"618 1864 LINE",
"473 1864 LINE"
);
}
);
width = 1451;
}
);
note = uni255F;
unicode = 255F;
},
{
glyphname = uni2560;
lastChange = "2020-03-13 21:34:02 +0000";
layers = (
{
layerId = "E64FF656-58E6-4C13-B3CC-343A43FBFB06";
paths = (
{
closed = 1;
nodes = (
"618 -621 LINE",
"618 1864 LINE",
"473 1864 LINE",
"473 -621 LINE",
"618 -621 LINE"
);
},
{
closed = 1;
nodes = (
"833 514 LINE",
"833 -621 LINE",
"978 -621 LINE",
"978 369 LINE",
"1461 369 LINE",
"1461 514 LINE",
"833 514 LINE"
);
},
{
closed = 1;
nodes = (
"833 1864 LINE",
"833 729 LINE",
"1461 729 LINE",
"1461 874 LINE",
"978 874 LINE",
"978 1864 LINE",
"833 1864 LINE"
);
}
);
width = 1451;
}
);
note = uni2560;
unicode = 2560;
},
{
glyphname = uni2561;
lastChange = "2020-03-13 21:34:02 +0000";
layers = (
{
layerId = "E64FF656-58E6-4C13-B3CC-343A43FBFB06";
paths = (
{
closed = 1;
nodes = (
"-10 369 LINE",
"653 369 LINE",
"653 -621 LINE",
"798 -621 LINE",
"798 1864 LINE",
"653 1864 LINE",
"653 874 LINE",
"-10 874 LINE",
"-10 729 LINE",
"653 729 LINE",
"653 514 LINE",
"-10 514 LINE",
"-10 369 LINE"
);
}
);
width = 1451;
}
);
note = uni2561;
unicode = 2561;
},
{
glyphname = uni2562;
lastChange = "2020-03-13 21:34:02 +0000";
layers = (
{
layerId = "E64FF656-58E6-4C13-B3CC-343A43FBFB06";
paths = (
{
closed = 1;
nodes = (
"-10 549 LINE",
"473 549 LINE",
"473 -621 LINE",
"618 -621 LINE",
"618 1864 LINE",
"473 1864 LINE",
"473 694 LINE",
"-10 694 LINE",
"-10 549 LINE"
);
},
{
closed = 1;
nodes = (
"833 1864 LINE",
"833 -621 LINE",
"978 -621 LINE",
"978 1864 LINE",
"833 1864 LINE"
);
}
);
width = 1451;
}
);
note = uni2562;
unicode = 2562;
},
{
glyphname = uni2563;
lastChange = "2020-03-13 21:34:02 +0000";
layers = (
{
layerId = "E64FF656-58E6-4C13-B3CC-343A43FBFB06";
paths = (
{
closed = 1;
nodes = (
"833 1864 LINE",
"833 -621 LINE",
"978 -621 LINE",
"978 1864 LINE",
"833 1864 LINE"
);
},
{
closed = 1;
nodes = (
"473 1864 LINE",
"473 874 LINE",
"-10 874 LINE",
"-10 729 LINE",
"618 729 LINE",
"618 1864 LINE",
"473 1864 LINE"
);
},
{
closed = 1;
nodes = (
"618 -621 LINE",
"618 514 LINE",
"-10 514 LINE",
"-10 369 LINE",
"473 369 LINE",
"473 -621 LINE",
"618 -621 LINE"
);
}
);
width = 1451;
}
);
note = uni2563;
unicode = 2563;
},
{
glyphname = uni2564;
lastChange = "2020-03-13 21:34:02 +0000";
layers = (
{
layerId = "E64FF656-58E6-4C13-B3CC-343A43FBFB06";
paths = (
{
closed = 1;
nodes = (
"-10 369 LINE",
"653 369 LINE",
"653 -621 LINE",
"798 -621 LINE",
"798 369 LINE",
"1461 369 LINE",
"1461 514 LINE",
"-10 514 LINE",
"-10 369 LINE"
);
},
{
closed = 1;
nodes = (
"-10 729 LINE",
"1461 729 LINE",
"1461 874 LINE",
"-10 874 LINE",
"-10 729 LINE"
);
}
);
width = 1451;
}
);
note = uni2564;
unicode = 2564;
},
{
glyphname = uni2565;
lastChange = "2020-03-13 21:34:02 +0000";
layers = (
{
layerId = "E64FF656-58E6-4C13-B3CC-343A43FBFB06";
paths = (
{
closed = 1;
nodes = (
"-10 549 LINE",
"473 549 LINE",
"473 -621 LINE",
"618 -621 LINE",
"618 549 LINE",
"833 549 LINE",
"833 -621 LINE",
"978 -621 LINE",
"978 549 LINE",
"1461 549 LINE",
"1461 694 LINE",
"-10 694 LINE",
"-10 549 LINE"
);
}
);
width = 1451;
}
);
note = uni2565;
unicode = 2565;
},
{
glyphname = uni2566;
lastChange = "2020-03-13 21:34:02 +0000";
layers = (
{
layerId = "E64FF656-58E6-4C13-B3CC-343A43FBFB06";
paths = (
{
closed = 1;
nodes = (
"618 -621 LINE",
"618 514 LINE",
"-10 514 LINE",
"-10 369 LINE",
"473 369 LINE",
"473 -621 LINE",
"618 -621 LINE"
);
},
{
closed = 1;
nodes = (
"833 514 LINE",
"833 -621 LINE",
"978 -621 LINE",
"978 369 LINE",
"1461 369 LINE",
"1461 514 LINE",
"833 514 LINE"
);
},
{
closed = 1;
nodes = (
"1461 874 LINE",
"-10 874 LINE",
"-10 729 LINE",
"1461 729 LINE",
"1461 874 LINE"
);
}
);
width = 1451;
}
);
note = uni2566;
unicode = 2566;
},
{
glyphname = uni2567;
lastChange = "2020-03-13 21:34:02 +0000";
layers = (
{
layerId = "E64FF656-58E6-4C13-B3CC-343A43FBFB06";
paths = (
{
closed = 1;
nodes = (
"-10 729 LINE",
"1461 729 LINE",
"1461 874 LINE",
"798 874 LINE",
"798 1864 LINE",
"653 1864 LINE",
"653 874 LINE",
"-10 874 LINE",
"-10 729 LINE"
);
},
{
closed = 1;
nodes = (
"-10 369 LINE",
"1461 369 LINE",
"1461 514 LINE",
"-10 514 LINE",
"-10 369 LINE"
);
}
);
width = 1451;
}
);
note = uni2567;
unicode = 2567;
},
{
glyphname = uni2568;
lastChange = "2020-03-13 21:34:02 +0000";
layers = (
{
layerId = "E64FF656-58E6-4C13-B3CC-343A43FBFB06";
paths = (
{
closed = 1;
nodes = (
"-10 549 LINE",
"1461 549 LINE",
"1461 694 LINE",
"978 694 LINE",
"978 1864 LINE",
"833 1864 LINE",
"833 694 LINE",
"618 694 LINE",
"618 1864 LINE",
"473 1864 LINE",
"473 694 LINE",
"-10 694 LINE",
"-10 549 LINE"
);
}
);
width = 1451;
}
);
note = uni2568;
unicode = 2568;
},
{
glyphname = uni2569;
lastChange = "2020-03-13 21:34:02 +0000";
layers = (
{
layerId = "E64FF656-58E6-4C13-B3CC-343A43FBFB06";
paths = (
{
closed = 1;
nodes = (
"833 1864 LINE",
"833 729 LINE",
"1461 729 LINE",
"1461 874 LINE",
"978 874 LINE",
"978 1864 LINE",
"833 1864 LINE"
);
},
{
closed = 1;
nodes = (
"473 1864 LINE",
"473 874 LINE",
"-10 874 LINE",
"-10 729 LINE",
"618 729 LINE",
"618 1864 LINE",
"473 1864 LINE"
);
},
{
closed = 1;
nodes = (
"-10 369 LINE",
"1461 369 LINE",
"1461 514 LINE",
"-10 514 LINE",
"-10 369 LINE"
);
}
);
width = 1451;
}
);
note = uni2569;
unicode = 2569;
},
{
glyphname = uni256A;
lastChange = "2020-03-13 21:34:02 +0000";
layers = (
{
layerId = "E64FF656-58E6-4C13-B3CC-343A43FBFB06";
paths = (
{
closed = 1;
nodes = (
"-10 369 LINE",
"653 369 LINE",
"653 -621 LINE",
"798 -621 LINE",
"798 369 LINE",
"1461 369 LINE",
"1461 514 LINE",
"798 514 LINE",
"798 729 LINE",
"1461 729 LINE",
"1461 874 LINE",
"798 874 LINE",
"798 1864 LINE",
"653 1864 LINE",
"653 874 LINE",
"-10 874 LINE",
"-10 729 LINE",
"653 729 LINE",
"653 514 LINE",
"-10 514 LINE",
"-10 369 LINE"
);
}
);
width = 1451;
}
);
note = uni256A;
unicode = 256A;
},
{
glyphname = uni256B;
lastChange = "2020-03-13 21:34:02 +0000";
layers = (
{
layerId = "E64FF656-58E6-4C13-B3CC-343A43FBFB06";
paths = (
{
closed = 1;
nodes = (
"833 1864 LINE",
"833 694 LINE",
"618 694 LINE",
"618 1864 LINE",
"473 1864 LINE",
"473 694 LINE",
"-10 694 LINE",
"-10 549 LINE",
"473 549 LINE",
"473 -621 LINE",
"618 -621 LINE",
"618 549 LINE",
"833 549 LINE",
"833 -621 LINE",
"978 -621 LINE",
"978 549 LINE",
"1461 549 LINE",
"1461 694 LINE",
"978 694 LINE",
"978 1864 LINE",
"833 1864 LINE"
);
}
);
width = 1451;
}
);
note = uni256B;
unicode = 256B;
},
{
glyphname = uni256C;
lastChange = "2020-03-13 21:34:02 +0000";
layers = (
{
layerId = "E64FF656-58E6-4C13-B3CC-343A43FBFB06";
paths = (
{
closed = 1;
nodes = (
"833 1864 LINE",
"833 729 LINE",
"1461 729 LINE",
"1461 874 LINE",
"978 874 LINE",
"978 1864 LINE",
"833 1864 LINE"
);
},
{
closed = 1;
nodes = (
"618 -621 LINE",
"618 514 LINE",
"-10 514 LINE",
"-10 369 LINE",
"473 369 LINE",
"473 -621 LINE",
"618 -621 LINE"
);
},
{
closed = 1;
nodes = (
"833 514 LINE",
"833 -621 LINE",
"978 -621 LINE",
"978 369 LINE",
"1461 369 LINE",
"1461 514 LINE",
"833 514 LINE"
);
},
{
closed = 1;
nodes = (
"473 1864 LINE",
"473 874 LINE",
"-10 874 LINE",
"-10 729 LINE",
"618 729 LINE",
"618 1864 LINE",
"473 1864 LINE"
);
}
);
width = 1451;
}
);
note = uni256C;
unicode = 256C;
},
{
glyphname = upblock;
lastChange = "2020-03-13 21:34:02 +0000";
layers = (
{
layerId = "E64FF656-58E6-4C13-B3CC-343A43FBFB06";
paths = (
{
closed = 1;
nodes = (
"1451 621 LINE",
"1451 1864 LINE",
"0 1864 LINE",
"0 621 LINE",
"1451 621 LINE"
);
}
);
width = 1451;
}
);
note = upblock;
unicode = 2580;
},
{
glyphname = dnblock;
lastChange = "2020-03-13 21:34:02 +0000";
layers = (
{
layerId = "E64FF656-58E6-4C13-B3CC-343A43FBFB06";
paths = (
{
closed = 1;
nodes = (
"1451 -621 LINE",
"1451 621 LINE",
"0 621 LINE",
"0 -621 LINE",
"1451 -621 LINE"
);
}
);
width = 1451;
}
);
note = dnblock;
unicode = 2584;
},
{
glyphname = block;
lastChange = "2020-03-13 21:34:02 +0000";
layers = (
{
layerId = "E64FF656-58E6-4C13-B3CC-343A43FBFB06";
paths = (
{
closed = 1;
nodes = (
"1451 -621 LINE",
"1451 1864 LINE",
"0 1864 LINE",
"0 -621 LINE",
"1451 -621 LINE"
);
}
);
width = 1451;
}
);
note = block;
unicode = 2588;
},
{
glyphname = lfblock;
lastChange = "2020-03-13 21:34:02 +0000";
layers = (
{
layerId = "E64FF656-58E6-4C13-B3CC-343A43FBFB06";
paths = (
{
closed = 1;
nodes = (
"726 -621 LINE",
"726 1864 LINE",
"0 1864 LINE",
"0 -621 LINE",
"726 -621 LINE"
);
}
);
width = 1451;
}
);
note = lfblock;
unicode = 258C;
},
{
glyphname = rtblock;
lastChange = "2020-03-13 21:34:02 +0000";
layers = (
{
layerId = "E64FF656-58E6-4C13-B3CC-343A43FBFB06";
paths = (
{
closed = 1;
nodes = (
"1451 -621 LINE",
"1451 1864 LINE",
"725 1864 LINE",
"725 -621 LINE",
"1451 -621 LINE"
);
}
);
width = 1451;
}
);
note = rtblock;
unicode = 2590;
},
{
glyphname = ltshade;
lastChange = "2020-03-13 21:34:02 +0000";
layers = (
{
layerId = "E64FF656-58E6-4C13-B3CC-343A43FBFB06";
paths = (
{
closed = 1;
nodes = (
"103 1314 LINE",
"103 1216 LINE",
"207 1216 LINE",
"207 1314 LINE",
"103 1314 LINE"
);
},
{
closed = 1;
nodes = (
"517 1314 LINE",
"517 1216 LINE",
"621 1216 LINE",
"621 1314 LINE",
"517 1314 LINE"
);
},
{
closed = 1;
nodes = (
"933 1314 LINE",
"933 1216 LINE",
"1036 1216 LINE",
"1036 1314 LINE",
"933 1314 LINE"
);
},
{
closed = 1;
nodes = (
"310 1119 LINE",
"310 1023 LINE",
"414 1023 LINE",
"414 1119 LINE",
"310 1119 LINE"
);
},
{
closed = 1;
nodes = (
"725 1119 LINE",
"725 1023 LINE",
"829 1023 LINE",
"829 1119 LINE",
"725 1119 LINE"
);
},
{
closed = 1;
nodes = (
"1140 1119 LINE",
"1140 1023 LINE",
"1244 1023 LINE",
"1244 1119 LINE",
"1140 1119 LINE"
);
},
{
closed = 1;
nodes = (
"933 927 LINE",
"933 831 LINE",
"1036 831 LINE",
"1036 927 LINE",
"933 927 LINE"
);
},
{
closed = 1;
nodes = (
"517 927 LINE",
"517 831 LINE",
"621 831 LINE",
"621 927 LINE",
"517 927 LINE"
);
},
{
closed = 1;
nodes = (
"103 927 LINE",
"103 831 LINE",
"207 831 LINE",
"207 927 LINE",
"103 927 LINE"
);
},
{
closed = 1;
nodes = (
"1140 732 LINE",
"1140 636 LINE",
"1244 636 LINE",
"1244 732 LINE",
"1140 732 LINE"
);
},
{
closed = 1;
nodes = (
"725 732 LINE",
"725 636 LINE",
"829 636 LINE",
"829 732 LINE",
"725 732 LINE"
);
},
{
closed = 1;
nodes = (
"310 732 LINE",
"310 636 LINE",
"414 636 LINE",
"414 732 LINE",
"310 732 LINE"
);
},
{
closed = 1;
nodes = (
"103 540 LINE",
"103 444 LINE",
"207 444 LINE",
"207 540 LINE",
"103 540 LINE"
);
},
{
closed = 1;
nodes = (
"517 540 LINE",
"517 444 LINE",
"621 444 LINE",
"621 540 LINE",
"517 540 LINE"
);
},
{
closed = 1;
nodes = (
"933 540 LINE",
"933 444 LINE",
"1036 444 LINE",
"1036 540 LINE",
"933 540 LINE"
);
},
{
closed = 1;
nodes = (
"1140 345 LINE",
"1140 249 LINE",
"1244 249 LINE",
"1244 345 LINE",
"1140 345 LINE"
);
},
{
closed = 1;
nodes = (
"725 345 LINE",
"725 249 LINE",
"829 249 LINE",
"829 345 LINE",
"725 345 LINE"
);
},
{
closed = 1;
nodes = (
"310 345 LINE",
"310 249 LINE",
"414 249 LINE",
"414 345 LINE",
"310 345 LINE"
);
},
{
closed = 1;
nodes = (
"103 153 LINE",
"103 56 LINE",
"207 56 LINE",
"207 153 LINE",
"103 153 LINE"
);
},
{
closed = 1;
nodes = (
"517 153 LINE",
"517 56 LINE",
"621 56 LINE",
"621 153 LINE",
"517 153 LINE"
);
},
{
closed = 1;
nodes = (
"933 153 LINE",
"933 56 LINE",
"1036 56 LINE",
"1036 153 LINE",
"933 153 LINE"
);
},
{
closed = 1;
nodes = (
"310 -42 LINE",
"310 -136 LINE",
"414 -136 LINE",
"414 -42 LINE",
"310 -42 LINE"
);
},
{
closed = 1;
nodes = (
"725 -42 LINE",
"725 -136 LINE",
"829 -136 LINE",
"829 -42 LINE",
"725 -42 LINE"
);
},
{
closed = 1;
nodes = (
"1140 -42 LINE",
"1140 -136 LINE",
"1244 -136 LINE",
"1244 -42 LINE",
"1140 -42 LINE"
);
},
{
closed = 1;
nodes = (
"933 -234 LINE",
"933 -331 LINE",
"1036 -331 LINE",
"1036 -234 LINE",
"933 -234 LINE"
);
},
{
closed = 1;
nodes = (
"517 -234 LINE",
"517 -331 LINE",
"621 -331 LINE",
"621 -234 LINE",
"517 -234 LINE"
);
},
{
closed = 1;
nodes = (
"103 -234 LINE",
"103 -331 LINE",
"207 -331 LINE",
"207 -234 LINE",
"103 -234 LINE"
);
},
{
closed = 1;
nodes = (
"310 -427 LINE",
"310 -523 LINE",
"414 -523 LINE",
"414 -427 LINE",
"310 -427 LINE"
);
},
{
closed = 1;
nodes = (
"725 -427 LINE",
"725 -523 LINE",
"829 -523 LINE",
"829 -427 LINE",
"725 -427 LINE"
);
},
{
closed = 1;
nodes = (
"1140 -427 LINE",
"1140 -523 LINE",
"1244 -523 LINE",
"1244 -427 LINE",
"1140 -427 LINE"
);
},
{
closed = 1;
nodes = (
"310 1506 LINE",
"310 1408 LINE",
"414 1408 LINE",
"414 1506 LINE",
"310 1506 LINE"
);
},
{
closed = 1;
nodes = (
"725 1506 LINE",
"725 1408 LINE",
"829 1408 LINE",
"829 1506 LINE",
"725 1506 LINE"
);
},
{
closed = 1;
nodes = (
"1140 1506 LINE",
"1140 1408 LINE",
"1244 1408 LINE",
"1244 1506 LINE",
"1140 1506 LINE"
);
},
{
closed = 1;
nodes = (
"103 1699 LINE",
"103 1603 LINE",
"207 1603 LINE",
"207 1699 LINE",
"103 1699 LINE"
);
},
{
closed = 1;
nodes = (
"517 1699 LINE",
"517 1603 LINE",
"621 1603 LINE",
"621 1699 LINE",
"517 1699 LINE"
);
},
{
closed = 1;
nodes = (
"933 1699 LINE",
"933 1603 LINE",
"1036 1603 LINE",
"1036 1699 LINE",
"933 1699 LINE"
);
},
{
closed = 1;
nodes = (
"1347 1314 LINE",
"1347 1216 LINE",
"1451 1216 LINE",
"1451 1314 LINE",
"1347 1314 LINE"
);
},
{
closed = 1;
nodes = (
"1347 927 LINE",
"1347 831 LINE",
"1451 831 LINE",
"1451 927 LINE",
"1347 927 LINE"
);
},
{
closed = 1;
nodes = (
"1347 540 LINE",
"1347 444 LINE",
"1451 444 LINE",
"1451 540 LINE",
"1347 540 LINE"
);
},
{
closed = 1;
nodes = (
"1347 153 LINE",
"1347 56 LINE",
"1451 56 LINE",
"1451 153 LINE",
"1347 153 LINE"
);
},
{
closed = 1;
nodes = (
"1347 -234 LINE",
"1347 -331 LINE",
"1451 -331 LINE",
"1451 -234 LINE",
"1347 -234 LINE"
);
},
{
closed = 1;
nodes = (
"1347 1699 LINE",
"1347 1603 LINE",
"1451 1603 LINE",
"1451 1699 LINE",
"1347 1699 LINE"
);
}
);
width = 1451;
}
);
note = ltshade;
unicode = 2591;
},
